<svg width="17" height="33" viewBox="0 0 17 33" fill="none" xmlns="http://www.w3.org/2000/svg">
<path fill-rule="evenodd" clip-rule="evenodd" d="M1.039 0.706C0.651 1.094 0.333 2.661 0.333 4.187V6.961L1.333 7.579L2.333 8.197V10.473C2.333 11.725 3.18 15.411 4.215 18.664C5.249 21.917 6.357 26.012 6.677 27.764L7.257 30.95L5.045 31.378L2.833 31.807H8.333H13.833L11.621 31.378L9.409 30.95L9.989 27.764C10.309 26.012 11.417 21.917 12.451 18.664C13.486 15.411 14.333 11.788 14.333 10.614C14.333 9.44 14.818 7.994 15.411 7.401L16.489 6.323L16.161 3.451L15.833 0.579L8.789 0.289L1.746 0L1.039 0.706ZM14.333 4.079V7.079H13.274H12.215L12.833 6.079L13.451 5.079H8.333H3.215L3.833 6.079L4.451 7.079H3.392H2.333V4.079V1.079H8.333H14.333V4.079ZM12.333 11.579V14.079H8.333H4.333V11.579V9.079H8.333H12.333V11.579ZM11.333 16.497C11.333 17.277 11.06 18.627 10.726 19.497L10.119 21.079H8.333H6.547L5.94 19.497C5.606 18.627 5.333 17.277 5.333 16.497V15.079H8.333H11.333V16.497ZM9.333 24.079C9.333 24.629 8.883 25.079 8.333 25.079C7.783 25.079 7.333 24.629 7.333 24.079C7.333 23.529 7.783 23.079 8.333 23.079C8.883 23.079 9.333 23.529 9.333 24.079ZM0.666 31.746L1.333 32.412L2 31.746L2.666 31.079H1.333H0L0.666 31.746ZM14.666 31.746L15.333 32.412L16 31.746L16.666 31.079H15.333H14L14.666 31.746Z" fill="#BFDBD7"/>
</svg>
