<svg width="24" height="34" viewBox="0 0 24 34" fill="none" xmlns="http://www.w3.org/2000/svg">
<path fill-rule="evenodd" clip-rule="evenodd" d="M15.7732 0.142132L15.4603 0.284197L15.265 0.493113C15.1576 0.607961 15.025 0.79809 14.9704 0.915593L14.8712 1.12922V1.3637V1.59817H12.7419H10.6126L10.386 1.80244L10.1595 2.00671V2.26203V2.51735L10.386 2.72162L10.6126 2.92589H12.7419H14.8712V6.36918V9.81255L14.5801 9.84773L14.2891 9.88292L14.0647 10.027C13.9412 10.1063 13.7544 10.2725 13.6497 10.3964L13.4591 10.6217L13.4192 10.8897L13.3794 11.1577H9.04167H4.70393L4.17401 11.2629L3.64417 11.3681L2.94714 11.6698L2.25011 11.9714L1.5762 12.579L0.902356 13.1867L0.567828 13.8153L0.233301 14.4438L0.116613 14.9216L0 15.3994V22.5761V29.7527L0.116613 30.2306L0.233301 30.7083L0.567828 31.3369L0.902356 31.9654L1.5762 32.5731L2.25011 33.1807L2.94714 33.4829L3.64417 33.785L4.19632 33.8925L4.74847 34L10.7485 33.98L16.7485 33.96L17.2638 33.8042C17.5472 33.7186 18.014 33.5457 18.301 33.4199L18.8228 33.1914L19.36 32.8053L19.8973 32.4192L20.3254 31.9347L20.7537 31.4503L21.0071 30.9797C21.1465 30.7209 21.332 30.3001 21.4193 30.0445L21.5781 29.5798L21.6213 28.9468L21.6645 28.3138L21.4278 28.1004L21.1911 27.8869H18.5477H15.9042L15.6654 28.0793L15.4266 28.2716V28.5508V28.8299L15.6654 29.0223L15.9042 29.2147H17.9993H20.0945L20.0494 29.4304C20.0245 29.549 19.9076 29.8553 19.7894 30.1109L19.5745 30.5756L19.2637 30.9725L18.9529 31.3694L18.5309 31.6759C17.9949 32.0653 17.5004 32.3078 16.8749 32.4876L16.3804 32.6299L10.7378 32.6506L5.09514 32.6714L4.56677 32.572L4.0384 32.4727L3.55796 32.2544L3.07745 32.036L2.62461 31.6277L2.17178 31.2194L1.92986 30.7865L1.68795 30.3536L1.58142 29.9003L1.47497 29.447V22.5761V15.7051L1.58142 15.2519L1.68795 14.7986L1.92986 14.3657L2.17178 13.9328L2.62461 13.5244L3.07745 13.1161L3.55752 12.898L4.03759 12.6798L4.54027 12.5838L5.04294 12.4878L9.22086 12.4866L13.3988 12.4854V14.2089V15.9323L10.1411 15.9515L6.88344 15.9707L6.57261 16.1205C6.40167 16.2028 6.15136 16.3577 6.01649 16.4644L5.77126 16.6586L5.55431 17.0117L5.33742 17.3648V22.5761V27.7874L5.50351 28.0676C5.59487 28.2218 5.76655 28.4475 5.88493 28.5691L6.10027 28.7902L6.49185 28.9859L6.88344 29.1815L8.62152 29.2023L10.3596 29.2231L10.5908 29.0146L10.8221 28.8061V28.5508V28.2955L10.6008 28.0959L10.3795 27.8964L8.79865 27.8751L7.21774 27.8537L7.01382 27.6697L6.80982 27.4856V22.5761V17.6665L7.01389 17.4825L7.21789 17.2984L10.2983 17.2791L13.3786 17.2598L13.418 17.5249L13.4574 17.7901L13.6173 17.9925C13.7052 18.1038 13.8895 18.2722 14.0269 18.3667L14.2767 18.5385L14.574 18.5745L14.8712 18.6104V19.7966V20.9828H14.5087H14.1463L13.9198 21.1871L13.6933 21.3914V22.9744V24.5574L13.9198 24.7617L14.1463 24.966H17.0798H20.0132L20.2397 24.7617L20.4663 24.5574V22.9744V21.3914L20.2397 21.1871L20.0132 20.9828H19.6508H19.2883V19.7966V18.6104L19.5855 18.5745L19.8828 18.5385L20.1326 18.3667C20.27 18.2722 20.4592 18.0978 20.5531 17.979L20.7239 17.7631V14.2063V10.6495L20.5216 10.4104C20.4104 10.2788 20.2183 10.1063 20.0948 10.027L19.8704 9.88292L19.5794 9.84773L19.2883 9.81255V6.36918V2.92589H21.4176H23.5469L23.7735 2.72162L24 2.51735V2.26203V2.00671L23.7735 1.80244L23.5469 1.59817H21.427H19.307L19.2719 1.2679L19.2367 0.937566L19.0411 0.670961L18.8454 0.404356L18.5388 0.221264L18.2323 0.0381054L17.1591 0.0190527L16.0859 0L15.7732 0.142132ZM17.7997 2.24543L17.8202 3.12504H17.0819H16.3436V2.27312V1.42112L16.3952 1.37458L16.4468 1.32798L17.113 1.3469L17.7791 1.36582L17.7997 2.24543ZM17.816 7.14138V9.83001H17.0798H16.3436V7.14138V4.45276H17.0798H17.816V7.14138ZM19.2883 14.2115V17.2652H17.0798H14.8712V14.2115V11.1577H17.0798H19.2883V14.2115ZM3.17131 16.0754L2.94479 16.2797V16.477V16.6743L3.04969 16.8573L3.1546 17.0402L3.34763 17.1195C3.60147 17.2239 3.7909 17.2196 4.0384 17.1042L4.2413 17.0096L4.3292 16.8356C4.37757 16.7398 4.41718 16.5756 4.41718 16.4706V16.2797L4.19065 16.0754L3.96412 15.8711H3.68098H3.39784L3.17131 16.0754ZM3.17131 18.4653L2.94479 18.6695V21.3147V23.96L3.17131 24.1642L3.39784 24.3685H3.68098H3.96412L4.19065 24.1642L4.41718 23.96V21.3147V18.6695L4.19065 18.4653L3.96412 18.261H3.68098H3.39784L3.17131 18.4653ZM17.816 19.7879V20.9828H17.0798H16.3436V19.7879V18.5929H17.0798H17.816V19.7879ZM18.9939 22.9744V23.6382H17.0798H15.1656V22.9744V22.3105H17.0798H18.9939V22.9744ZM12.6569 28.081L12.4417 28.275V28.5508V28.8266L12.6569 29.0206L12.8721 29.2147H13.1343H13.3964L13.6352 29.0223L13.874 28.8299V28.5508V28.2716L13.6352 28.0793L13.3964 27.8869H13.1343H12.8721L12.6569 28.081Z" fill="#BFDBD7"/>
</svg>
