<svg width="15" height="25" viewBox="0 0 15 25" fill="none" xmlns="http://www.w3.org/2000/svg">
<path d="M7.5 25C5.425 25 3.65625 24.3906 2.19375 23.1719C0.731249 21.9531 0 20.4792 0 18.75C0 17.6875 0.2875 16.6875 0.8625 15.75C1.4375 14.8125 2.2875 14.1146 3.4125 13.6563V3.40625C3.4125 2.46875 3.8125 1.66667 4.6125 1C5.4125 0.333333 6.375 0 7.5 0C8.625 0 9.5875 0.333333 10.3875 1C11.1875 1.66667 11.5875 2.46875 11.5875 3.40625V13.6563C12.7125 14.1146 13.5625 14.8125 14.1375 15.75C14.7125 16.6875 15 17.6875 15 18.75C15 20.4792 14.2688 21.9531 12.8063 23.1719C11.3438 24.3906 9.575 25 7.5 25ZM5.6625 11.4062H9.3375V9.75H7.5V8.53125H9.3375V5.8125H7.5V4.59375H9.3375V3.40625C9.3375 2.96875 9.1625 2.60417 8.8125 2.3125C8.4625 2.02083 8.025 1.875 7.5 1.875C6.975 1.875 6.5375 2.02083 6.1875 2.3125C5.8375 2.60417 5.6625 2.96875 5.6625 3.40625V11.4062Z" fill="#00FF47"/>
</svg>
