<svg width="683" height="659" viewBox="0 0 683 659" fill="none" xmlns="http://www.w3.org/2000/svg">
<path d="M163.6 1.86742C157.066 4.26742 155.066 6.13409 151.866 12.1341C149.6 16.8008 149.333 20.4008 149.2 54.2674V91.3341L138.266 96.5341C122.133 104.267 110 117.467 104.133 133.601L102.667 137.334H59.8665C12.3998 137.334 11.0665 137.601 4.66649 146.001C-1.86684 154.534 -1.33351 165.067 6.13316 173.201C12.7998 180.801 16.7998 181.334 61.1998 181.334H99.9998V329.334V477.334H61.1998C16.7998 477.334 12.7998 477.867 6.13316 485.467C-1.33351 493.601 -1.86684 504.134 4.66649 512.667C11.0665 521.067 12.3998 521.334 59.8665 521.334C99.4665 521.334 102.8 521.467 103.467 523.734C108.8 539.734 122 554.401 138.266 562.134L149.2 567.334V604.401C149.333 638.934 149.466 641.734 152 646.801C157.066 656.667 168.8 660.801 178.933 656.267C192.133 650.401 193.2 646.401 193.333 604.267V570.667H214H234.533L234.933 607.734L235.333 644.934L238.933 649.601C243.467 655.467 252.533 659.334 259.067 658.134C265.333 656.934 272 652.267 275.2 646.667C277.867 642.267 278 639.467 278.4 606.267L278.933 570.667H299.333H319.867L320.267 607.867C320.667 650.134 320.667 649.867 332 655.734C339.467 659.467 343.2 659.467 350.667 655.601C362 649.867 362 650.134 362.4 607.867L362.8 570.667H383.333H403.733L404.267 606.267C404.667 639.467 404.8 642.267 407.467 646.667C410.667 652.267 417.333 656.934 423.6 658.134C430.133 659.334 439.2 655.467 443.733 649.601L447.333 644.934L447.733 607.734L448.133 570.667H468.667H489.333V604.267C489.467 646.534 490.533 650.401 503.867 656.267C513.733 660.801 525.733 656.401 530.667 646.534C533.067 641.867 533.333 638.534 533.467 604.401V567.334L544.4 562.134C560.667 554.401 573.867 539.734 579.2 523.601C579.867 521.467 583.2 521.334 622.8 521.334C670.267 521.334 671.6 521.067 678 512.667C684.533 504.134 684 493.601 676.533 485.467C669.867 477.867 665.867 477.334 621.467 477.334H582.667V346.134C582.667 256.801 582.267 213.601 581.2 211.067C579.067 205.334 572 198.801 566.267 197.201C556.267 194.534 545.867 199.201 541.467 208.534C538.667 214.134 538.667 215.201 538.667 361.334V508.401L535.333 514.134C532.933 518.134 530 520.667 525.067 523.201L518.133 526.667H341.333H164.533L157.6 523.201C152.666 520.667 149.733 518.134 147.333 514.134L144 508.401V329.467C144 175.867 144.266 150.001 145.866 146.801C148.8 141.334 156.533 135.067 162.266 133.467C169.333 131.467 513.333 131.467 520.4 133.467C526.133 135.067 533.867 141.334 536.8 146.801C537.733 148.801 538.667 153.334 538.667 156.667C538.667 168.134 545.066 177.067 555.333 179.867C561.867 181.601 658.267 181.867 665.867 180.134C672.133 178.667 679.467 171.867 681.467 165.601C684.8 155.734 679.733 144.001 670.267 139.467C666.267 137.601 659.733 137.334 622.8 137.334H580L578.533 133.601C572.667 117.467 560.533 104.267 544.4 96.5341L533.467 91.3341V54.2674C533.333 20.1341 533.067 16.8008 530.667 12.1341C525.733 2.26742 513.733 -2.13258 503.867 2.40076C490.533 8.26742 489.467 12.1341 489.333 54.2674V88.0008H468.667H448.133L447.733 50.9341L447.333 13.7341L443.733 9.06742C439.2 3.20076 430.133 -0.665911 423.6 0.534089C417.333 1.73409 410.667 6.40076 407.467 12.0008C404.8 16.4008 404.667 19.2008 404.267 52.2674L403.733 88.0008H383.333H362.8L362.4 50.8008C362 15.6008 361.867 13.3341 359.2 9.73409C356 5.33409 346.267 0.000755396 341.333 0.000755396C336.4 0.000755396 326.667 5.33409 323.467 9.73409C320.8 13.3341 320.667 15.6008 320.267 50.8008L319.867 88.0008H299.333H278.933L278.4 52.2674C278 19.2008 277.867 16.4008 275.2 12.0008C272 6.40076 265.333 1.73409 259.067 0.534089C252.533 -0.665911 243.467 3.20076 238.933 9.06742L235.333 13.7341L234.933 50.9341L234.533 88.0008H214H193.333V54.2674C193.2 12.5341 192.133 8.40075 179.333 2.53409C173.066 -0.399245 170.4 -0.532578 163.6 1.86742Z" fill="#BFDBD7"/>
<path d="M266 215.867C260 217.334 256.533 219.6 253.6 223.6C252.133 225.734 234.4 269.867 214.133 321.867C188.4 388 177.333 417.867 177.333 421.6C177.333 436.267 190.133 446.4 203.733 442.667C213.2 440.134 216.666 435.734 223.866 417.334L230.4 400.667H270.8H311.2L316.666 414.667C324.133 433.467 325.866 436.667 330.933 439.734C342.4 446.8 356.266 443.2 362.266 431.467C366.666 423.067 365.866 420.8 327.466 321.867C307.2 269.867 289.466 225.867 288.133 224C283.466 217.467 273.733 214 266 215.867ZM282.4 326.934C288.4 342.534 293.333 355.734 293.333 356.267C293.333 357.6 248 357.734 248 356.4C248 354.667 270 298.667 270.666 298.667C271.066 298.667 276.4 311.467 282.4 326.934Z" fill="#BFDBD7"/>
<path d="M396.934 216.534C387.467 220 382.4 226.934 382.4 236.667C382.4 249.6 392.134 258.667 406.134 258.667H412V329.2V399.734L404 400.267C392.8 401.067 385.067 407.334 382.8 417.467C380.667 427.334 385.067 436 394.8 441.067C400.534 444 401.467 444.134 436 443.734C470.4 443.334 471.467 443.2 476.4 440.134C490.667 431.334 489.467 409.467 474.267 402.134C471.734 400.934 466.534 400 462.8 400H456V329.334V258.667H462.8C475.867 258.667 485.2 250.8 486.4 238.8C487.067 230.667 483.067 222.667 476 218.267C471.6 215.467 469.734 215.334 436.667 215.067C409.734 214.8 400.8 215.067 396.934 216.534Z" fill="#BFDBD7"/>
<path d="M12.5327 224.533C10.266 225.6 6.66602 228.666 4.53268 231.466C1.33268 235.6 0.666016 237.733 0.666016 244.133C0.666016 249.866 1.33268 252.8 3.46602 255.6C10.7993 265.466 19.1993 267.333 51.1994 266.4C67.066 266 70.9327 265.466 74.7994 263.2C81.5994 259.2 85.3327 252.8 85.3327 245.066C85.3327 236 82.1327 229.866 75.3327 226C69.866 222.8 69.066 222.666 43.1994 222.666C23.866 222.8 15.5993 223.2 12.5327 224.533Z" fill="#BFDBD7"/>
<path d="M607.199 226C593.466 234.133 593.866 255.066 607.866 263.2C611.733 265.466 615.599 266 631.466 266.4C663.466 267.333 671.866 265.466 679.199 255.6C681.333 252.8 681.999 249.866 681.999 244.133C681.999 237.733 681.333 235.6 678.133 231.466C671.999 223.333 668.933 222.666 639.066 222.666C613.333 222.666 612.533 222.8 607.199 226Z" fill="#BFDBD7"/>
<path d="M10.666 310.935C3.06602 316.135 0.666016 320.535 0.666016 329.335C0.666016 338.135 3.06602 342.535 10.666 347.601C14.9327 350.535 16.266 350.668 42.266 350.668C73.066 350.668 76.3994 349.868 82.1327 341.468C86.666 334.801 86.666 323.868 82.1327 317.201C76.3994 308.801 73.066 308.001 42.266 308.001C16.266 308.001 14.9327 308.135 10.666 310.935Z" fill="#BFDBD7"/>
<path d="M608.267 310.268C593.467 317.468 593.6 341.468 608.4 348.535C612.267 350.268 617.867 350.668 640.4 350.668C666.4 350.668 667.734 350.535 672 347.601C679.6 342.535 682 338.135 682 329.335C682 320.535 679.6 316.135 672 310.935C667.734 308.135 666.4 308.001 640.134 308.001C617.467 308.001 611.867 308.401 608.267 310.268Z" fill="#BFDBD7"/>
<path d="M18.266 393.2C12.5327 394.4 7.46602 397.867 3.46602 403.2C1.33268 405.867 0.666016 408.8 0.666016 414.533C0.666016 420.933 1.33268 423.067 4.53268 427.2C10.666 435.333 13.866 436 43.466 436C69.066 436 69.866 435.867 75.3327 432.667C89.1994 424.533 88.7994 403.733 74.666 395.467C70.5327 392.933 67.466 392.667 46.666 392.4C33.866 392.267 21.066 392.667 18.266 393.2Z" fill="#BFDBD7"/>
<path d="M614.4 393.2C603.866 395.333 597.333 403.067 597.333 413.733C597.333 422.667 600.533 428.8 607.333 432.667C612.8 435.867 613.6 436 639.2 436C668.8 436 672 435.333 678.133 427.2C681.333 423.067 682 420.933 682 414.533C682 403.2 675.333 395.467 663.866 393.2C656.8 391.867 621.333 391.867 614.4 393.2Z" fill="#BFDBD7"/>
</svg>
