<svg width="52" height="45" viewBox="0 0 52 45" fill="none" xmlns="http://www.w3.org/2000/svg">
<path fill-rule="evenodd" clip-rule="evenodd" d="M18.5843 0.35967C16.5163 0.766655 14.0408 1.61338 12.1707 2.55309L10.564 3.36044L10.7764 5.40265C10.9717 7.28305 11.4394 10.8639 11.8316 13.4835L11.9929 14.5588H12.265C12.4147 14.5588 13.3244 13.3303 14.2869 11.829C16.29 8.70419 18.5187 5.75801 21.2663 2.60272C22.3174 1.39566 23.1773 0.315993 23.1773 0.203824V0L21.6106 0.0363973C20.7491 0.0562502 19.3872 0.201839 18.5843 0.35967ZM23.6031 2.72978C20.6551 5.72493 16.8827 10.6544 14.4429 14.6998L12.5764 17.7949L13.2756 21.7191C14.8414 30.5057 17.0773 38.4856 19.1263 42.6011L20.3209 45L22.6562 44.9944L24.9914 44.9884L27.3003 44.508L29.6092 44.0275L32.6895 42.475L35.7695 40.9229L37.9916 38.7427L40.2137 36.5625L41.4025 34.7426C42.9524 32.3702 43.7483 30.4667 44.4086 27.5539L44.9466 25.1818V22.405V19.6279L44.2862 17.0107L43.6259 14.3934L42.6103 12.3704L41.5951 10.3474L39.9921 8.35974L38.3888 6.37246L36.3101 4.80474C33.2024 2.4611 28.4145 0.330882 26.255 0.330882C26.0951 0.330882 24.9017 1.41055 23.6031 2.72978ZM7.16143 6.20404C4.84333 8.42294 3.39007 10.4536 2.06511 13.3246L1.11386 15.386L0.557095 18.1873L0 20.9889L0.20318 23.8583L0.40603 26.728L1.22864 29.3291L2.05093 31.9301L3.27792 34.0041L4.50525 36.0784L4.85322 35.9639L5.2012 35.8494L5.29323 34.5517C5.41065 32.8917 6.14586 29.8075 7.39693 25.7258L8.38611 22.499L9.84465 19.6554L11.3032 16.8115V15.796C11.3032 15.2375 10.9849 12.4226 10.5957 9.54099L9.88819 4.30147H9.51877C9.31559 4.30147 8.25484 5.15746 7.16143 6.20404ZM14.5884 7.75985L14.9858 8.24029L14.7813 8.8875L14.5765 9.53438L14.0478 9.73787L13.519 9.94136L12.9059 9.74614L12.2927 9.55092V8.60823V7.66555L12.705 7.49846C12.9319 7.4068 13.3587 7.31978 13.6543 7.30555L14.1909 7.27941L14.5884 7.75985ZM7.8399 11.25V11.7374L7.26269 11.8489L6.68547 11.9604V11.25V10.5396L7.26269 10.6511L7.8399 10.7626V11.25ZM9.97065 15.6272L10.4743 16.5302L9.76417 17.2423L9.05436 17.9543L8.2047 17.7406L7.35504 17.5268L7.14625 16.691L6.93714 15.8556L7.53513 15.1928L8.13345 14.5297L8.80006 14.627L9.46699 14.7243L9.97065 15.6272ZM10.6514 21.921C8.65064 26.329 7.3458 31.2042 6.83423 36.1853L6.6007 38.4551L7.5503 39.2638C10.601 41.8616 14.9149 44.0666 17.8175 44.5123C19.498 44.77 19.4756 44.9881 18.0777 41.9526C16.0258 37.4976 13.7737 29.295 12.6021 22.0086L12.2023 19.5221H11.9711C11.8441 19.5221 11.2501 20.6017 10.6514 21.921ZM11.9629 22.3346V22.8309H11.4681H10.9734V22.3346V21.8382H11.4681H11.9629V22.3346ZM4.64807 27.9043L4.75493 28.4559H4.25523C3.98048 28.4559 3.66416 28.307 3.55202 28.125L3.34818 27.7941L3.5629 27.4457L3.7773 27.0973L4.15958 27.225C4.36968 27.2951 4.58935 27.6009 4.64807 27.9043ZM16.546 41.1528L16.922 41.6075L16.7257 42.12C16.6179 42.4019 16.2996 42.7212 16.0185 42.8294L15.5076 43.0263L15.0544 42.6491C14.4963 42.1845 14.4756 41.619 14.9974 41.0956C15.5192 40.5721 16.0829 40.593 16.546 41.1528Z" fill="#BFDBD7"/>
<path d="M23.8145 18.2637V22.0371H23.999C24.5869 22.0371 25.013 21.8525 25.2773 21.4834C25.5417 21.1143 25.7103 20.5697 25.7832 19.8496H26.043V24.7031H25.7832C25.7285 24.1745 25.6123 23.7415 25.4346 23.4043C25.2614 23.0671 25.0586 22.8415 24.8262 22.7275C24.5938 22.609 24.2565 22.5498 23.8145 22.5498V25.1611C23.8145 25.6715 23.835 25.9837 23.876 26.0977C23.9215 26.2116 24.0036 26.305 24.1221 26.3779C24.2406 26.4508 24.432 26.4873 24.6963 26.4873H25.25C26.1159 26.4873 26.8086 26.2868 27.3281 25.8857C27.8522 25.4847 28.2282 24.874 28.4561 24.0537H28.709L28.292 27H20.2803V26.7471H20.5879C20.8568 26.7471 21.0732 26.6992 21.2373 26.6035C21.3558 26.5397 21.4469 26.4303 21.5107 26.2754C21.5609 26.166 21.5859 25.8789 21.5859 25.4141V19.3164C21.5859 18.8971 21.5745 18.6396 21.5518 18.5439C21.5062 18.3844 21.4219 18.2614 21.2988 18.1748C21.1257 18.0472 20.8887 17.9834 20.5879 17.9834H20.2803V17.7305H28.0391V20.4717H27.7793C27.6471 19.8018 27.4603 19.321 27.2188 19.0293C26.9818 18.7376 26.6445 18.5234 26.207 18.3867C25.9518 18.3047 25.4733 18.2637 24.7715 18.2637H23.8145ZM35.9141 17.5186L35.9893 20.6084H35.709C35.5768 19.8337 35.251 19.2116 34.7314 18.7422C34.2165 18.2682 33.6582 18.0312 33.0566 18.0312C32.5918 18.0312 32.2227 18.1566 31.9492 18.4072C31.6803 18.6533 31.5459 18.9382 31.5459 19.2617C31.5459 19.4668 31.5938 19.6491 31.6895 19.8086C31.8216 20.0228 32.0335 20.2347 32.3252 20.4443C32.5394 20.5947 33.0339 20.8613 33.8086 21.2441C34.8932 21.7773 35.6247 22.2809 36.0029 22.7549C36.3766 23.2288 36.5635 23.7712 36.5635 24.3818C36.5635 25.1566 36.2604 25.8242 35.6543 26.3848C35.0527 26.9408 34.2871 27.2188 33.3574 27.2188C33.0658 27.2188 32.79 27.1891 32.5303 27.1299C32.2705 27.0706 31.9447 26.959 31.5527 26.7949C31.334 26.7038 31.154 26.6582 31.0127 26.6582C30.8942 26.6582 30.7689 26.7038 30.6367 26.7949C30.5046 26.8861 30.3975 27.0251 30.3154 27.2119H30.0625V23.7119H30.3154C30.516 24.6963 30.901 25.4482 31.4707 25.9678C32.0449 26.4827 32.6624 26.7402 33.3232 26.7402C33.8337 26.7402 34.2393 26.6012 34.54 26.3232C34.8454 26.0452 34.998 25.7217 34.998 25.3525C34.998 25.1338 34.9388 24.9219 34.8203 24.7168C34.7064 24.5117 34.5309 24.318 34.2939 24.1357C34.057 23.9489 33.6377 23.7074 33.0361 23.4111C32.193 22.9964 31.5869 22.6432 31.2178 22.3516C30.8486 22.0599 30.5638 21.734 30.3633 21.374C30.1673 21.014 30.0693 20.6175 30.0693 20.1846C30.0693 19.4463 30.3405 18.8174 30.8828 18.2979C31.4251 17.7783 32.1087 17.5186 32.9336 17.5186C33.2344 17.5186 33.526 17.555 33.8086 17.6279C34.0228 17.6826 34.2826 17.7852 34.5879 17.9355C34.8978 18.0814 35.1143 18.1543 35.2373 18.1543C35.3558 18.1543 35.4492 18.1178 35.5176 18.0449C35.5859 17.972 35.6497 17.7965 35.709 17.5186H35.9141Z" fill="#153947"/>
</svg>
