<svg width="144" height="143" viewBox="0 0 144 143" fill="none" xmlns="http://www.w3.org/2000/svg">
<path d="M56.4586 115.334V123.476H59.2171V121.382H61.5817C63.552 121.382 64.9032 119.986 64.9032 118.358C64.9032 116.73 63.552 115.334 61.5817 115.334H56.4586ZM62.032 118.358C62.032 118.823 61.6942 119.172 61.255 119.172H59.2171V117.544H61.255C61.6942 117.544 62.032 117.893 62.032 118.358Z" fill="white"/>
<path d="M69.7258 120.968C68.9869 120.968 68.3538 120.314 68.3538 119.551C68.3538 118.787 68.9869 118.133 69.7258 118.133V120.968ZM72.3115 115.189H69.7258V116.062C67.1401 116.28 65.6625 117.806 65.6625 119.551C65.6625 121.295 67.1401 122.821 69.7258 123.039V123.912H72.3115V123.039C74.8971 122.821 76.3746 121.295 76.3746 119.551C76.3746 117.806 74.8971 116.28 72.3115 116.062V115.189ZM72.3115 118.133C73.0502 118.133 73.6834 118.787 73.6834 119.551C73.6834 120.314 73.0502 120.968 72.3115 120.968V118.133Z" fill="white"/>
<path d="M82.4453 120.921C81.7064 120.921 81.0733 120.267 81.0733 119.504C81.0733 118.74 81.7064 118.086 82.4453 118.086V120.921ZM85.031 115.143H82.4453V116.015C79.8596 116.233 78.382 117.759 78.382 119.504C78.382 121.248 79.8596 122.774 82.4453 122.992V123.865H85.031V122.992C87.6165 122.774 89.0941 121.248 89.0941 119.504C89.0941 117.759 87.6165 116.233 85.031 116.015V115.143ZM85.031 118.086C85.7697 118.086 86.4029 118.74 86.4029 119.504C86.4029 120.267 85.7697 120.921 85.031 120.921V118.086Z" fill="white"/>
<path fill-rule="evenodd" clip-rule="evenodd" d="M71.6624 2.84837C71.6516 3.49524 71.63 4.353 71.6192 4.76401L71.5941 5.5038L70.6997 6.46877L69.8051 7.43374H66.7694H63.7375L60.6299 8.92406L57.5225 10.4144V11.3472V12.2836L51.6597 12.305C48.4336 12.3193 43.379 12.3408 40.4332 12.3551L35.0698 12.3765V11.3365V10.3L34.9008 10.2429C34.8039 10.2143 33.3418 9.79254 31.6498 9.31005L28.5745 8.43445H23.2003H17.826L14.6575 9.40298C12.9115 9.93192 11.4314 10.3858 11.3704 10.4037L11.2518 10.443V45.5248C11.2518 68.5981 11.2662 80.9355 11.2877 81.5573C11.5392 88.0476 12.7858 94.2698 15.0419 100.285C15.8178 102.351 16.5651 104.052 17.6176 106.146C23.9223 118.701 34.5165 128.762 47.4278 134.462C57.0411 138.705 67.6101 140.352 78.179 139.255C92.8255 137.736 106.534 130.795 116.589 119.806C124.349 111.325 129.537 100.821 131.487 89.6343C132.001 86.693 132.271 83.9805 132.35 80.8748C132.375 80.0026 132.393 66.9328 132.4 44.9173L132.414 10.3286L131.531 10.0391C131.046 9.88188 129.619 9.4137 128.366 9.00269L126.081 8.25573H120.721H115.357L112.189 9.25645C110.446 9.8104 108.966 10.2786 108.905 10.2965L108.787 10.3358V10.9684C108.787 11.3186 108.776 11.7511 108.765 11.9298L108.74 12.2586H97.6465H86.5496L86.5424 11.2185L86.5316 10.1785L83.1727 8.84187L79.8137 7.50521L76.9217 7.50164H74.0298L73.1425 6.5045L72.2515 5.5038V3.59174V1.67969H71.9678H71.6875L71.6624 2.84837ZM123.936 51.9544C123.925 74.7204 123.915 83.0692 123.882 83.4516C123.861 83.7374 123.825 84.1877 123.803 84.4522C123.192 92.0646 120.872 99.3949 117.003 105.914C113.726 111.439 109.401 116.307 104.278 120.234C97.916 125.113 90.336 128.451 82.4541 129.838C78.9228 130.46 76.0631 130.66 71.3355 130.617C69.0722 130.595 68.4077 130.574 66.9886 130.467C53.1901 129.441 40.4153 122.897 31.4738 112.275C24.9677 104.549 20.9192 95.0917 19.8234 85.0777C19.7407 84.3235 19.694 83.7838 19.5791 82.2184C19.5468 81.7896 19.5324 74.0841 19.5252 51.3111L19.5144 20.9789H71.7307H123.947L123.936 51.9544Z" fill="white"/>
<mask id="mask0_12_17" style="mask-type:alpha" maskUnits="userSpaceOnUse" x="29" y="28" width="83" height="82">
<path d="M70.6626 109.214C93.2043 109.214 111.478 91.0343 111.478 68.6088C111.478 46.1834 93.2043 28.0039 70.6626 28.0039C48.121 28.0039 29.8474 46.1834 29.8474 68.6088C29.8474 91.0343 48.121 109.214 70.6626 109.214Z" fill="#D9D9D9"/>
</mask>
<g mask="url(#mask0_12_17)">
<path d="M56.7978 69.4727L57.168 53.3477C57.168 54.9166 63.3882 73.8067 66.4242 83.0556C70.2006 91.6991 78.4201 104.556 83.7517 108.841C83.2332 109.592 81.3821 110.89 78.124 110.076C74.0512 109.059 68.5717 99.1806 66.4242 95.1857C64.7063 91.9898 60.3275 78.7942 58.3529 72.596C58.0566 74.7752 57.7605 78.4068 57.3161 81.0945C56.7933 84.2565 55.0206 93.3698 51.3922 96.9289C48.816 99.4561 43.6911 100.343 42.9506 99.907C42.3583 99.5584 41.5683 97.97 41.2474 97.2195C43.321 97.2195 47.7638 97.8151 50.1334 94.3866C53.0953 90.1013 54.1983 86.6288 55.0206 83.4913C55.687 80.9491 56.5756 73.1286 56.7978 69.4727Z" fill="white"/>
<path d="M49.8892 103.586C48.0318 104.376 46.1695 102.497 45.4705 101.459C55.7159 99.7581 58.7266 88.0913 58.9513 82.4707C58.9513 86.4964 63.9103 96.102 65.0337 98.1528C66.1571 100.203 71.2967 107.184 74.6042 110.042L69.5863 110.194C65.0328 107.217 60.3992 98.8264 58.6518 95.0033C57.004 99.7884 52.2108 102.599 49.8892 103.586Z" fill="white"/>
<path d="M58.0527 99.6367C57.5734 101.034 53.8087 103.814 51.9861 105.029C55.3043 108.372 62.2062 109.258 65.2424 109.283C63.385 108.432 59.6753 102.498 58.0527 99.6367Z" fill="white"/>
</g>
<mask id="mask1_12_17" style="mask-type:alpha" maskUnits="userSpaceOnUse" x="27" y="25" width="89" height="85">
<path d="M81.1285 73.1719C89.0037 91.5877 92.6787 107.255 88.7152 108.935C84.7518 110.614 74.6512 97.6708 66.7759 79.2552C58.9007 60.8394 55.7295 44.5489 59.6928 42.8691C63.6563 41.1892 73.2532 54.7563 81.1285 73.1719Z" fill="#D9D9D9"/>
<path d="M110.59 57.6806C118.841 76.9756 116.586 96.4082 105.552 101.084C94.5185 105.761 78.8851 93.9101 70.6339 74.6151C62.3826 55.3202 64.6381 35.8876 75.6716 31.2111C86.7051 26.5348 102.339 38.3854 110.59 57.6806Z" fill="#D9D9D9"/>
<path d="M54.759 76.9489C54.4669 89.8928 47.6703 95.9287 42.5953 95.0546C37.52 94.1802 34.1659 84.3214 36.0561 73.4456C37.9464 62.5696 43.593 54.4617 48.6682 55.3361C53.7435 56.2102 57.2221 70.9153 54.759 76.9489Z" fill="#D9D9D9"/>
<path d="M48.8444 79.3969C45.0566 96.5554 50.1937 95.3194 42.875 96.0463C33.8675 96.4826 28.2476 87.0763 30.1379 76.2005C32.0281 65.3245 38.0024 57.2471 43.0776 58.1214C48.1527 58.9956 50.7346 68.5209 48.8444 79.3969Z" fill="#D9D9D9"/>
<path d="M52.078 59.1876C49.6703 73.0417 42.4773 83.3698 36.0124 82.2563C29.5474 81.1426 26.2584 69.0089 28.6663 55.1548C31.0742 41.3007 38.267 30.9726 44.7321 32.0861C51.197 33.1999 54.486 45.3335 52.078 59.1876Z" fill="#D9D9D9"/>
<path d="M67.2029 48.8435C53.0801 48.8563 41.6263 43.5716 41.6204 37.0399C41.6143 30.5079 53.0582 25.2024 67.1812 25.1896C81.304 25.1766 98.2426 25.8547 98.2485 32.3864C124.426 61.174 81.3257 48.8305 67.2029 48.8435Z" fill="#D9D9D9"/>
<path d="M54.9151 73.8C52.192 86.4251 46.0444 95.8174 41.1842 94.7785C36.3238 93.7394 34.5911 82.6627 37.3142 70.0375C40.0372 57.4124 46.1847 48.0201 51.0451 49.059C56.3777 50.1989 57.1517 50.9245 54.9151 73.8Z" fill="#D9D9D9"/>
<path d="M96.5325 66.5519C104.784 85.8469 105.612 103.973 98.3819 107.037C91.1518 110.101 78.6017 96.9439 70.3506 77.6489C62.0993 58.3539 61.2714 40.228 68.5014 37.1637C75.7313 34.0994 88.2814 47.2569 96.5325 66.5519Z" fill="#D9D9D9"/>
</mask>
<g mask="url(#mask1_12_17)">
<mask id="mask2_12_17" style="mask-type:alpha" maskUnits="userSpaceOnUse" x="27" y="24" width="86" height="87">
<path d="M69.5367 110.243C93.0111 110.243 112.041 91.0077 112.041 67.2797C112.041 43.5517 93.0111 24.3164 69.5367 24.3164C46.0624 24.3164 27.0327 43.5517 27.0327 67.2797C27.0327 91.0077 46.0624 110.243 69.5367 110.243Z" fill="#D9D9D9"/>
</mask>
<g mask="url(#mask2_12_17)">
<path d="M67.8684 45.2241C70.6633 50.4893 68.5828 57.0411 63.2215 59.8577C57.8601 62.6742 51.2483 60.6891 48.4534 55.4237C45.6586 50.1586 47.7391 43.6069 53.1004 40.7902C58.4616 37.9737 65.0736 39.9588 67.8684 45.2241ZM49.6916 54.6294C51.8896 58.7701 57.8608 60.3338 62.0769 58.1188C66.2932 55.9038 68.9193 50.0466 66.7214 45.9059C64.54 40.7902 58.8399 38.7 53.5595 41.474C48.2792 44.2482 47.4937 50.4888 49.6916 54.6294Z" fill="white"/>
<path d="M80.5312 47.7688C84.8566 58.072 79.9675 69.9126 69.611 74.2156C59.2545 78.5186 47.3526 73.6546 43.0272 63.3515C38.702 53.0485 43.5912 41.2079 53.9477 36.9049C64.304 32.6017 76.206 37.4657 80.5312 47.7688ZM44.1469 62.1516C48.1391 71.6615 58.6709 75.6995 68.2299 71.7278C77.7888 67.7561 82.7552 57.2787 78.763 47.7688C74.7707 38.2591 63.8413 33.877 54.2823 37.8487C44.7232 41.8204 40.1546 52.6419 44.1469 62.1516Z" fill="white"/>
<path d="M92.6857 50.0368C99.0188 65.6071 91.8653 83.1758 76.708 89.2776C61.5507 95.3795 44.1293 87.7037 37.7961 72.1334C31.463 56.5631 38.6165 38.9944 53.7738 32.8926C68.9311 26.7907 86.3525 34.4665 92.6857 50.0368ZM39.7341 71.1972C45.2586 84.7795 62.0218 91.0009 75.2439 85.6781C88.466 80.3554 95.8555 64.352 90.331 50.7696C84.8065 37.1874 68.5862 28.1795 54.1354 33.997C39.6843 39.8145 34.2096 57.6148 39.7341 71.1972Z" fill="white"/>
<path d="M78.685 105.711H73.3368V107.671H78.685V105.711Z" fill="white"/>
<path d="M107.189 52.1558C115.958 73.7146 106.283 97.9479 85.579 106.283C64.875 114.617 40.9826 103.897 32.2137 82.3385C23.4448 60.7798 33.1202 36.5463 53.8242 28.2117C74.528 19.877 98.4205 30.5972 107.189 52.1558ZM35.6417 80.7909C43.291 99.5971 65.4912 108.569 83.5518 101.299C101.612 94.0281 111.41 72.0452 103.761 53.2391C94.8902 31.4305 74.9088 21.4986 54.5715 29.6857C33.2491 38.2694 27.0371 59.6364 35.6417 80.7909Z" fill="white"/>
</g>
</g>
</svg>
