<svg width="123" height="143" viewBox="0 0 123 143" fill="none" xmlns="http://www.w3.org/2000/svg">
<path fill-rule="evenodd" clip-rule="evenodd" d="M61.4836 1.95849C61.4366 3.03578 61.0261 4.49132 60.5721 5.19244C59.8498 6.30803 59.3708 6.46792 56.7482 6.46792C52.4815 6.46792 47.1975 8.6815 46.9818 10.5587L46.8279 11.901L35.488 12.0402L24.1486 12.1793L23.9855 10.7466C23.8413 9.47524 23.4774 9.21651 20.7556 8.44968C16.512 7.25441 7.97966 7.22751 3.47631 8.39588L0 9.29775L0.191201 49.924C0.377286 89.5397 0.409489 90.6631 1.49072 95.0551C7.24708 118.438 24.123 135.658 46.8279 141.316C53.3568 142.944 62.4708 143.452 69.3621 142.574C96.2774 139.145 117.352 118.861 122.338 91.5857C122.843 88.8241 123 78.6204 123 48.6418V9.31948L119.933 8.45279C115.794 7.28287 107.699 7.23889 102.96 8.36068C99.6504 9.14407 99.264 9.36657 99.1259 10.5665L98.9726 11.901H87.7257H76.4788L76.3203 10.5111C76.1838 9.31845 75.6762 8.934 72.731 7.79461C70.522 6.94033 68.2778 6.46792 66.4302 6.46792C63.9784 6.46792 63.4452 6.28992 62.7699 5.24677C62.3348 4.57514 61.887 3.12012 61.7745 2.01281L61.5695 0L61.4836 1.95849ZM114.43 54.9773C114.237 92.7985 114.308 91.8496 111.047 100.394C105.94 113.777 94.9145 125.131 81.8323 130.48C74.7846 133.361 71.4647 133.944 61.909 133.978C51.3522 134.015 46.8479 133.11 39.0993 129.395C24.371 122.334 15.0964 111.059 10.1237 94.1728C9.09669 90.6853 9.05017 89.2464 8.87635 55.4947L8.69538 20.4386H61.6503H114.606L114.43 54.9773Z" fill="white"/>
<path d="M43.7822 115.368V108.368H44.9822V115.368H43.7822ZM50.3654 115.368V109.408H48.0254V108.368H53.9054V109.408H51.5654V115.368H50.3654ZM56.9423 115.368V108.368H58.1423V115.368H56.9423ZM62.9755 114.328H64.3655C64.7855 114.328 65.1655 114.221 65.5055 114.008C65.8455 113.788 66.1155 113.491 66.3155 113.118C66.5155 112.745 66.6155 112.328 66.6155 111.868C66.6155 111.401 66.5155 110.985 66.3155 110.618C66.1155 110.245 65.8455 109.951 65.5055 109.738C65.1655 109.518 64.7855 109.408 64.3655 109.408H62.9755V114.328ZM61.7755 115.368V108.368H64.3355C64.8422 108.368 65.3089 108.458 65.7355 108.638C66.1622 108.818 66.5322 109.068 66.8455 109.388C67.1655 109.701 67.4122 110.071 67.5855 110.498C67.7589 110.918 67.8455 111.375 67.8455 111.868C67.8455 112.361 67.7589 112.821 67.5855 113.248C67.4122 113.668 67.1655 114.038 66.8455 114.358C66.5322 114.671 66.1622 114.918 65.7355 115.098C65.3089 115.278 64.8422 115.368 64.3355 115.368H61.7755ZM71.1474 115.368V108.368H72.3474V115.368H71.1474ZM78.3206 115.478C77.774 115.478 77.2573 115.385 76.7706 115.198C76.2906 115.005 75.8273 114.721 75.3806 114.348L76.0306 113.468C76.484 113.835 76.8873 114.095 77.2406 114.248C77.6006 114.401 77.984 114.478 78.3906 114.478C78.6973 114.478 78.9673 114.431 79.2006 114.338C79.4406 114.245 79.624 114.115 79.7506 113.948C79.884 113.781 79.9506 113.588 79.9506 113.368C79.9506 113.081 79.854 112.865 79.6606 112.718C79.474 112.565 79.1473 112.448 78.6806 112.368L77.3906 112.148C76.784 112.041 76.3306 111.838 76.0306 111.538C75.7373 111.231 75.5906 110.841 75.5906 110.368C75.5906 109.948 75.6973 109.581 75.9106 109.268C76.124 108.948 76.4206 108.701 76.8006 108.528C77.1873 108.348 77.644 108.258 78.1706 108.258C78.6973 108.258 79.1973 108.335 79.6706 108.488C80.144 108.641 80.5806 108.865 80.9806 109.158L80.3706 110.058C80.0173 109.791 79.654 109.591 79.2806 109.458C78.9073 109.318 78.524 109.248 78.1306 109.248C77.8506 109.248 77.604 109.291 77.3906 109.378C77.184 109.465 77.0206 109.585 76.9006 109.738C76.7873 109.891 76.7306 110.061 76.7306 110.248C76.7306 110.501 76.814 110.698 76.9806 110.838C77.154 110.971 77.4306 111.071 77.8106 111.138L79.0606 111.348C79.7673 111.475 80.2873 111.695 80.6206 112.008C80.9606 112.321 81.1306 112.745 81.1306 113.278C81.1306 113.705 81.0106 114.085 80.7706 114.418C80.5373 114.751 80.2106 115.011 79.7906 115.198C79.3706 115.385 78.8806 115.478 78.3206 115.478Z" fill="white"/>
<mask id="path-3-inside-1_4_379" fill="white">
<path fill-rule="evenodd" clip-rule="evenodd" d="M83.7338 44.8841C83.5853 45.1014 83.5672 45.5375 83.6931 45.8599C83.8182 46.1805 84.7109 47.713 85.6766 49.2657C87.1493 51.6334 87.3729 52.1322 87.0634 52.3602C82.3061 55.8642 79.0554 58.5397 77.6357 60.12C77.022 60.8029 76.8594 60.8779 76.6983 60.5523C76.591 60.3357 76.2756 60.18 75.9975 60.2062C75.5047 60.2526 73.9251 62.036 73.1813 63.3854C72.3806 64.8382 71.4426 65.6042 68.8907 66.8896C63.5259 69.5914 61.4354 69.991 55.1448 69.5167C52.3525 69.306 49.5743 68.5873 46.9319 67.3916C45.6637 66.8175 33.5409 60.4669 31.3842 59.2467C30.2057 58.5801 29.1709 58.0411 29.0847 58.0492C28.9984 58.0574 28.4064 57.777 27.7691 57.4265C26.2518 56.5914 24.1481 55.8483 20.8824 54.9942C18.8578 54.4649 17.6648 54.3176 15.8605 54.3753C13.7489 54.4423 13.3741 54.526 12.3836 55.1515C11.7728 55.537 11.1993 55.9915 11.1089 56.1612C10.833 56.6803 10.996 57.4002 11.8712 59.5249C12.3931 60.7925 13.559 62.7392 14.9539 64.6722C16.1875 66.3819 18.4583 69.7774 20.0001 72.2178C21.5415 74.6579 23.4631 77.4207 24.2698 78.3572C25.0767 79.2937 26.3272 80.7357 27.0486 81.5619L28.3603 83.0638L27.7719 83.5976C26.5244 84.7296 24.7534 88.9414 24.8935 90.4435C24.9547 91.1002 25.8815 91.4152 26.3553 90.9404C26.5258 90.7697 27.1231 90.4181 27.6832 90.1595C28.2432 89.9006 29.1794 89.2471 29.7636 88.7076C31.0241 87.5436 32.8456 86.6718 33.3659 86.9839C33.5617 87.1011 34.7059 87.7466 35.9087 88.4178C37.1115 89.0889 38.1438 89.7312 38.2026 89.8453C38.2616 89.9592 38.4758 90.0368 38.6788 90.0177C38.8821 89.9986 39.0591 90.1002 39.0725 90.2436C39.0859 90.387 39.2546 90.4894 39.4474 90.4713C39.6403 90.4531 40.5323 90.8207 41.43 91.2881C42.3277 91.7556 44.3938 92.462 46.0216 92.8581C47.6493 93.2541 49.5612 93.7457 50.2701 93.9509C50.9792 94.1561 51.6436 94.3026 51.7466 94.2768C52.4341 94.1043 52.8825 94.3358 53.6094 95.2382C55.0426 97.018 57.0116 98.5751 58.6326 99.2111C60.2475 99.8443 61.125 99.9068 61.7397 99.4319C62.033 99.2052 61.9219 98.9343 61.0933 97.8531C60.4555 97.0209 60.0055 96.1036 59.852 95.3215L59.6111 94.0951L62.0545 93.8592C66.1757 93.4617 71.8416 91.3285 74.6066 89.1332C77.0032 87.2305 80.1739 83.7363 84.1622 78.6024C86.2476 75.9181 89.2397 70.3992 91.0061 65.979C91.9425 63.6355 92.9359 61.2688 93.2135 60.7196C93.491 60.1704 93.825 59.2375 93.9554 58.6467C94.0858 58.0559 94.302 57.4046 94.4361 57.1995C94.7117 56.7778 95.5193 56.7627 99.2318 57.1113C100.806 57.2589 102.063 57.2337 102.851 57.0385C104.107 56.7275 111.509 52.2902 111.47 51.8716C111.438 51.5332 111.069 51.3999 110.07 51.3653C109.583 51.3486 108.854 51.2429 108.45 51.1306C108.045 51.0185 107.03 50.9205 106.194 50.9133C105.358 50.906 104.328 50.8757 103.906 50.8458C103.182 50.7946 101.891 50.1901 101.033 49.5006C100.346 48.9476 98.7683 48.5949 97.511 48.7133C96.5881 48.8002 96.1428 48.703 95.732 48.3249C94.9547 47.6091 92.2264 46.6734 89.8736 46.3154C88.7691 46.1472 87.3207 45.7569 86.655 45.4474C84.7437 44.5603 84.0469 44.4257 83.7338 44.8841ZM89.4514 46.9679C91.5031 47.1936 94.9319 48.3581 94.9209 48.8257C94.9177 48.9706 94.7096 49.1248 94.4589 49.1684C94.208 49.2121 93.6755 49.4139 93.2751 49.617C92.6283 49.9454 92.5805 49.9378 92.846 49.5494C93.0979 49.1804 93.08 49.1442 92.7317 49.3169C92.5051 49.4295 92.3304 49.6387 92.3438 49.7821C92.3572 49.9254 92.1859 49.9918 91.9632 49.9294C91.7404 49.8673 91.5688 49.93 91.5818 50.0687C91.5948 50.2076 91.4858 50.3325 91.3398 50.3463C91.1905 50.3603 91.1051 50.0517 91.1448 49.6414C91.2018 49.0531 91.1595 49.0954 90.9272 49.8592C90.7688 50.3803 90.6217 50.7168 90.6004 50.6071C90.5791 50.4973 90.2643 50.645 89.9007 50.9352C89.3681 51.3606 89.2612 51.3846 89.3504 51.0588C89.6705 49.8899 89.7167 49.3922 89.4891 49.5644C89.355 49.6659 89.2064 50.168 89.1591 50.6802C89.1118 51.1925 89.0294 51.6157 88.9757 51.6208C88.9223 51.6258 88.6812 51.7277 88.44 51.8474C88.1641 51.9841 88.0546 51.9573 88.1446 51.7756C88.2236 51.6164 87.724 50.5618 87.0344 49.4318C86.345 48.3018 85.6806 47.0418 85.5579 46.6318L85.3349 45.8863L86.3969 46.3177C86.981 46.5549 88.3556 46.8475 89.4514 46.9679ZM16.0891 55.3359C19.0001 55.5486 23.3158 56.4539 25.6901 57.3501C26.9343 57.8199 32.0892 60.4376 37.1455 63.1674C42.2017 65.8973 47.0133 68.3863 47.8379 68.699C52.9731 70.6456 59.637 71.1799 64.1797 70.0098C66.9235 69.303 69.6807 67.8818 71.7786 66.0933C73.593 64.5466 74.8939 63.0334 74.8587 62.5111C74.826 62.0284 75.4454 61.8652 76.0165 62.2059C77.0855 62.8434 77.6541 62.5024 79.0932 60.3604C80.7598 57.8796 82.3885 56.3343 85.1046 54.6566C86.2301 53.9616 87.4533 53.1248 87.8229 52.797C88.1924 52.4693 89.8741 51.6014 91.5604 50.8685C93.9586 49.8262 95.1039 49.4746 96.8199 49.2541L99.0136 48.972L101.211 50.1368C102.453 50.7946 103.808 51.312 104.326 51.3259C104.83 51.3392 105.983 51.3631 106.889 51.3793C107.794 51.3953 108.597 51.4902 108.672 51.5898C109.154 52.2282 106.732 54.1433 103.664 55.5493C101.993 56.3154 99.5825 56.5802 97.9661 56.1755C97.3202 56.0135 96.4602 55.9125 96.0549 55.9507C95.0801 56.0425 94.0805 56.6352 93.9591 57.1934C93.9054 57.4404 93.6794 57.8935 93.4567 58.2006C93.0389 58.7764 92.673 59.5059 92.0901 60.9259C91.9051 61.3772 91.7003 61.8106 91.6354 61.8891C91.4996 62.0533 91.2245 62.6633 90.2975 64.8541C89.9338 65.7136 89.5575 66.5424 89.4609 66.6962C89.0055 67.4215 87.7336 70.7272 87.5418 71.6846C87.4235 72.2748 87.1047 73.0693 86.8332 73.4499C79.6517 83.5193 76.3423 87.2065 72.2225 89.7285C70.5551 90.7493 68.0951 91.8288 66.0941 92.4177C65.3201 92.6455 63.6915 92.943 62.475 93.0786C61.2585 93.2142 60.0084 93.4465 59.6968 93.5947C59.1909 93.8357 59.1469 94.0405 59.2847 95.5146C59.4111 96.8654 59.5721 97.3139 60.1732 97.9868C60.577 98.439 60.9102 98.8386 60.9136 98.8748C60.917 98.9113 60.5265 98.8495 60.0462 98.7377C58.4787 98.3728 56.5699 97.0283 54.3458 94.7224C53.5783 93.9268 52.8627 93.225 52.7554 93.1628C52.6481 93.1006 52.1713 92.2863 51.6955 91.3534C50.7572 89.5134 49.9802 87.0833 50.1 86.3625C50.1478 86.0748 50.2087 86.1463 50.2676 86.5597C50.3944 87.4524 53.4338 92.3502 54.9951 94.1784C56.7456 96.2281 58.3618 97.6335 58.8959 97.5706C59.1875 97.5363 59.0589 97.3983 58.5235 97.1704C57.7686 96.8494 57.7444 96.8036 58.2047 96.5722C58.6564 96.3448 58.6415 96.3225 58.0467 96.3341C57.5103 96.3446 57.4807 96.3148 57.8852 96.1702C58.3445 96.0063 58.3317 95.9712 57.708 95.6807L57.0361 95.3676L57.6709 95.4783C58.063 95.5468 58.2355 95.4958 58.1215 95.3451C58.0201 95.2111 57.5198 95.0628 57.0093 95.0159C56.472 94.9666 55.9399 94.7172 55.7452 94.4228C55.442 93.9646 55.47 93.9262 56.0339 94.0298C56.5181 94.1186 56.565 94.0911 56.2423 93.9077C55.8721 93.6969 55.8692 93.6656 56.216 93.6259C56.5627 93.5861 56.56 93.5572 56.1916 93.3652C55.9636 93.2465 55.6017 93.1722 55.3874 93.2006C55.1305 93.2342 55.1824 93.3111 55.54 93.4265C55.9703 93.5654 55.9932 93.6137 55.6513 93.6606C55.115 93.734 52.6842 90.6497 52.8399 90.0933C52.9009 89.8761 52.8594 89.7672 52.7482 89.8513C52.5564 89.9964 51.9742 89.1663 50.9865 87.3401C50.557 86.5456 50.5619 86.5217 51.1453 86.5636C51.4764 86.5874 51.5785 86.5685 51.3725 86.5222C51.0518 86.4498 51.0468 86.3964 51.3379 86.152C51.5793 85.9494 51.4933 85.9302 51.0412 86.0861L50.4044 86.3057L51.0193 85.8517C51.3575 85.6021 51.4803 85.4081 51.2921 85.4205C51.104 85.4333 51.0158 85.3111 51.0961 85.1492C51.1769 84.9862 50.9847 84.8126 50.6659 84.7605C50.3223 84.7045 50.1314 84.5187 50.1925 84.3002C50.2491 84.0984 50.1688 83.9737 50.014 84.0227C49.619 84.148 49.0785 82.6671 49.424 82.4058C49.7985 82.1228 49.382 81.6466 48.8073 81.7007C48.5466 81.7252 48.2069 81.9305 48.0525 82.1568C47.8309 82.4813 47.8872 82.9063 48.3201 84.1696C48.9019 85.8681 49.1621 86.7527 49.5086 88.209C49.7832 89.3623 50.6096 91.1517 51.3234 92.1382L51.8817 92.9095L50.0667 92.7375C49.0685 92.6429 48.0089 92.4637 47.7125 92.3391C47.4159 92.2145 46.9659 92.2019 46.7124 92.3112C46.3197 92.4808 46.3053 92.4592 46.6141 92.1653C46.9159 91.8779 46.8805 91.8512 46.4016 92.0044C46.0853 92.1055 45.8767 92.0875 45.9377 91.9642C45.9988 91.8412 45.0984 91.3837 43.937 90.9482C41.1286 89.8946 39.0415 88.8549 39.4094 88.6924C39.5733 88.6202 39.6297 88.4584 39.5349 88.3327C39.3431 88.0788 37.528 87.408 37.0664 87.4204C36.5998 87.433 35.337 86.8477 35.3146 86.6084C35.2804 86.2432 35.8748 86.3124 36.4621 86.742C36.9007 87.0628 36.9857 87.0688 36.8605 86.7703C36.7731 86.5615 36.3733 86.2673 35.9722 86.1163C35.571 85.9655 35.2325 85.731 35.2199 85.5954C35.2072 85.4599 35.0167 85.366 34.7968 85.3867C34.4645 85.418 34.4581 85.5188 34.7591 85.982L35.1217 86.5395L34.45 86.09C32.9947 85.1165 29.2503 81.8347 28.0213 80.456C26.0832 78.2814 24.0089 75.4857 23.8126 74.7836C23.5815 73.9567 20.6147 69.4247 20.1663 69.2132C19.9722 69.1218 19.2248 68.0372 18.5057 66.8031C17.7864 65.5692 16.9968 64.4354 16.7507 64.2837C16.5046 64.1322 16.2504 63.742 16.1855 63.4165C15.9889 62.4294 15.9716 62.4024 15.6781 62.6238C15.4952 62.7623 15.4552 62.7166 15.5648 62.4948C15.671 62.2808 15.3584 61.8248 14.7346 61.2834C13.5125 60.223 13.0715 59.5566 12.9578 58.599C12.8839 57.9772 12.8477 57.9472 12.7177 58.4012C12.568 58.9236 12.5564 58.9234 12.2101 58.4004C11.7313 57.677 11.7029 57.0699 12.1374 56.8544C12.3351 56.7566 12.5868 56.3124 12.6966 55.8673C12.8689 55.1687 12.9963 55.0689 13.6322 55.1344C14.037 55.176 15.1427 55.2667 16.0891 55.3359ZM13.7573 56.0486C13.9666 56.1551 14.0752 56.3684 13.9989 56.5229C13.8378 56.8475 17.1814 58.1153 18.0152 58.0455C18.592 57.9972 20.2124 58.8684 19.6616 58.9308C19.4912 58.95 19.2683 58.8552 19.1663 58.7202C19.0642 58.5852 18.8033 58.4914 18.5868 58.5118C18.2531 58.5432 18.2526 58.5988 18.5823 58.872C18.9605 59.1853 19.8075 59.4535 20.2267 59.3925C20.3398 59.376 20.8257 59.635 21.3064 59.9679C21.9952 60.4453 22.2253 60.496 22.3937 60.208C22.5542 59.9333 22.5834 59.9532 22.5105 60.2872C22.4565 60.5342 22.6563 60.9135 22.9597 61.1403C23.5578 61.5876 23.6789 61.2432 23.1015 60.7369C22.9047 60.5643 23.2079 60.6601 23.7756 60.9496C24.343 61.2393 24.822 61.616 24.8398 61.7869C24.8782 62.1575 25.997 62.8392 26.2512 62.647C26.3489 62.5731 26.6056 62.6893 26.8219 62.9051C27.1702 63.2531 27.1467 63.2829 26.6132 63.1672C26.2464 63.0877 26.0217 63.1454 26.0376 63.3151C26.0519 63.4681 26.2452 63.5761 26.4676 63.5552C26.6896 63.5343 27.3324 63.8879 27.8959 64.3411C28.4594 64.7943 29.0409 65.1537 29.1882 65.1398C29.3352 65.126 29.0286 64.7998 28.5067 64.4151C27.2656 63.5 27.7498 63.4623 29.088 64.3698C29.6568 64.7551 30.0789 65.224 30.0263 65.4117C29.9739 65.5991 30.2536 66.0033 30.6482 66.3098C31.5243 66.9908 31.5664 66.6336 30.7003 65.8689C30.3576 65.5667 30.1858 65.3128 30.319 65.3053C30.4518 65.2977 31.6248 66.1251 32.9256 67.1436C35.3591 69.0496 35.5736 69.7149 33.1982 67.9895C32.4662 67.4577 31.7276 67.0918 31.5567 67.1765C31.3861 67.2612 30.937 67.1118 30.5591 66.8445C27.7483 64.8573 24.9015 63.051 22.1202 61.4897C20.6323 60.6544 19.4206 60.0343 19.4278 60.1117C19.4351 60.1891 20.2205 60.6795 21.173 61.2015C22.1258 61.7235 23.534 62.5507 24.3028 63.0398C27.0254 64.7718 27.6208 65.1588 27.9217 65.3934C28.089 65.5239 28.9598 66.1417 29.8564 66.766C30.7532 67.3903 31.373 67.9872 31.234 68.0924C30.9008 68.3441 32.0059 70.0291 33.0873 70.9181C33.8561 71.55 34.1567 72.0353 33.7999 72.0689C33.7155 72.0768 33.4015 71.8402 33.1024 71.5429C32.7007 71.1439 32.5658 71.1071 32.5868 71.4021C32.6169 71.8226 34.3787 73.3292 34.7947 73.2901C34.9281 73.2775 35.2853 73.51 35.5886 73.807L36.14 74.3468L35.5071 73.9054C34.723 73.3586 34.7076 73.5431 35.4762 74.2778C35.8169 74.6034 36.0404 74.6872 36.0212 74.4824C36.0033 74.2913 36.4507 74.5821 37.0151 75.129C37.5797 75.6757 38.4331 76.3498 38.9117 76.6272C39.9317 77.2183 39.6052 76.6734 38.4668 75.8846C37.2652 75.0518 31.8135 68.8493 31.7576 68.2511C31.7499 68.1687 31.9516 68.1124 32.206 68.1255C32.4604 68.1386 32.689 68.3138 32.7143 68.5144C32.7397 68.7153 32.8991 68.837 33.0682 68.7848C33.2377 68.7328 33.356 68.7917 33.3316 68.9157C33.2839 69.1566 36.7363 72.0553 37.0374 72.027C37.1359 72.0177 36.608 71.4983 35.8646 70.8728C35.1212 70.2472 34.5832 69.6504 34.6692 69.5469C34.8185 69.3666 36.1336 70.0075 36.9322 70.6494C37.1398 70.8163 37.5448 71.0517 37.8319 71.1722C38.1245 71.2951 38.366 71.6479 38.3809 71.9736C38.3956 72.2936 38.6984 73.1789 39.0542 73.9409C39.4096 74.7029 39.6743 75.4472 39.6424 75.5948C39.5362 76.0845 40.9814 78.094 41.589 78.3019C41.9176 78.4143 42.2702 78.7037 42.3725 78.9453C42.5604 79.3891 44.4515 80.796 44.8143 80.7618C44.9224 80.7516 44.5605 80.3589 44.0101 79.889C42.5532 78.6455 41.6676 77.281 40.6788 74.7567C40.1973 73.5269 39.5362 72.1672 39.2097 71.7354C37.986 70.115 29.1361 63.3312 25.8686 61.5086C25.3347 61.2109 24.8322 60.8987 24.7521 60.8156C24.4786 60.5307 20.4561 58.4189 18.8074 57.6945C15.9707 56.4479 14.173 55.7783 13.7678 55.8172C13.4447 55.8482 13.4429 55.8883 13.7573 56.0486ZM89.8837 49.8362C89.816 50.0774 89.781 50.4113 89.8055 50.5781C89.8303 50.7446 89.9367 50.5894 90.042 50.2331C90.1472 49.8766 90.1823 49.543 90.1199 49.4913C90.0574 49.4396 89.951 49.5948 89.8837 49.8362ZM88.3983 50.7463C88.3372 50.9643 88.4059 51.2016 88.5509 51.2734C88.6959 51.3452 88.8092 51.348 88.8029 51.2797C88.7965 51.2111 88.845 50.963 88.9109 50.728C88.9767 50.4931 88.9132 50.3118 88.7699 50.3253C88.6265 50.3388 88.4592 50.5284 88.3983 50.7463ZM95.867 50.463C95.5437 50.6294 95.1803 50.7162 95.0592 50.6564C94.9382 50.5962 94.659 50.8887 94.4387 51.306C94.2185 51.723 93.9249 52.2019 93.7865 52.3701C93.6479 52.5383 93.2816 53.134 92.9725 53.694C92.6633 54.2541 92.3226 54.7214 92.2151 54.7326C92.1076 54.7438 92.0363 54.9288 92.0564 55.1438C92.0765 55.3589 92.1817 55.5362 92.2904 55.5378C92.3991 55.5394 92.8444 55.5577 93.2802 55.5785C94.0392 55.6143 94.0492 55.601 93.5167 55.2625C93.179 55.0479 92.9352 55.019 92.8956 55.1889C92.8598 55.3427 92.7109 55.4093 92.5648 55.3371C92.4187 55.2646 92.572 54.9002 92.906 54.5268C93.2398 54.1538 93.5023 53.7367 93.4896 53.6001C93.4768 53.4635 93.9692 53.3504 94.5835 53.3488C95.4727 53.3463 95.5633 53.3112 95.0275 53.1766L94.3544 53.0075L95.0007 52.8901C95.4787 52.803 95.5221 52.7521 95.167 52.6948C94.903 52.6523 94.5301 52.7748 94.338 52.9672C94.0594 53.2464 93.9816 53.2382 93.9525 52.9272C93.9288 52.6744 94.2978 52.4306 95.0049 52.2322C95.7543 52.022 95.9277 51.9024 95.5606 51.848L95.0273 51.7689L95.5277 51.4966L96.0281 51.2242L95.5142 51.3517C95.2315 51.4217 95.0428 51.6162 95.0944 51.7833C95.1461 51.9507 95.0085 52.1046 94.7885 52.1253C94.0762 52.1924 94.7529 51.137 95.5951 50.867C96.0158 50.7322 96.417 50.5075 96.4865 50.3674C96.634 50.0694 96.6316 50.0699 95.867 50.463ZM16.8528 62.1595C17.4519 63.0072 19.667 66.4374 21.775 69.7825C24.9904 74.8839 27.6018 78.6404 28.2949 79.1616C28.3806 79.2259 29.1035 79.9862 29.9014 80.8512C30.6995 81.7162 31.5114 82.5028 31.7058 82.5994C31.8999 82.696 32.6131 83.1614 33.2906 83.6336C35.1956 84.9616 35.4924 85.1503 36.9702 85.9731C37.7294 86.3957 38.9786 87.1304 39.746 87.6051C40.6051 88.137 42.0706 88.6801 43.5592 89.0185C46.3057 89.6433 48.8051 89.9047 49.0711 89.5951C49.17 89.48 48.6202 89.2946 47.8494 89.1831C47.0784 89.0716 45.845 88.8606 45.1082 88.7141C43.5962 88.4136 38.187 86.3968 38.1615 86.1242C38.1523 86.0264 38.7064 85.9424 39.3929 85.9375C40.3299 85.9305 40.561 85.8604 40.3203 85.6563C40.1438 85.5068 39.5724 85.3907 39.0501 85.3983C37.7533 85.4173 34.4682 83.667 35.019 83.2507C35.1607 83.1435 34.7454 82.6671 34.0725 82.1649C33.3913 81.6565 32.8423 81.4039 32.8015 81.58C32.7619 81.7505 33.0885 82.1528 33.5274 82.4739L34.3253 83.0578L33.4512 82.8545C32.396 82.6091 29.77 80.1993 28.5136 78.3232C28.0223 77.59 27.4968 77.0312 27.3456 77.0815C27.1941 77.132 27.0527 76.9833 27.031 76.7513C27.0093 76.5193 26.621 75.9797 26.1682 75.5521C25.7155 75.1246 23.9529 72.553 22.2514 69.8378C20.5498 67.1224 18.8508 64.4565 18.4758 63.9132C17.5491 62.5707 15.99 60.5971 15.8654 60.6089C15.8094 60.6141 16.2538 61.3121 16.8528 62.1595ZM93.6497 54.1034C93.5846 54.2342 93.7365 54.2532 93.987 54.1452C94.3439 53.9917 94.3682 54.0131 94.0996 54.2448C93.9111 54.4075 93.5937 54.495 93.3948 54.4393C93.1955 54.3839 93.0449 54.468 93.0597 54.6268C93.103 55.0897 94.0893 54.8654 94.5722 54.2824C95.0052 53.7596 95.0014 53.7489 94.3915 53.8063C94.0482 53.8386 93.7145 53.9724 93.6497 54.1034ZM18.5186 61.8409C18.8511 62.1906 19.1385 62.6406 19.1572 62.8408C19.1759 63.041 19.3735 63.2559 19.5962 63.3181C19.8189 63.3805 20.0201 63.634 20.0433 63.8816C20.0846 64.3232 22.2702 67.0814 22.7918 67.3502C23.1611 67.5405 23.3849 69.1042 23.0478 69.1406C22.8679 69.1602 22.8691 69.2285 23.0512 69.3375C23.2044 69.4294 23.3552 69.6503 23.3863 69.828C23.5136 70.5571 23.5838 70.6612 23.8858 70.5699C24.0804 70.5111 24.2517 70.8108 24.3314 71.3479C24.4576 72.2001 24.9395 72.88 25.1968 72.5692C25.2676 72.4836 25.1713 72.0998 24.9826 71.7157C24.7939 71.3317 24.6794 70.9696 24.728 70.9111C24.7767 70.8523 25.3553 71.4356 26.0137 72.2069C26.6722 72.9786 27.5095 73.8299 27.8744 74.099C28.2393 74.3681 29.1353 75.2846 29.8656 76.1357C31.274 77.7771 36.1741 81.9912 37.9662 83.1023C39.9571 84.3365 41.4191 84.9822 43.3501 85.4804C45.4219 86.0146 48.1596 86.1991 48.1225 85.8018C48.1101 85.6694 47.7262 85.5675 47.2694 85.5755C46.3187 85.5925 42.7576 84.771 41.536 84.253C39.8506 83.5381 38.0249 82.3833 38.2778 82.192C38.421 82.0838 37.9631 81.7919 37.2601 81.5433C35.937 81.0757 33.3208 79.3447 33.2802 78.9105C33.2674 78.7744 33.412 78.7376 33.6012 78.8284C34.0135 79.0263 33.7038 78.6807 31.29 76.2498C30.3052 75.2578 29.1537 74.1828 28.7314 73.861C28.0285 73.3258 27.1676 72.3071 24.202 68.5021C23.6245 67.7609 22.3262 66.1081 21.3171 64.8291C20.3081 63.55 19.2529 62.1996 18.9721 61.8284C18.6913 61.4573 18.3384 61.1649 18.1878 61.1791C18.0374 61.1933 18.1865 61.4911 18.5186 61.8409ZM17.3757 66.1206C18.767 68.3038 20.3689 70.7861 20.9351 71.6367C23.8144 75.9618 24.173 76.515 24.0235 76.4013C23.7849 76.2197 22.3468 74.4569 22.3351 74.3318C22.3295 74.2726 21.8976 73.6383 21.3752 72.9217C20.2258 71.3445 15.0596 63.2695 14.6063 62.3413C13.884 60.8617 14.9593 62.3291 17.3757 66.1206ZM23.7563 61.4127C23.7697 61.556 23.9047 61.7348 24.0564 61.8099C24.208 61.885 24.3211 61.8292 24.3077 61.6858C24.2943 61.5424 24.1592 61.3637 24.0076 61.2885C23.856 61.2134 23.7429 61.2693 23.7563 61.4127ZM31.2053 60.9387C31.3619 61.0673 32.4283 61.7166 33.5751 62.3815C34.7218 63.0464 35.725 63.6517 35.8043 63.7268C35.8836 63.8022 36.5785 64.2738 37.3484 64.7748C38.1183 65.2759 38.8134 65.7511 38.8932 65.8309C39.3146 66.2522 45.4183 69.8814 46.4446 70.321C49.6744 71.7043 51.4296 72.2601 53.5164 72.5615C55.7408 72.8827 59.6286 72.7296 59.8355 72.3128C59.8919 72.1991 59.0933 72.2038 58.0609 72.3237C55.6974 72.5978 54.4273 72.4807 51.4783 71.7159C48.2306 70.8739 43.9925 68.762 39.5153 65.7552C39.0359 65.4333 38.4018 65.0151 38.1062 64.826C37.8106 64.6369 37.0054 64.1163 36.3171 63.6688C35.6287 63.2214 34.432 62.492 33.6577 62.0476C32.1808 61.2 30.7186 60.5391 31.2053 60.9387ZM90.7784 57.3133C89.9439 58.4769 89.9322 58.7802 90.758 57.8485C91.2553 57.287 91.9139 56.8619 92.4688 56.7433C93.3641 56.552 93.363 56.5511 92.3064 56.6087C91.49 56.6533 91.1338 56.8175 90.7784 57.3133ZM22.6641 63.7918C22.6713 63.869 23.5071 65.2153 24.5214 66.7837C26.3107 69.5508 28.3379 72.0712 29.0665 72.4344C29.2626 72.5324 29.9364 73.1558 30.5635 73.82C31.1907 74.4841 32.2215 75.4815 32.854 76.0368C33.4864 76.5921 33.8573 77.06 33.6779 77.0769C33.3665 77.1062 31.1405 75.2412 30.2835 74.2327C30.0592 73.969 29.758 73.7643 29.6139 73.7779C29.2307 73.814 31.058 75.8351 32.4484 76.9128C33.107 77.4236 33.7054 77.7696 33.7779 77.682C33.8507 77.5942 34.2065 77.775 34.5687 78.0836C35.8001 79.1331 37.9911 80.3684 38.3261 80.2022C38.5128 80.1097 38.8048 80.2892 38.9883 80.609C39.3976 81.3226 41.0172 82.0335 41.5886 81.7503C41.8255 81.6328 42.2176 81.6898 42.4698 81.8783C43.0795 82.3342 44.4135 82.6903 44.3854 82.3898C44.3732 82.2589 43.413 81.7979 42.2519 81.3652C41.0909 80.9323 40.0759 80.5177 39.9966 80.4436C39.9174 80.3693 39.2279 79.9551 38.4645 79.5234C37.7011 79.0914 36.7671 78.5285 36.3887 78.2725C35.0703 77.3794 32.3753 75.0458 30.8185 73.4486C28.8334 71.4118 25.6471 67.5749 25.6098 67.1764C25.5942 67.0095 25.2155 66.4461 24.7681 65.9242C24.321 65.4022 23.7591 64.668 23.5195 64.293C23.2801 63.9179 22.9867 63.62 22.8676 63.6312C22.7485 63.6424 22.6569 63.7147 22.6641 63.7918ZM26.2246 65.3158C26.2777 65.8833 30.9347 71.48 32.4211 72.7628C33.8251 73.9741 34.4771 74.6343 34.2844 74.6491C33.9312 74.6757 33.5739 74.3983 32.3856 73.1737C31.7677 72.5371 31.2105 72.0781 31.1477 72.1543C31.0021 72.3299 32.6102 74.2597 33.3774 74.8299C33.6964 75.0671 34.0749 75.1724 34.2186 75.0639C34.3622 74.9555 34.4885 74.9614 34.4996 75.0774C34.5441 75.5479 36.5664 77.1581 37.0991 77.1473C37.4146 77.1408 37.7187 77.331 37.7771 77.5711C37.8356 77.8107 38.1786 78.2091 38.5396 78.4565C39.292 78.9726 39.779 79.0354 39.3931 78.5665C39.251 78.3935 39.4569 78.5371 39.851 78.8858C40.4595 79.4244 42.1247 80.2261 42.5511 80.186C42.7126 80.1708 41.8699 79.5709 40.4542 78.693C38.4891 77.4746 31.9812 71.8683 30.8014 70.3771C27.4003 66.0787 26.1686 64.7165 26.2246 65.3158ZM85.9892 63.7461C85.6512 64.2064 85.4591 64.5747 85.5623 64.565C85.6655 64.5553 86.0303 64.1659 86.3732 63.6997C86.7164 63.2335 86.9083 62.8651 86.8004 62.8808C86.6922 62.8965 86.3271 63.2859 85.9892 63.7461ZM85.2331 65.122C85.1579 65.2737 85.2137 65.3868 85.357 65.3733C85.5004 65.3598 85.6791 65.2246 85.7544 65.0729C85.8296 64.9212 85.7738 64.8081 85.6304 64.8216C85.4871 64.8351 85.3083 64.9702 85.2331 65.122ZM85.1751 65.9082C85.1881 66.0469 85.3684 66.0764 85.5757 65.9738C85.783 65.8709 85.9483 65.7407 85.943 65.6844C85.9377 65.6281 85.7575 65.5985 85.5425 65.6188C85.3275 65.639 85.1622 65.7692 85.1751 65.9082ZM84.4217 67.0392C83.9808 67.664 84.319 67.7797 84.8193 67.1756C84.9935 66.9654 85.3034 66.709 85.508 66.6056C85.7734 66.4714 85.7278 66.4257 85.3496 66.4466C85.0579 66.4628 84.6404 66.7293 84.4217 67.0392ZM38.1289 73.6002C38.6555 74.3308 39.1264 74.8845 39.175 74.831C39.2914 74.7033 37.7455 72.5567 37.4216 72.3963C37.2837 72.328 37.602 72.8698 38.1289 73.6002ZM83.7337 68.067C83.9198 68.1226 84.213 68.095 84.3853 68.0056C84.5579 67.9165 84.4056 67.8712 84.0472 67.9049C83.6889 67.9387 83.5479 68.0116 83.7337 68.067ZM83.2043 68.7317C83.1291 68.8834 83.1627 69.0004 83.2788 68.9916C83.395 68.983 83.3248 69.1061 83.1227 69.2653C82.9207 69.4245 82.876 69.5452 83.0237 69.5337C83.1712 69.5219 83.4708 69.2588 83.6895 68.949C84.0082 68.4971 84.0132 68.3925 83.714 68.4207C83.5088 68.44 83.2795 68.58 83.2043 68.7317ZM26.8389 74.6967C26.859 74.9117 26.9797 75.0779 27.1071 75.0659C27.2346 75.0539 27.3404 75.2382 27.3426 75.4755C27.3449 75.713 27.4983 75.9452 27.6838 75.9917C28.1084 76.0979 27.917 74.9959 27.4377 74.5745C26.9896 74.1804 26.7943 74.2201 26.8389 74.6967ZM81.9987 69.8971C81.9234 70.0488 81.9792 70.1619 82.1226 70.1484C82.2659 70.1349 82.4447 69.9997 82.5199 69.848C82.5951 69.6963 82.5393 69.5832 82.396 69.5967C82.2526 69.6102 82.0739 69.7454 81.9987 69.8971ZM81.5505 70.7282C81.6525 70.8633 81.553 70.991 81.3296 71.012C81.1063 71.033 80.9398 71.2262 80.9599 71.4413C80.98 71.6563 80.8398 71.847 80.6485 71.8651C80.4572 71.8831 80.025 72.2493 79.6881 72.6787C79.1062 73.4204 78.2757 74.2144 76.3897 75.8331C75.9285 76.2289 75.686 76.54 75.8504 76.5245C76.3253 76.4798 77.4225 75.7879 77.4 75.5473C77.3887 75.4271 77.5554 75.312 77.7704 75.2918C77.9855 75.2715 78.1504 75.1377 78.137 74.9943C78.1236 74.8509 78.2018 74.7391 78.311 74.746C78.4202 74.753 78.7418 74.7133 79.0258 74.6579C79.3099 74.6027 79.397 74.5138 79.2192 74.46C79.0417 74.4065 78.9451 74.1884 79.0048 73.9751C79.0703 73.7419 79.4718 73.5537 80.0131 73.5027C80.5563 73.4516 80.8381 73.3191 80.7244 73.1686C80.6206 73.0314 80.433 72.9967 80.3073 73.0919C80.1816 73.1868 80.0628 73.0944 80.0433 72.8864C80.0239 72.6786 80.2943 72.407 80.6442 72.2833C80.9942 72.1597 81.2643 71.8847 81.2444 71.6725C81.2246 71.46 81.3842 71.2698 81.5993 71.2496C81.8143 71.2293 81.9801 71.1041 81.9676 70.9711C81.9552 70.8384 82.1454 70.6567 82.39 70.5674C82.6577 70.4699 82.5422 70.4208 82.1 70.444C81.6704 70.4666 81.4422 70.5848 81.5505 70.7282ZM43.3732 77.1885C43.3852 77.317 43.8548 77.7554 44.4169 78.1626C45.1208 78.6728 45.5145 78.8111 45.6829 78.6078C45.8516 78.4041 45.812 78.1972 45.5562 77.9417C45.3521 77.738 45.0378 77.5851 44.858 77.602C44.6781 77.6189 44.3685 77.4706 44.1698 77.2723C43.7693 76.8724 43.3394 76.8272 43.3732 77.1885ZM30.108 78.7279C30.1214 78.8713 30.2567 78.9769 30.4084 78.9626C30.5601 78.9483 30.601 78.8261 30.4989 78.6911C30.3969 78.5561 30.2619 78.4504 30.1986 78.4564C30.1352 78.4624 30.0946 78.5845 30.108 78.7279ZM30.5079 79.6698C30.5785 79.9128 30.8984 80.2127 31.2186 80.3364C31.5388 80.46 32.0071 80.7021 32.2591 80.8743C32.5107 81.0462 32.7681 81.1251 32.831 81.0494C32.9983 80.8473 31.9143 79.8727 31.5593 79.9061C31.3925 79.9218 31.172 79.7651 31.0696 79.5578C30.8112 79.0362 30.35 79.128 30.5079 79.6698ZM45.9305 79.2311C45.9809 79.7699 47.0876 80.954 47.3005 80.697C47.364 80.6203 47.0706 80.1394 46.6484 79.6282C46.0462 78.8989 45.8915 78.8132 45.9305 79.2311ZM75.0557 77.1137C74.9839 77.2588 74.7268 77.3222 74.4844 77.2543C74.1899 77.1721 74.1158 77.2264 74.2607 77.4184C74.3802 77.5765 74.7709 77.678 75.1293 77.6443C75.4876 77.6105 75.7034 77.4803 75.6086 77.3548C75.5141 77.2296 75.6974 77.0509 76.0161 76.958C76.5285 76.8085 76.5141 76.7925 75.8911 76.8194C75.5036 76.8361 75.1276 76.9686 75.0557 77.1137ZM39.7588 80.7119C39.7722 80.8553 39.7316 80.9774 39.6682 80.9834C39.6049 80.9894 39.4699 80.8837 39.3679 80.7487C39.2658 80.6137 39.3067 80.4915 39.4584 80.4772C39.6101 80.4629 39.7454 80.5685 39.7588 80.7119ZM41.2694 81.596C41.2073 81.6711 40.9342 81.54 40.6625 81.305C40.1907 80.8966 40.1956 80.8903 40.7756 81.1684C41.1093 81.3287 41.3316 81.521 41.2694 81.596ZM72.6006 78.9088C72.1703 79.1258 72.2162 79.1811 72.9814 79.3699C73.6555 79.536 73.8049 79.517 73.6447 79.2856C73.4937 79.0679 73.5411 79.0664 73.819 79.2798C74.0289 79.4409 74.3813 79.5461 74.6026 79.5139C74.9103 79.4692 74.9182 79.43 74.6362 79.3474C74.3251 79.2563 74.3197 79.1992 74.6019 78.9809C74.8493 78.7896 74.7893 78.7353 74.3707 78.7716C74.0596 78.7987 73.6442 78.785 73.4477 78.7414C73.2508 78.6976 72.8698 78.773 72.6006 78.9088ZM38.8591 82.3371C38.891 82.6784 39.867 83.115 40.3027 82.983C40.4771 82.9303 40.9076 83.0128 41.2598 83.1664C41.6118 83.3199 41.9634 83.3689 42.0411 83.275C42.2767 82.9907 41.6296 82.6109 40.6789 82.4761C40.1848 82.4058 39.5673 82.2828 39.3066 82.2029C39.0286 82.1176 38.8437 82.1731 38.8591 82.3371ZM32.1058 85.1678C33.0498 85.6861 34.0771 86.3084 34.3889 86.5501C34.7008 86.7922 35.2965 87.1518 35.7126 87.3499C36.1286 87.5476 36.4778 87.8014 36.4884 87.914C36.4989 88.0264 36.6834 88.1018 36.8984 88.0816C37.1134 88.0613 37.3003 88.1621 37.3137 88.3054C37.3272 88.4488 37.514 88.5495 37.7291 88.5293C37.9441 88.509 38.131 88.6098 38.1444 88.7532C38.1578 88.8965 38.2837 89.003 38.4244 88.9898C38.5649 88.9765 39.3347 89.3017 40.1353 89.7125C41.7371 90.5347 44.4737 91.5758 44.9215 91.5337C45.0784 91.5189 45.2993 91.6291 45.4121 91.7786C45.5528 91.9647 45.4169 92.0098 44.9809 91.9212C44.2958 91.7822 40.3341 90.3178 39.4396 89.8732C37.3966 88.857 34.6186 87.308 34.0256 86.8542C33.6379 86.5575 33.1826 86.3277 33.0137 86.3436C32.5328 86.3888 30.3764 87.6104 29.4323 88.3723C28.4267 89.1838 26.0182 90.3297 25.7628 90.1179C25.5246 89.9204 25.9502 88.089 26.435 87.226C26.6494 86.8442 26.8809 86.2899 26.9495 85.9942C27.0181 85.6984 27.6455 84.974 28.3442 84.3844C29.5551 83.3621 29.6321 83.3335 30.002 83.7689C30.2153 84.0197 31.162 84.6492 32.1058 85.1678ZM34.2443 83.5979C34.2577 83.7413 34.2171 83.8635 34.1538 83.8694C34.0904 83.8754 33.9554 83.7698 33.8534 83.6347C33.7514 83.4997 33.7923 83.3775 33.9439 83.3632C34.0956 83.349 34.2309 83.4546 34.2443 83.5979ZM70.7665 80.1373C70.2554 80.3211 70.3553 80.3856 71.4336 80.5681C72.1311 80.686 72.7374 80.7396 72.7809 80.6871C72.8243 80.6344 72.5241 80.4407 72.1135 80.2561C71.6837 80.063 71.1124 80.0127 70.7665 80.1373ZM66.9649 80.728C67.0632 80.8095 67.6488 80.959 68.2656 81.0602C68.8827 81.1615 69.689 81.3046 70.0574 81.3783C70.5638 81.4792 70.6256 81.4542 70.3107 81.275C69.9405 81.0642 69.9376 81.0327 70.284 80.9893C70.6304 80.9459 70.628 80.9201 70.2622 80.7563C70.0358 80.6548 69.5498 80.5188 69.1822 80.454C68.6719 80.3643 68.6125 80.3925 68.9305 80.5734C69.437 80.8616 69.1478 80.8985 67.8058 80.7175C67.2449 80.6417 66.8665 80.6463 66.9649 80.728ZM27.9412 85.723C26.5762 87.3892 25.8361 88.9923 26.2667 89.3491C26.466 89.5141 26.7677 89.4928 27.1723 89.2851L27.7795 88.9736L27.1256 89.0102C26.508 89.0447 26.4966 89.0239 26.9197 88.6359C27.1662 88.41 27.2806 88.1097 27.1741 87.9687C26.9416 87.6609 28.3684 85.6833 28.7036 85.8495C28.8327 85.9134 28.8518 85.7606 28.7458 85.51C28.5614 85.0737 28.5716 85.0725 28.978 85.4821C29.3571 85.864 29.4157 85.8637 29.5233 85.4799C29.5909 85.2382 29.7838 85.1193 29.9638 85.2083C30.1645 85.3077 30.2032 85.2597 30.0669 85.0795C29.9475 84.9214 29.7282 84.8842 29.5796 84.9965C29.4058 85.1281 29.3542 85.0406 29.4352 84.7513C29.6599 83.9491 29.0916 84.3185 27.9412 85.723ZM60.6958 81.7835C61.1099 81.9605 61.4549 82.1691 61.4622 82.2476C61.4696 82.3263 61.088 82.3596 60.6147 82.3221L59.7538 82.2541L60.5633 82.4761C61.0086 82.5982 61.6192 82.835 61.9201 83.0026C62.2208 83.1702 62.587 83.2911 62.734 83.2715C62.8807 83.2519 62.6581 83.0898 62.2394 82.911C61.821 82.7324 61.5328 82.4766 61.5991 82.3425C61.7294 82.0799 60.649 81.3677 60.2094 81.4265C60.0627 81.4461 60.2817 81.6066 60.6958 81.7835ZM62.4411 81.4688C62.7473 81.6282 62.7658 81.6941 62.5118 81.7212C62.229 81.7509 62.2353 81.8098 62.5473 82.0505C63.0029 82.402 64.5696 83.1092 64.8372 83.084C65.119 83.0574 63.7821 82.2542 63.1549 82.0732C62.8082 81.973 62.7279 81.8623 62.9304 81.7641C63.3562 81.5577 63.0171 81.1505 62.4669 81.2073C62.0875 81.2467 62.0837 81.2828 62.4411 81.4688ZM66.1282 81.0903C65.8899 81.2747 66.131 81.469 66.9998 81.7932C67.6604 82.0397 68.3096 82.2226 68.4426 82.1999C68.5757 82.1773 68.1569 81.9814 67.5125 81.7649C66.868 81.5484 66.403 81.2456 66.4791 81.092C66.6465 80.7543 66.5629 80.7538 66.1282 81.0903ZM58.2954 82.1221C58.6638 82.3141 58.6666 82.3433 58.32 82.3854C58.1055 82.4117 58.5302 82.6733 59.2639 82.9669C59.9975 83.2604 60.6411 83.4483 60.6943 83.3844C60.7472 83.3203 60.2641 83.066 59.6205 82.8194C58.9767 82.5729 58.6259 82.3524 58.8407 82.3298C59.1877 82.2934 59.1851 82.265 58.8166 82.073C58.5886 81.9544 58.2848 81.8683 58.1415 81.8818C57.9981 81.8953 58.0674 82.0034 58.2954 82.1221ZM63.8857 81.5768C64.0823 81.8373 66.27 82.745 66.3804 82.6121C66.4238 82.5593 65.8442 82.2573 65.0924 81.9405C64.3405 81.6239 63.7975 81.4602 63.8857 81.5768ZM33.717 84.8225C34.0148 85.007 34.376 85.1466 34.5193 85.1331C34.6627 85.1196 34.5361 84.9579 34.2383 84.7735C33.9403 84.5893 33.5793 84.4495 33.436 84.463C33.2926 84.4765 33.419 84.6384 33.717 84.8225ZM42.3839 83.9578C42.8564 84.4329 44.4406 84.8216 45.0512 84.6118C45.3836 84.4977 45.2504 84.3742 44.5339 84.1327C44.0029 83.9539 43.2152 83.7541 42.7834 83.6885C42.082 83.5823 42.0392 83.611 42.3839 83.9578ZM54.3042 83.0223C54.761 83.2675 55.3099 83.4441 55.5241 83.4147C55.7824 83.3794 55.731 83.3024 55.3713 83.1864C55.0511 83.083 54.9795 82.9898 55.1967 82.9583C55.8392 82.8654 55.2406 82.6099 54.3403 82.5932L53.4738 82.5767L54.3042 83.0223ZM56.1298 82.5138C55.711 82.6642 55.7499 82.7371 56.4483 83.1089C56.8861 83.342 57.4199 83.515 57.6348 83.4934C57.9821 83.4586 57.9794 83.4305 57.611 83.2385C57.2614 83.0563 57.2553 83.0164 57.5716 82.9832C57.8406 82.9549 57.7936 82.8492 57.4052 82.6088C57.1074 82.4244 56.8057 82.289 56.7352 82.308C56.6647 82.3267 56.3923 82.4194 56.1298 82.5138ZM30.4553 85.2541C30.4679 85.3891 30.6009 85.5601 30.7509 85.6344C30.907 85.7117 30.941 85.6031 30.8304 85.3794C30.6149 84.9443 30.4203 84.8792 30.4553 85.2541ZM57.1713 82.7539C57.2733 82.889 57.2395 83.0105 57.0961 83.024C56.9528 83.0375 56.7521 82.938 56.65 82.803C56.548 82.668 56.5819 82.5465 56.7252 82.533C56.8686 82.5195 57.0693 82.6189 57.1713 82.7539ZM52.2084 83.8908C52.5644 84.2415 52.6887 84.6487 52.6436 85.3143C52.5864 86.1591 52.6955 86.3334 53.8014 87.1655C56.2633 89.0178 57.0125 89.7722 57.9153 91.3092C58.4222 92.1727 58.8943 92.8098 58.9645 92.7251C59.0347 92.6404 58.581 91.7422 57.9564 90.7289C57.0762 89.3004 56.3819 88.5651 54.8669 87.4562C53.0662 86.1384 52.9171 85.9589 52.9704 85.1736C53.0158 84.5027 52.8879 84.2234 52.3691 83.8604L51.7103 83.3996L52.2084 83.8908ZM28.2291 86.6513C28.0075 86.9756 28.0467 87.1755 28.4181 87.6126C28.8143 88.0786 28.8802 88.0921 28.8435 87.6995C28.8196 87.4443 28.9241 87.2967 29.0758 87.3718C29.2321 87.4494 29.3245 87.2195 29.2891 86.8413C29.2198 86.0999 28.6727 86.0018 28.2291 86.6513ZM50.8762 85.0834C50.7978 85.1781 50.5737 85.2086 50.3788 85.151C50.163 85.0874 50.219 85.0198 50.5215 84.9787C50.7951 84.9416 50.9547 84.9887 50.8762 85.0834ZM27.5778 87.7895C27.6515 88.0403 27.874 88.2834 28.0731 88.3293C28.3043 88.383 28.3864 88.2488 28.3012 87.957C28.2276 87.7062 28.005 87.4632 27.8059 87.4172C27.5748 87.3635 27.4927 87.4977 27.5778 87.7895ZM40.6787 86.4247C40.5526 86.6793 41.4959 87.0688 42.9763 87.3738C43.4486 87.4711 43.5727 87.4171 43.4605 87.1625C43.2583 86.7032 40.8563 86.0661 40.6787 86.4247ZM52.5502 88.1643C52.9204 88.3751 52.9235 88.4082 52.5781 88.4633C52.1489 88.5319 53.4347 88.9967 54.483 89.1517C55.0378 89.2339 55.0125 89.1997 54.3324 88.9474C53.883 88.7806 53.6904 88.6189 53.9044 88.588C54.2502 88.5378 54.2477 88.5109 53.8819 88.3471C53.6555 88.2456 53.1695 88.1097 52.8019 88.0449C52.2916 87.9551 52.2322 87.9833 52.5502 88.1643ZM53.5631 88.512C53.4847 88.6067 53.2607 88.6373 53.0657 88.5796C52.8499 88.5161 52.9059 88.4485 53.2084 88.4074C53.4821 88.3703 53.6416 88.4173 53.5631 88.512ZM43.9812 90.3037C44.3007 90.4001 44.6514 90.5969 44.7607 90.7415C44.8696 90.8859 45.1349 90.9876 45.35 90.9674C45.565 90.9471 45.6695 90.8361 45.5822 90.7204C45.4949 90.605 45.747 90.5292 46.1425 90.5522C46.6633 90.5826 46.7477 90.5378 46.4481 90.3896C46.2206 90.2771 45.4418 90.1725 44.7173 90.1568C43.8453 90.1382 43.5964 90.1876 43.9812 90.3037ZM59.2724 89.0563C58.8954 89.233 58.9335 90.1157 59.3263 90.3104C59.7503 90.5203 60.6159 90.0679 60.5775 89.6566C60.537 89.2239 59.7185 88.8473 59.2724 89.0563ZM53.9331 90.3001C54.3815 90.4567 54.924 90.5645 55.1386 90.5398C55.3532 90.5151 55.1035 90.3753 54.5838 90.2294C53.3509 89.8832 52.8834 89.934 53.9331 90.3001ZM46.774 91.0634C46.8251 91.61 48.3812 92.1231 48.4031 91.6003C48.4092 91.4551 48.0402 91.2232 47.5832 91.085C47.1265 90.9469 46.7622 90.937 46.774 91.0634ZM63.3009 89.5903C63.2113 89.771 63.2806 89.9519 63.4545 89.9921C63.6284 90.0325 63.7816 90.1809 63.7948 90.3222C63.808 90.4632 63.5772 90.5262 63.282 90.4622C62.6379 90.3225 62.6151 90.5453 63.2222 91.0483C63.7916 91.5201 64.1804 91.0995 64.1978 89.9923C64.2066 89.4319 64.0984 89.202 63.8372 89.2266C63.6318 89.2459 63.3905 89.4096 63.3009 89.5903ZM60.829 90.1841C60.6544 90.3949 61.2845 91.8337 61.5407 91.8096C61.8045 91.7848 62.2947 91.1501 62.2682 90.8675C62.2558 90.7351 62.0823 90.7909 61.8823 90.9911C61.5748 91.2994 61.5209 91.2634 61.5316 90.7564C61.5442 90.177 61.1208 89.8321 60.829 90.1841ZM59.9913 91.824C60.0115 92.0391 60.2038 92.1985 60.4189 92.1782C60.6339 92.158 60.7933 91.9654 60.7732 91.7504C60.7531 91.5353 60.5607 91.3759 60.3457 91.3962C60.1307 91.4164 59.9712 91.6089 59.9913 91.824ZM56.4311 94.3688C55.9764 94.598 55.9871 94.6225 56.5838 94.7199C56.9365 94.7777 57.2743 94.7659 57.3341 94.6934C57.3939 94.6213 57.2766 94.5761 57.0734 94.5931C56.7689 94.6183 56.7685 94.5726 57.071 94.3343C57.5012 93.9953 57.1329 94.015 56.4311 94.3688Z"/>
</mask>
<path fill-rule="evenodd" clip-rule="evenodd" d="M83.7338 44.8841C83.5853 45.1014 83.5672 45.5375 83.6931 45.8599C83.8182 46.1805 84.7109 47.713 85.6766 49.2657C87.1493 51.6334 87.3729 52.1322 87.0634 52.3602C82.3061 55.8642 79.0554 58.5397 77.6357 60.12C77.022 60.8029 76.8594 60.8779 76.6983 60.5523C76.591 60.3357 76.2756 60.18 75.9975 60.2062C75.5047 60.2526 73.9251 62.036 73.1813 63.3854C72.3806 64.8382 71.4426 65.6042 68.8907 66.8896C63.5259 69.5914 61.4354 69.991 55.1448 69.5167C52.3525 69.306 49.5743 68.5873 46.9319 67.3916C45.6637 66.8175 33.5409 60.4669 31.3842 59.2467C30.2057 58.5801 29.1709 58.0411 29.0847 58.0492C28.9984 58.0574 28.4064 57.777 27.7691 57.4265C26.2518 56.5914 24.1481 55.8483 20.8824 54.9942C18.8578 54.4649 17.6648 54.3176 15.8605 54.3753C13.7489 54.4423 13.3741 54.526 12.3836 55.1515C11.7728 55.537 11.1993 55.9915 11.1089 56.1612C10.833 56.6803 10.996 57.4002 11.8712 59.5249C12.3931 60.7925 13.559 62.7392 14.9539 64.6722C16.1875 66.3819 18.4583 69.7774 20.0001 72.2178C21.5415 74.6579 23.4631 77.4207 24.2698 78.3572C25.0767 79.2937 26.3272 80.7357 27.0486 81.5619L28.3603 83.0638L27.7719 83.5976C26.5244 84.7296 24.7534 88.9414 24.8935 90.4435C24.9547 91.1002 25.8815 91.4152 26.3553 90.9404C26.5258 90.7697 27.1231 90.4181 27.6832 90.1595C28.2432 89.9006 29.1794 89.2471 29.7636 88.7076C31.0241 87.5436 32.8456 86.6718 33.3659 86.9839C33.5617 87.1011 34.7059 87.7466 35.9087 88.4178C37.1115 89.0889 38.1438 89.7312 38.2026 89.8453C38.2616 89.9592 38.4758 90.0368 38.6788 90.0177C38.8821 89.9986 39.0591 90.1002 39.0725 90.2436C39.0859 90.387 39.2546 90.4894 39.4474 90.4713C39.6403 90.4531 40.5323 90.8207 41.43 91.2881C42.3277 91.7556 44.3938 92.462 46.0216 92.8581C47.6493 93.2541 49.5612 93.7457 50.2701 93.9509C50.9792 94.1561 51.6436 94.3026 51.7466 94.2768C52.4341 94.1043 52.8825 94.3358 53.6094 95.2382C55.0426 97.018 57.0116 98.5751 58.6326 99.2111C60.2475 99.8443 61.125 99.9068 61.7397 99.4319C62.033 99.2052 61.9219 98.9343 61.0933 97.8531C60.4555 97.0209 60.0055 96.1036 59.852 95.3215L59.6111 94.0951L62.0545 93.8592C66.1757 93.4617 71.8416 91.3285 74.6066 89.1332C77.0032 87.2305 80.1739 83.7363 84.1622 78.6024C86.2476 75.9181 89.2397 70.3992 91.0061 65.979C91.9425 63.6355 92.9359 61.2688 93.2135 60.7196C93.491 60.1704 93.825 59.2375 93.9554 58.6467C94.0858 58.0559 94.302 57.4046 94.4361 57.1995C94.7117 56.7778 95.5193 56.7627 99.2318 57.1113C100.806 57.2589 102.063 57.2337 102.851 57.0385C104.107 56.7275 111.509 52.2902 111.47 51.8716C111.438 51.5332 111.069 51.3999 110.07 51.3653C109.583 51.3486 108.854 51.2429 108.45 51.1306C108.045 51.0185 107.03 50.9205 106.194 50.9133C105.358 50.906 104.328 50.8757 103.906 50.8458C103.182 50.7946 101.891 50.1901 101.033 49.5006C100.346 48.9476 98.7683 48.5949 97.511 48.7133C96.5881 48.8002 96.1428 48.703 95.732 48.3249C94.9547 47.6091 92.2264 46.6734 89.8736 46.3154C88.7691 46.1472 87.3207 45.7569 86.655 45.4474C84.7437 44.5603 84.0469 44.4257 83.7338 44.8841ZM89.4514 46.9679C91.5031 47.1936 94.9319 48.3581 94.9209 48.8257C94.9177 48.9706 94.7096 49.1248 94.4589 49.1684C94.208 49.2121 93.6755 49.4139 93.2751 49.617C92.6283 49.9454 92.5805 49.9378 92.846 49.5494C93.0979 49.1804 93.08 49.1442 92.7317 49.3169C92.5051 49.4295 92.3304 49.6387 92.3438 49.7821C92.3572 49.9254 92.1859 49.9918 91.9632 49.9294C91.7404 49.8673 91.5688 49.93 91.5818 50.0687C91.5948 50.2076 91.4858 50.3325 91.3398 50.3463C91.1905 50.3603 91.1051 50.0517 91.1448 49.6414C91.2018 49.0531 91.1595 49.0954 90.9272 49.8592C90.7688 50.3803 90.6217 50.7168 90.6004 50.6071C90.5791 50.4973 90.2643 50.645 89.9007 50.9352C89.3681 51.3606 89.2612 51.3846 89.3504 51.0588C89.6705 49.8899 89.7167 49.3922 89.4891 49.5644C89.355 49.6659 89.2064 50.168 89.1591 50.6802C89.1118 51.1925 89.0294 51.6157 88.9757 51.6208C88.9223 51.6258 88.6812 51.7277 88.44 51.8474C88.1641 51.9841 88.0546 51.9573 88.1446 51.7756C88.2236 51.6164 87.724 50.5618 87.0344 49.4318C86.345 48.3018 85.6806 47.0418 85.5579 46.6318L85.3349 45.8863L86.3969 46.3177C86.981 46.5549 88.3556 46.8475 89.4514 46.9679ZM16.0891 55.3359C19.0001 55.5486 23.3158 56.4539 25.6901 57.3501C26.9343 57.8199 32.0892 60.4376 37.1455 63.1674C42.2017 65.8973 47.0133 68.3863 47.8379 68.699C52.9731 70.6456 59.637 71.1799 64.1797 70.0098C66.9235 69.303 69.6807 67.8818 71.7786 66.0933C73.593 64.5466 74.8939 63.0334 74.8587 62.5111C74.826 62.0284 75.4454 61.8652 76.0165 62.2059C77.0855 62.8434 77.6541 62.5024 79.0932 60.3604C80.7598 57.8796 82.3885 56.3343 85.1046 54.6566C86.2301 53.9616 87.4533 53.1248 87.8229 52.797C88.1924 52.4693 89.8741 51.6014 91.5604 50.8685C93.9586 49.8262 95.1039 49.4746 96.8199 49.2541L99.0136 48.972L101.211 50.1368C102.453 50.7946 103.808 51.312 104.326 51.3259C104.83 51.3392 105.983 51.3631 106.889 51.3793C107.794 51.3953 108.597 51.4902 108.672 51.5898C109.154 52.2282 106.732 54.1433 103.664 55.5493C101.993 56.3154 99.5825 56.5802 97.9661 56.1755C97.3202 56.0135 96.4602 55.9125 96.0549 55.9507C95.0801 56.0425 94.0805 56.6352 93.9591 57.1934C93.9054 57.4404 93.6794 57.8935 93.4567 58.2006C93.0389 58.7764 92.673 59.5059 92.0901 60.9259C91.9051 61.3772 91.7003 61.8106 91.6354 61.8891C91.4996 62.0533 91.2245 62.6633 90.2975 64.8541C89.9338 65.7136 89.5575 66.5424 89.4609 66.6962C89.0055 67.4215 87.7336 70.7272 87.5418 71.6846C87.4235 72.2748 87.1047 73.0693 86.8332 73.4499C79.6517 83.5193 76.3423 87.2065 72.2225 89.7285C70.5551 90.7493 68.0951 91.8288 66.0941 92.4177C65.3201 92.6455 63.6915 92.943 62.475 93.0786C61.2585 93.2142 60.0084 93.4465 59.6968 93.5947C59.1909 93.8357 59.1469 94.0405 59.2847 95.5146C59.4111 96.8654 59.5721 97.3139 60.1732 97.9868C60.577 98.439 60.9102 98.8386 60.9136 98.8748C60.917 98.9113 60.5265 98.8495 60.0462 98.7377C58.4787 98.3728 56.5699 97.0283 54.3458 94.7224C53.5783 93.9268 52.8627 93.225 52.7554 93.1628C52.6481 93.1006 52.1713 92.2863 51.6955 91.3534C50.7572 89.5134 49.9802 87.0833 50.1 86.3625C50.1478 86.0748 50.2087 86.1463 50.2676 86.5597C50.3944 87.4524 53.4338 92.3502 54.9951 94.1784C56.7456 96.2281 58.3618 97.6335 58.8959 97.5706C59.1875 97.5363 59.0589 97.3983 58.5235 97.1704C57.7686 96.8494 57.7444 96.8036 58.2047 96.5722C58.6564 96.3448 58.6415 96.3225 58.0467 96.3341C57.5103 96.3446 57.4807 96.3148 57.8852 96.1702C58.3445 96.0063 58.3317 95.9712 57.708 95.6807L57.0361 95.3676L57.6709 95.4783C58.063 95.5468 58.2355 95.4958 58.1215 95.3451C58.0201 95.2111 57.5198 95.0628 57.0093 95.0159C56.472 94.9666 55.9399 94.7172 55.7452 94.4228C55.442 93.9646 55.47 93.9262 56.0339 94.0298C56.5181 94.1186 56.565 94.0911 56.2423 93.9077C55.8721 93.6969 55.8692 93.6656 56.216 93.6259C56.5627 93.5861 56.56 93.5572 56.1916 93.3652C55.9636 93.2465 55.6017 93.1722 55.3874 93.2006C55.1305 93.2342 55.1824 93.3111 55.54 93.4265C55.9703 93.5654 55.9932 93.6137 55.6513 93.6606C55.115 93.734 52.6842 90.6497 52.8399 90.0933C52.9009 89.8761 52.8594 89.7672 52.7482 89.8513C52.5564 89.9964 51.9742 89.1663 50.9865 87.3401C50.557 86.5456 50.5619 86.5217 51.1453 86.5636C51.4764 86.5874 51.5785 86.5685 51.3725 86.5222C51.0518 86.4498 51.0468 86.3964 51.3379 86.152C51.5793 85.9494 51.4933 85.9302 51.0412 86.0861L50.4044 86.3057L51.0193 85.8517C51.3575 85.6021 51.4803 85.4081 51.2921 85.4205C51.104 85.4333 51.0158 85.3111 51.0961 85.1492C51.1769 84.9862 50.9847 84.8126 50.6659 84.7605C50.3223 84.7045 50.1314 84.5187 50.1925 84.3002C50.2491 84.0984 50.1688 83.9737 50.014 84.0227C49.619 84.148 49.0785 82.6671 49.424 82.4058C49.7985 82.1228 49.382 81.6466 48.8073 81.7007C48.5466 81.7252 48.2069 81.9305 48.0525 82.1568C47.8309 82.4813 47.8872 82.9063 48.3201 84.1696C48.9019 85.8681 49.1621 86.7527 49.5086 88.209C49.7832 89.3623 50.6096 91.1517 51.3234 92.1382L51.8817 92.9095L50.0667 92.7375C49.0685 92.6429 48.0089 92.4637 47.7125 92.3391C47.4159 92.2145 46.9659 92.2019 46.7124 92.3112C46.3197 92.4808 46.3053 92.4592 46.6141 92.1653C46.9159 91.8779 46.8805 91.8512 46.4016 92.0044C46.0853 92.1055 45.8767 92.0875 45.9377 91.9642C45.9988 91.8412 45.0984 91.3837 43.937 90.9482C41.1286 89.8946 39.0415 88.8549 39.4094 88.6924C39.5733 88.6202 39.6297 88.4584 39.5349 88.3327C39.3431 88.0788 37.528 87.408 37.0664 87.4204C36.5998 87.433 35.337 86.8477 35.3146 86.6084C35.2804 86.2432 35.8748 86.3124 36.4621 86.742C36.9007 87.0628 36.9857 87.0688 36.8605 86.7703C36.7731 86.5615 36.3733 86.2673 35.9722 86.1163C35.571 85.9655 35.2325 85.731 35.2199 85.5954C35.2072 85.4599 35.0167 85.366 34.7968 85.3867C34.4645 85.418 34.4581 85.5188 34.7591 85.982L35.1217 86.5395L34.45 86.09C32.9947 85.1165 29.2503 81.8347 28.0213 80.456C26.0832 78.2814 24.0089 75.4857 23.8126 74.7836C23.5815 73.9567 20.6147 69.4247 20.1663 69.2132C19.9722 69.1218 19.2248 68.0372 18.5057 66.8031C17.7864 65.5692 16.9968 64.4354 16.7507 64.2837C16.5046 64.1322 16.2504 63.742 16.1855 63.4165C15.9889 62.4294 15.9716 62.4024 15.6781 62.6238C15.4952 62.7623 15.4552 62.7166 15.5648 62.4948C15.671 62.2808 15.3584 61.8248 14.7346 61.2834C13.5125 60.223 13.0715 59.5566 12.9578 58.599C12.8839 57.9772 12.8477 57.9472 12.7177 58.4012C12.568 58.9236 12.5564 58.9234 12.2101 58.4004C11.7313 57.677 11.7029 57.0699 12.1374 56.8544C12.3351 56.7566 12.5868 56.3124 12.6966 55.8673C12.8689 55.1687 12.9963 55.0689 13.6322 55.1344C14.037 55.176 15.1427 55.2667 16.0891 55.3359ZM13.7573 56.0486C13.9666 56.1551 14.0752 56.3684 13.9989 56.5229C13.8378 56.8475 17.1814 58.1153 18.0152 58.0455C18.592 57.9972 20.2124 58.8684 19.6616 58.9308C19.4912 58.95 19.2683 58.8552 19.1663 58.7202C19.0642 58.5852 18.8033 58.4914 18.5868 58.5118C18.2531 58.5432 18.2526 58.5988 18.5823 58.872C18.9605 59.1853 19.8075 59.4535 20.2267 59.3925C20.3398 59.376 20.8257 59.635 21.3064 59.9679C21.9952 60.4453 22.2253 60.496 22.3937 60.208C22.5542 59.9333 22.5834 59.9532 22.5105 60.2872C22.4565 60.5342 22.6563 60.9135 22.9597 61.1403C23.5578 61.5876 23.6789 61.2432 23.1015 60.7369C22.9047 60.5643 23.2079 60.6601 23.7756 60.9496C24.343 61.2393 24.822 61.616 24.8398 61.7869C24.8782 62.1575 25.997 62.8392 26.2512 62.647C26.3489 62.5731 26.6056 62.6893 26.8219 62.9051C27.1702 63.2531 27.1467 63.2829 26.6132 63.1672C26.2464 63.0877 26.0217 63.1454 26.0376 63.3151C26.0519 63.4681 26.2452 63.5761 26.4676 63.5552C26.6896 63.5343 27.3324 63.8879 27.8959 64.3411C28.4594 64.7943 29.0409 65.1537 29.1882 65.1398C29.3352 65.126 29.0286 64.7998 28.5067 64.4151C27.2656 63.5 27.7498 63.4623 29.088 64.3698C29.6568 64.7551 30.0789 65.224 30.0263 65.4117C29.9739 65.5991 30.2536 66.0033 30.6482 66.3098C31.5243 66.9908 31.5664 66.6336 30.7003 65.8689C30.3576 65.5667 30.1858 65.3128 30.319 65.3053C30.4518 65.2977 31.6248 66.1251 32.9256 67.1436C35.3591 69.0496 35.5736 69.7149 33.1982 67.9895C32.4662 67.4577 31.7276 67.0918 31.5567 67.1765C31.3861 67.2612 30.937 67.1118 30.5591 66.8445C27.7483 64.8573 24.9015 63.051 22.1202 61.4897C20.6323 60.6544 19.4206 60.0343 19.4278 60.1117C19.4351 60.1891 20.2205 60.6795 21.173 61.2015C22.1258 61.7235 23.534 62.5507 24.3028 63.0398C27.0254 64.7718 27.6208 65.1588 27.9217 65.3934C28.089 65.5239 28.9598 66.1417 29.8564 66.766C30.7532 67.3903 31.373 67.9872 31.234 68.0924C30.9008 68.3441 32.0059 70.0291 33.0873 70.9181C33.8561 71.55 34.1567 72.0353 33.7999 72.0689C33.7155 72.0768 33.4015 71.8402 33.1024 71.5429C32.7007 71.1439 32.5658 71.1071 32.5868 71.4021C32.6169 71.8226 34.3787 73.3292 34.7947 73.2901C34.9281 73.2775 35.2853 73.51 35.5886 73.807L36.14 74.3468L35.5071 73.9054C34.723 73.3586 34.7076 73.5431 35.4762 74.2778C35.8169 74.6034 36.0404 74.6872 36.0212 74.4824C36.0033 74.2913 36.4507 74.5821 37.0151 75.129C37.5797 75.6757 38.4331 76.3498 38.9117 76.6272C39.9317 77.2183 39.6052 76.6734 38.4668 75.8846C37.2652 75.0518 31.8135 68.8493 31.7576 68.2511C31.7499 68.1687 31.9516 68.1124 32.206 68.1255C32.4604 68.1386 32.689 68.3138 32.7143 68.5144C32.7397 68.7153 32.8991 68.837 33.0682 68.7848C33.2377 68.7328 33.356 68.7917 33.3316 68.9157C33.2839 69.1566 36.7363 72.0553 37.0374 72.027C37.1359 72.0177 36.608 71.4983 35.8646 70.8728C35.1212 70.2472 34.5832 69.6504 34.6692 69.5469C34.8185 69.3666 36.1336 70.0075 36.9322 70.6494C37.1398 70.8163 37.5448 71.0517 37.8319 71.1722C38.1245 71.2951 38.366 71.6479 38.3809 71.9736C38.3956 72.2936 38.6984 73.1789 39.0542 73.9409C39.4096 74.7029 39.6743 75.4472 39.6424 75.5948C39.5362 76.0845 40.9814 78.094 41.589 78.3019C41.9176 78.4143 42.2702 78.7037 42.3725 78.9453C42.5604 79.3891 44.4515 80.796 44.8143 80.7618C44.9224 80.7516 44.5605 80.3589 44.0101 79.889C42.5532 78.6455 41.6676 77.281 40.6788 74.7567C40.1973 73.5269 39.5362 72.1672 39.2097 71.7354C37.986 70.115 29.1361 63.3312 25.8686 61.5086C25.3347 61.2109 24.8322 60.8987 24.7521 60.8156C24.4786 60.5307 20.4561 58.4189 18.8074 57.6945C15.9707 56.4479 14.173 55.7783 13.7678 55.8172C13.4447 55.8482 13.4429 55.8883 13.7573 56.0486ZM89.8837 49.8362C89.816 50.0774 89.781 50.4113 89.8055 50.5781C89.8303 50.7446 89.9367 50.5894 90.042 50.2331C90.1472 49.8766 90.1823 49.543 90.1199 49.4913C90.0574 49.4396 89.951 49.5948 89.8837 49.8362ZM88.3983 50.7463C88.3372 50.9643 88.4059 51.2016 88.5509 51.2734C88.6959 51.3452 88.8092 51.348 88.8029 51.2797C88.7965 51.2111 88.845 50.963 88.9109 50.728C88.9767 50.4931 88.9132 50.3118 88.7699 50.3253C88.6265 50.3388 88.4592 50.5284 88.3983 50.7463ZM95.867 50.463C95.5437 50.6294 95.1803 50.7162 95.0592 50.6564C94.9382 50.5962 94.659 50.8887 94.4387 51.306C94.2185 51.723 93.9249 52.2019 93.7865 52.3701C93.6479 52.5383 93.2816 53.134 92.9725 53.694C92.6633 54.2541 92.3226 54.7214 92.2151 54.7326C92.1076 54.7438 92.0363 54.9288 92.0564 55.1438C92.0765 55.3589 92.1817 55.5362 92.2904 55.5378C92.3991 55.5394 92.8444 55.5577 93.2802 55.5785C94.0392 55.6143 94.0492 55.601 93.5167 55.2625C93.179 55.0479 92.9352 55.019 92.8956 55.1889C92.8598 55.3427 92.7109 55.4093 92.5648 55.3371C92.4187 55.2646 92.572 54.9002 92.906 54.5268C93.2398 54.1538 93.5023 53.7367 93.4896 53.6001C93.4768 53.4635 93.9692 53.3504 94.5835 53.3488C95.4727 53.3463 95.5633 53.3112 95.0275 53.1766L94.3544 53.0075L95.0007 52.8901C95.4787 52.803 95.5221 52.7521 95.167 52.6948C94.903 52.6523 94.5301 52.7748 94.338 52.9672C94.0594 53.2464 93.9816 53.2382 93.9525 52.9272C93.9288 52.6744 94.2978 52.4306 95.0049 52.2322C95.7543 52.022 95.9277 51.9024 95.5606 51.848L95.0273 51.7689L95.5277 51.4966L96.0281 51.2242L95.5142 51.3517C95.2315 51.4217 95.0428 51.6162 95.0944 51.7833C95.1461 51.9507 95.0085 52.1046 94.7885 52.1253C94.0762 52.1924 94.7529 51.137 95.5951 50.867C96.0158 50.7322 96.417 50.5075 96.4865 50.3674C96.634 50.0694 96.6316 50.0699 95.867 50.463ZM16.8528 62.1595C17.4519 63.0072 19.667 66.4374 21.775 69.7825C24.9904 74.8839 27.6018 78.6404 28.2949 79.1616C28.3806 79.2259 29.1035 79.9862 29.9014 80.8512C30.6995 81.7162 31.5114 82.5028 31.7058 82.5994C31.8999 82.696 32.6131 83.1614 33.2906 83.6336C35.1956 84.9616 35.4924 85.1503 36.9702 85.9731C37.7294 86.3957 38.9786 87.1304 39.746 87.6051C40.6051 88.137 42.0706 88.6801 43.5592 89.0185C46.3057 89.6433 48.8051 89.9047 49.0711 89.5951C49.17 89.48 48.6202 89.2946 47.8494 89.1831C47.0784 89.0716 45.845 88.8606 45.1082 88.7141C43.5962 88.4136 38.187 86.3968 38.1615 86.1242C38.1523 86.0264 38.7064 85.9424 39.3929 85.9375C40.3299 85.9305 40.561 85.8604 40.3203 85.6563C40.1438 85.5068 39.5724 85.3907 39.0501 85.3983C37.7533 85.4173 34.4682 83.667 35.019 83.2507C35.1607 83.1435 34.7454 82.6671 34.0725 82.1649C33.3913 81.6565 32.8423 81.4039 32.8015 81.58C32.7619 81.7505 33.0885 82.1528 33.5274 82.4739L34.3253 83.0578L33.4512 82.8545C32.396 82.6091 29.77 80.1993 28.5136 78.3232C28.0223 77.59 27.4968 77.0312 27.3456 77.0815C27.1941 77.132 27.0527 76.9833 27.031 76.7513C27.0093 76.5193 26.621 75.9797 26.1682 75.5521C25.7155 75.1246 23.9529 72.553 22.2514 69.8378C20.5498 67.1224 18.8508 64.4565 18.4758 63.9132C17.5491 62.5707 15.99 60.5971 15.8654 60.6089C15.8094 60.6141 16.2538 61.3121 16.8528 62.1595ZM93.6497 54.1034C93.5846 54.2342 93.7365 54.2532 93.987 54.1452C94.3439 53.9917 94.3682 54.0131 94.0996 54.2448C93.9111 54.4075 93.5937 54.495 93.3948 54.4393C93.1955 54.3839 93.0449 54.468 93.0597 54.6268C93.103 55.0897 94.0893 54.8654 94.5722 54.2824C95.0052 53.7596 95.0014 53.7489 94.3915 53.8063C94.0482 53.8386 93.7145 53.9724 93.6497 54.1034ZM18.5186 61.8409C18.8511 62.1906 19.1385 62.6406 19.1572 62.8408C19.1759 63.041 19.3735 63.2559 19.5962 63.3181C19.8189 63.3805 20.0201 63.634 20.0433 63.8816C20.0846 64.3232 22.2702 67.0814 22.7918 67.3502C23.1611 67.5405 23.3849 69.1042 23.0478 69.1406C22.8679 69.1602 22.8691 69.2285 23.0512 69.3375C23.2044 69.4294 23.3552 69.6503 23.3863 69.828C23.5136 70.5571 23.5838 70.6612 23.8858 70.5699C24.0804 70.5111 24.2517 70.8108 24.3314 71.3479C24.4576 72.2001 24.9395 72.88 25.1968 72.5692C25.2676 72.4836 25.1713 72.0998 24.9826 71.7157C24.7939 71.3317 24.6794 70.9696 24.728 70.9111C24.7767 70.8523 25.3553 71.4356 26.0137 72.2069C26.6722 72.9786 27.5095 73.8299 27.8744 74.099C28.2393 74.3681 29.1353 75.2846 29.8656 76.1357C31.274 77.7771 36.1741 81.9912 37.9662 83.1023C39.9571 84.3365 41.4191 84.9822 43.3501 85.4804C45.4219 86.0146 48.1596 86.1991 48.1225 85.8018C48.1101 85.6694 47.7262 85.5675 47.2694 85.5755C46.3187 85.5925 42.7576 84.771 41.536 84.253C39.8506 83.5381 38.0249 82.3833 38.2778 82.192C38.421 82.0838 37.9631 81.7919 37.2601 81.5433C35.937 81.0757 33.3208 79.3447 33.2802 78.9105C33.2674 78.7744 33.412 78.7376 33.6012 78.8284C34.0135 79.0263 33.7038 78.6807 31.29 76.2498C30.3052 75.2578 29.1537 74.1828 28.7314 73.861C28.0285 73.3258 27.1676 72.3071 24.202 68.5021C23.6245 67.7609 22.3262 66.1081 21.3171 64.8291C20.3081 63.55 19.2529 62.1996 18.9721 61.8284C18.6913 61.4573 18.3384 61.1649 18.1878 61.1791C18.0374 61.1933 18.1865 61.4911 18.5186 61.8409ZM17.3757 66.1206C18.767 68.3038 20.3689 70.7861 20.9351 71.6367C23.8144 75.9618 24.173 76.515 24.0235 76.4013C23.7849 76.2197 22.3468 74.4569 22.3351 74.3318C22.3295 74.2726 21.8976 73.6383 21.3752 72.9217C20.2258 71.3445 15.0596 63.2695 14.6063 62.3413C13.884 60.8617 14.9593 62.3291 17.3757 66.1206ZM23.7563 61.4127C23.7697 61.556 23.9047 61.7348 24.0564 61.8099C24.208 61.885 24.3211 61.8292 24.3077 61.6858C24.2943 61.5424 24.1592 61.3637 24.0076 61.2885C23.856 61.2134 23.7429 61.2693 23.7563 61.4127ZM31.2053 60.9387C31.3619 61.0673 32.4283 61.7166 33.5751 62.3815C34.7218 63.0464 35.725 63.6517 35.8043 63.7268C35.8836 63.8022 36.5785 64.2738 37.3484 64.7748C38.1183 65.2759 38.8134 65.7511 38.8932 65.8309C39.3146 66.2522 45.4183 69.8814 46.4446 70.321C49.6744 71.7043 51.4296 72.2601 53.5164 72.5615C55.7408 72.8827 59.6286 72.7296 59.8355 72.3128C59.8919 72.1991 59.0933 72.2038 58.0609 72.3237C55.6974 72.5978 54.4273 72.4807 51.4783 71.7159C48.2306 70.8739 43.9925 68.762 39.5153 65.7552C39.0359 65.4333 38.4018 65.0151 38.1062 64.826C37.8106 64.6369 37.0054 64.1163 36.3171 63.6688C35.6287 63.2214 34.432 62.492 33.6577 62.0476C32.1808 61.2 30.7186 60.5391 31.2053 60.9387ZM90.7784 57.3133C89.9439 58.4769 89.9322 58.7802 90.758 57.8485C91.2553 57.287 91.9139 56.8619 92.4688 56.7433C93.3641 56.552 93.363 56.5511 92.3064 56.6087C91.49 56.6533 91.1338 56.8175 90.7784 57.3133ZM22.6641 63.7918C22.6713 63.869 23.5071 65.2153 24.5214 66.7837C26.3107 69.5508 28.3379 72.0712 29.0665 72.4344C29.2626 72.5324 29.9364 73.1558 30.5635 73.82C31.1907 74.4841 32.2215 75.4815 32.854 76.0368C33.4864 76.5921 33.8573 77.06 33.6779 77.0769C33.3665 77.1062 31.1405 75.2412 30.2835 74.2327C30.0592 73.969 29.758 73.7643 29.6139 73.7779C29.2307 73.814 31.058 75.8351 32.4484 76.9128C33.107 77.4236 33.7054 77.7696 33.7779 77.682C33.8507 77.5942 34.2065 77.775 34.5687 78.0836C35.8001 79.1331 37.9911 80.3684 38.3261 80.2022C38.5128 80.1097 38.8048 80.2892 38.9883 80.609C39.3976 81.3226 41.0172 82.0335 41.5886 81.7503C41.8255 81.6328 42.2176 81.6898 42.4698 81.8783C43.0795 82.3342 44.4135 82.6903 44.3854 82.3898C44.3732 82.2589 43.413 81.7979 42.2519 81.3652C41.0909 80.9323 40.0759 80.5177 39.9966 80.4436C39.9174 80.3693 39.2279 79.9551 38.4645 79.5234C37.7011 79.0914 36.7671 78.5285 36.3887 78.2725C35.0703 77.3794 32.3753 75.0458 30.8185 73.4486C28.8334 71.4118 25.6471 67.5749 25.6098 67.1764C25.5942 67.0095 25.2155 66.4461 24.7681 65.9242C24.321 65.4022 23.7591 64.668 23.5195 64.293C23.2801 63.9179 22.9867 63.62 22.8676 63.6312C22.7485 63.6424 22.6569 63.7147 22.6641 63.7918ZM26.2246 65.3158C26.2777 65.8833 30.9347 71.48 32.4211 72.7628C33.8251 73.9741 34.4771 74.6343 34.2844 74.6491C33.9312 74.6757 33.5739 74.3983 32.3856 73.1737C31.7677 72.5371 31.2105 72.0781 31.1477 72.1543C31.0021 72.3299 32.6102 74.2597 33.3774 74.8299C33.6964 75.0671 34.0749 75.1724 34.2186 75.0639C34.3622 74.9555 34.4885 74.9614 34.4996 75.0774C34.5441 75.5479 36.5664 77.1581 37.0991 77.1473C37.4146 77.1408 37.7187 77.331 37.7771 77.5711C37.8356 77.8107 38.1786 78.2091 38.5396 78.4565C39.292 78.9726 39.779 79.0354 39.3931 78.5665C39.251 78.3935 39.4569 78.5371 39.851 78.8858C40.4595 79.4244 42.1247 80.2261 42.5511 80.186C42.7126 80.1708 41.8699 79.5709 40.4542 78.693C38.4891 77.4746 31.9812 71.8683 30.8014 70.3771C27.4003 66.0787 26.1686 64.7165 26.2246 65.3158ZM85.9892 63.7461C85.6512 64.2064 85.4591 64.5747 85.5623 64.565C85.6655 64.5553 86.0303 64.1659 86.3732 63.6997C86.7164 63.2335 86.9083 62.8651 86.8004 62.8808C86.6922 62.8965 86.3271 63.2859 85.9892 63.7461ZM85.2331 65.122C85.1579 65.2737 85.2137 65.3868 85.357 65.3733C85.5004 65.3598 85.6791 65.2246 85.7544 65.0729C85.8296 64.9212 85.7738 64.8081 85.6304 64.8216C85.4871 64.8351 85.3083 64.9702 85.2331 65.122ZM85.1751 65.9082C85.1881 66.0469 85.3684 66.0764 85.5757 65.9738C85.783 65.8709 85.9483 65.7407 85.943 65.6844C85.9377 65.6281 85.7575 65.5985 85.5425 65.6188C85.3275 65.639 85.1622 65.7692 85.1751 65.9082ZM84.4217 67.0392C83.9808 67.664 84.319 67.7797 84.8193 67.1756C84.9935 66.9654 85.3034 66.709 85.508 66.6056C85.7734 66.4714 85.7278 66.4257 85.3496 66.4466C85.0579 66.4628 84.6404 66.7293 84.4217 67.0392ZM38.1289 73.6002C38.6555 74.3308 39.1264 74.8845 39.175 74.831C39.2914 74.7033 37.7455 72.5567 37.4216 72.3963C37.2837 72.328 37.602 72.8698 38.1289 73.6002ZM83.7337 68.067C83.9198 68.1226 84.213 68.095 84.3853 68.0056C84.5579 67.9165 84.4056 67.8712 84.0472 67.9049C83.6889 67.9387 83.5479 68.0116 83.7337 68.067ZM83.2043 68.7317C83.1291 68.8834 83.1627 69.0004 83.2788 68.9916C83.395 68.983 83.3248 69.1061 83.1227 69.2653C82.9207 69.4245 82.876 69.5452 83.0237 69.5337C83.1712 69.5219 83.4708 69.2588 83.6895 68.949C84.0082 68.4971 84.0132 68.3925 83.714 68.4207C83.5088 68.44 83.2795 68.58 83.2043 68.7317ZM26.8389 74.6967C26.859 74.9117 26.9797 75.0779 27.1071 75.0659C27.2346 75.0539 27.3404 75.2382 27.3426 75.4755C27.3449 75.713 27.4983 75.9452 27.6838 75.9917C28.1084 76.0979 27.917 74.9959 27.4377 74.5745C26.9896 74.1804 26.7943 74.2201 26.8389 74.6967ZM81.9987 69.8971C81.9234 70.0488 81.9792 70.1619 82.1226 70.1484C82.2659 70.1349 82.4447 69.9997 82.5199 69.848C82.5951 69.6963 82.5393 69.5832 82.396 69.5967C82.2526 69.6102 82.0739 69.7454 81.9987 69.8971ZM81.5505 70.7282C81.6525 70.8633 81.553 70.991 81.3296 71.012C81.1063 71.033 80.9398 71.2262 80.9599 71.4413C80.98 71.6563 80.8398 71.847 80.6485 71.8651C80.4572 71.8831 80.025 72.2493 79.6881 72.6787C79.1062 73.4204 78.2757 74.2144 76.3897 75.8331C75.9285 76.2289 75.686 76.54 75.8504 76.5245C76.3253 76.4798 77.4225 75.7879 77.4 75.5473C77.3887 75.4271 77.5554 75.312 77.7704 75.2918C77.9855 75.2715 78.1504 75.1377 78.137 74.9943C78.1236 74.8509 78.2018 74.7391 78.311 74.746C78.4202 74.753 78.7418 74.7133 79.0258 74.6579C79.3099 74.6027 79.397 74.5138 79.2192 74.46C79.0417 74.4065 78.9451 74.1884 79.0048 73.9751C79.0703 73.7419 79.4718 73.5537 80.0131 73.5027C80.5563 73.4516 80.8381 73.3191 80.7244 73.1686C80.6206 73.0314 80.433 72.9967 80.3073 73.0919C80.1816 73.1868 80.0628 73.0944 80.0433 72.8864C80.0239 72.6786 80.2943 72.407 80.6442 72.2833C80.9942 72.1597 81.2643 71.8847 81.2444 71.6725C81.2246 71.46 81.3842 71.2698 81.5993 71.2496C81.8143 71.2293 81.9801 71.1041 81.9676 70.9711C81.9552 70.8384 82.1454 70.6567 82.39 70.5674C82.6577 70.4699 82.5422 70.4208 82.1 70.444C81.6704 70.4666 81.4422 70.5848 81.5505 70.7282ZM43.3732 77.1885C43.3852 77.317 43.8548 77.7554 44.4169 78.1626C45.1208 78.6728 45.5145 78.8111 45.6829 78.6078C45.8516 78.4041 45.812 78.1972 45.5562 77.9417C45.3521 77.738 45.0378 77.5851 44.858 77.602C44.6781 77.6189 44.3685 77.4706 44.1698 77.2723C43.7693 76.8724 43.3394 76.8272 43.3732 77.1885ZM30.108 78.7279C30.1214 78.8713 30.2567 78.9769 30.4084 78.9626C30.5601 78.9483 30.601 78.8261 30.4989 78.6911C30.3969 78.5561 30.2619 78.4504 30.1986 78.4564C30.1352 78.4624 30.0946 78.5845 30.108 78.7279ZM30.5079 79.6698C30.5785 79.9128 30.8984 80.2127 31.2186 80.3364C31.5388 80.46 32.0071 80.7021 32.2591 80.8743C32.5107 81.0462 32.7681 81.1251 32.831 81.0494C32.9983 80.8473 31.9143 79.8727 31.5593 79.9061C31.3925 79.9218 31.172 79.7651 31.0696 79.5578C30.8112 79.0362 30.35 79.128 30.5079 79.6698ZM45.9305 79.2311C45.9809 79.7699 47.0876 80.954 47.3005 80.697C47.364 80.6203 47.0706 80.1394 46.6484 79.6282C46.0462 78.8989 45.8915 78.8132 45.9305 79.2311ZM75.0557 77.1137C74.9839 77.2588 74.7268 77.3222 74.4844 77.2543C74.1899 77.1721 74.1158 77.2264 74.2607 77.4184C74.3802 77.5765 74.7709 77.678 75.1293 77.6443C75.4876 77.6105 75.7034 77.4803 75.6086 77.3548C75.5141 77.2296 75.6974 77.0509 76.0161 76.958C76.5285 76.8085 76.5141 76.7925 75.8911 76.8194C75.5036 76.8361 75.1276 76.9686 75.0557 77.1137ZM39.7588 80.7119C39.7722 80.8553 39.7316 80.9774 39.6682 80.9834C39.6049 80.9894 39.4699 80.8837 39.3679 80.7487C39.2658 80.6137 39.3067 80.4915 39.4584 80.4772C39.6101 80.4629 39.7454 80.5685 39.7588 80.7119ZM41.2694 81.596C41.2073 81.6711 40.9342 81.54 40.6625 81.305C40.1907 80.8966 40.1956 80.8903 40.7756 81.1684C41.1093 81.3287 41.3316 81.521 41.2694 81.596ZM72.6006 78.9088C72.1703 79.1258 72.2162 79.1811 72.9814 79.3699C73.6555 79.536 73.8049 79.517 73.6447 79.2856C73.4937 79.0679 73.5411 79.0664 73.819 79.2798C74.0289 79.4409 74.3813 79.5461 74.6026 79.5139C74.9103 79.4692 74.9182 79.43 74.6362 79.3474C74.3251 79.2563 74.3197 79.1992 74.6019 78.9809C74.8493 78.7896 74.7893 78.7353 74.3707 78.7716C74.0596 78.7987 73.6442 78.785 73.4477 78.7414C73.2508 78.6976 72.8698 78.773 72.6006 78.9088ZM38.8591 82.3371C38.891 82.6784 39.867 83.115 40.3027 82.983C40.4771 82.9303 40.9076 83.0128 41.2598 83.1664C41.6118 83.3199 41.9634 83.3689 42.0411 83.275C42.2767 82.9907 41.6296 82.6109 40.6789 82.4761C40.1848 82.4058 39.5673 82.2828 39.3066 82.2029C39.0286 82.1176 38.8437 82.1731 38.8591 82.3371ZM32.1058 85.1678C33.0498 85.6861 34.0771 86.3084 34.3889 86.5501C34.7008 86.7922 35.2965 87.1518 35.7126 87.3499C36.1286 87.5476 36.4778 87.8014 36.4884 87.914C36.4989 88.0264 36.6834 88.1018 36.8984 88.0816C37.1134 88.0613 37.3003 88.1621 37.3137 88.3054C37.3272 88.4488 37.514 88.5495 37.7291 88.5293C37.9441 88.509 38.131 88.6098 38.1444 88.7532C38.1578 88.8965 38.2837 89.003 38.4244 88.9898C38.5649 88.9765 39.3347 89.3017 40.1353 89.7125C41.7371 90.5347 44.4737 91.5758 44.9215 91.5337C45.0784 91.5189 45.2993 91.6291 45.4121 91.7786C45.5528 91.9647 45.4169 92.0098 44.9809 91.9212C44.2958 91.7822 40.3341 90.3178 39.4396 89.8732C37.3966 88.857 34.6186 87.308 34.0256 86.8542C33.6379 86.5575 33.1826 86.3277 33.0137 86.3436C32.5328 86.3888 30.3764 87.6104 29.4323 88.3723C28.4267 89.1838 26.0182 90.3297 25.7628 90.1179C25.5246 89.9204 25.9502 88.089 26.435 87.226C26.6494 86.8442 26.8809 86.2899 26.9495 85.9942C27.0181 85.6984 27.6455 84.974 28.3442 84.3844C29.5551 83.3621 29.6321 83.3335 30.002 83.7689C30.2153 84.0197 31.162 84.6492 32.1058 85.1678ZM34.2443 83.5979C34.2577 83.7413 34.2171 83.8635 34.1538 83.8694C34.0904 83.8754 33.9554 83.7698 33.8534 83.6347C33.7514 83.4997 33.7923 83.3775 33.9439 83.3632C34.0956 83.349 34.2309 83.4546 34.2443 83.5979ZM70.7665 80.1373C70.2554 80.3211 70.3553 80.3856 71.4336 80.5681C72.1311 80.686 72.7374 80.7396 72.7809 80.6871C72.8243 80.6344 72.5241 80.4407 72.1135 80.2561C71.6837 80.063 71.1124 80.0127 70.7665 80.1373ZM66.9649 80.728C67.0632 80.8095 67.6488 80.959 68.2656 81.0602C68.8827 81.1615 69.689 81.3046 70.0574 81.3783C70.5638 81.4792 70.6256 81.4542 70.3107 81.275C69.9405 81.0642 69.9376 81.0327 70.284 80.9893C70.6304 80.9459 70.628 80.9201 70.2622 80.7563C70.0358 80.6548 69.5498 80.5188 69.1822 80.454C68.6719 80.3643 68.6125 80.3925 68.9305 80.5734C69.437 80.8616 69.1478 80.8985 67.8058 80.7175C67.2449 80.6417 66.8665 80.6463 66.9649 80.728ZM27.9412 85.723C26.5762 87.3892 25.8361 88.9923 26.2667 89.3491C26.466 89.5141 26.7677 89.4928 27.1723 89.2851L27.7795 88.9736L27.1256 89.0102C26.508 89.0447 26.4966 89.0239 26.9197 88.6359C27.1662 88.41 27.2806 88.1097 27.1741 87.9687C26.9416 87.6609 28.3684 85.6833 28.7036 85.8495C28.8327 85.9134 28.8518 85.7606 28.7458 85.51C28.5614 85.0737 28.5716 85.0725 28.978 85.4821C29.3571 85.864 29.4157 85.8637 29.5233 85.4799C29.5909 85.2382 29.7838 85.1193 29.9638 85.2083C30.1645 85.3077 30.2032 85.2597 30.0669 85.0795C29.9475 84.9214 29.7282 84.8842 29.5796 84.9965C29.4058 85.1281 29.3542 85.0406 29.4352 84.7513C29.6599 83.9491 29.0916 84.3185 27.9412 85.723ZM60.6958 81.7835C61.1099 81.9605 61.4549 82.1691 61.4622 82.2476C61.4696 82.3263 61.088 82.3596 60.6147 82.3221L59.7538 82.2541L60.5633 82.4761C61.0086 82.5982 61.6192 82.835 61.9201 83.0026C62.2208 83.1702 62.587 83.2911 62.734 83.2715C62.8807 83.2519 62.6581 83.0898 62.2394 82.911C61.821 82.7324 61.5328 82.4766 61.5991 82.3425C61.7294 82.0799 60.649 81.3677 60.2094 81.4265C60.0627 81.4461 60.2817 81.6066 60.6958 81.7835ZM62.4411 81.4688C62.7473 81.6282 62.7658 81.6941 62.5118 81.7212C62.229 81.7509 62.2353 81.8098 62.5473 82.0505C63.0029 82.402 64.5696 83.1092 64.8372 83.084C65.119 83.0574 63.7821 82.2542 63.1549 82.0732C62.8082 81.973 62.7279 81.8623 62.9304 81.7641C63.3562 81.5577 63.0171 81.1505 62.4669 81.2073C62.0875 81.2467 62.0837 81.2828 62.4411 81.4688ZM66.1282 81.0903C65.8899 81.2747 66.131 81.469 66.9998 81.7932C67.6604 82.0397 68.3096 82.2226 68.4426 82.1999C68.5757 82.1773 68.1569 81.9814 67.5125 81.7649C66.868 81.5484 66.403 81.2456 66.4791 81.092C66.6465 80.7543 66.5629 80.7538 66.1282 81.0903ZM58.2954 82.1221C58.6638 82.3141 58.6666 82.3433 58.32 82.3854C58.1055 82.4117 58.5302 82.6733 59.2639 82.9669C59.9975 83.2604 60.6411 83.4483 60.6943 83.3844C60.7472 83.3203 60.2641 83.066 59.6205 82.8194C58.9767 82.5729 58.6259 82.3524 58.8407 82.3298C59.1877 82.2934 59.1851 82.265 58.8166 82.073C58.5886 81.9544 58.2848 81.8683 58.1415 81.8818C57.9981 81.8953 58.0674 82.0034 58.2954 82.1221ZM63.8857 81.5768C64.0823 81.8373 66.27 82.745 66.3804 82.6121C66.4238 82.5593 65.8442 82.2573 65.0924 81.9405C64.3405 81.6239 63.7975 81.4602 63.8857 81.5768ZM33.717 84.8225C34.0148 85.007 34.376 85.1466 34.5193 85.1331C34.6627 85.1196 34.5361 84.9579 34.2383 84.7735C33.9403 84.5893 33.5793 84.4495 33.436 84.463C33.2926 84.4765 33.419 84.6384 33.717 84.8225ZM42.3839 83.9578C42.8564 84.4329 44.4406 84.8216 45.0512 84.6118C45.3836 84.4977 45.2504 84.3742 44.5339 84.1327C44.0029 83.9539 43.2152 83.7541 42.7834 83.6885C42.082 83.5823 42.0392 83.611 42.3839 83.9578ZM54.3042 83.0223C54.761 83.2675 55.3099 83.4441 55.5241 83.4147C55.7824 83.3794 55.731 83.3024 55.3713 83.1864C55.0511 83.083 54.9795 82.9898 55.1967 82.9583C55.8392 82.8654 55.2406 82.6099 54.3403 82.5932L53.4738 82.5767L54.3042 83.0223ZM56.1298 82.5138C55.711 82.6642 55.7499 82.7371 56.4483 83.1089C56.8861 83.342 57.4199 83.515 57.6348 83.4934C57.9821 83.4586 57.9794 83.4305 57.611 83.2385C57.2614 83.0563 57.2553 83.0164 57.5716 82.9832C57.8406 82.9549 57.7936 82.8492 57.4052 82.6088C57.1074 82.4244 56.8057 82.289 56.7352 82.308C56.6647 82.3267 56.3923 82.4194 56.1298 82.5138ZM30.4553 85.2541C30.4679 85.3891 30.6009 85.5601 30.7509 85.6344C30.907 85.7117 30.941 85.6031 30.8304 85.3794C30.6149 84.9443 30.4203 84.8792 30.4553 85.2541ZM57.1713 82.7539C57.2733 82.889 57.2395 83.0105 57.0961 83.024C56.9528 83.0375 56.7521 82.938 56.65 82.803C56.548 82.668 56.5819 82.5465 56.7252 82.533C56.8686 82.5195 57.0693 82.6189 57.1713 82.7539ZM52.2084 83.8908C52.5644 84.2415 52.6887 84.6487 52.6436 85.3143C52.5864 86.1591 52.6955 86.3334 53.8014 87.1655C56.2633 89.0178 57.0125 89.7722 57.9153 91.3092C58.4222 92.1727 58.8943 92.8098 58.9645 92.7251C59.0347 92.6404 58.581 91.7422 57.9564 90.7289C57.0762 89.3004 56.3819 88.5651 54.8669 87.4562C53.0662 86.1384 52.9171 85.9589 52.9704 85.1736C53.0158 84.5027 52.8879 84.2234 52.3691 83.8604L51.7103 83.3996L52.2084 83.8908ZM28.2291 86.6513C28.0075 86.9756 28.0467 87.1755 28.4181 87.6126C28.8143 88.0786 28.8802 88.0921 28.8435 87.6995C28.8196 87.4443 28.9241 87.2967 29.0758 87.3718C29.2321 87.4494 29.3245 87.2195 29.2891 86.8413C29.2198 86.0999 28.6727 86.0018 28.2291 86.6513ZM50.8762 85.0834C50.7978 85.1781 50.5737 85.2086 50.3788 85.151C50.163 85.0874 50.219 85.0198 50.5215 84.9787C50.7951 84.9416 50.9547 84.9887 50.8762 85.0834ZM27.5778 87.7895C27.6515 88.0403 27.874 88.2834 28.0731 88.3293C28.3043 88.383 28.3864 88.2488 28.3012 87.957C28.2276 87.7062 28.005 87.4632 27.8059 87.4172C27.5748 87.3635 27.4927 87.4977 27.5778 87.7895ZM40.6787 86.4247C40.5526 86.6793 41.4959 87.0688 42.9763 87.3738C43.4486 87.4711 43.5727 87.4171 43.4605 87.1625C43.2583 86.7032 40.8563 86.0661 40.6787 86.4247ZM52.5502 88.1643C52.9204 88.3751 52.9235 88.4082 52.5781 88.4633C52.1489 88.5319 53.4347 88.9967 54.483 89.1517C55.0378 89.2339 55.0125 89.1997 54.3324 88.9474C53.883 88.7806 53.6904 88.6189 53.9044 88.588C54.2502 88.5378 54.2477 88.5109 53.8819 88.3471C53.6555 88.2456 53.1695 88.1097 52.8019 88.0449C52.2916 87.9551 52.2322 87.9833 52.5502 88.1643ZM53.5631 88.512C53.4847 88.6067 53.2607 88.6373 53.0657 88.5796C52.8499 88.5161 52.9059 88.4485 53.2084 88.4074C53.4821 88.3703 53.6416 88.4173 53.5631 88.512ZM43.9812 90.3037C44.3007 90.4001 44.6514 90.5969 44.7607 90.7415C44.8696 90.8859 45.1349 90.9876 45.35 90.9674C45.565 90.9471 45.6695 90.8361 45.5822 90.7204C45.4949 90.605 45.747 90.5292 46.1425 90.5522C46.6633 90.5826 46.7477 90.5378 46.4481 90.3896C46.2206 90.2771 45.4418 90.1725 44.7173 90.1568C43.8453 90.1382 43.5964 90.1876 43.9812 90.3037ZM59.2724 89.0563C58.8954 89.233 58.9335 90.1157 59.3263 90.3104C59.7503 90.5203 60.6159 90.0679 60.5775 89.6566C60.537 89.2239 59.7185 88.8473 59.2724 89.0563ZM53.9331 90.3001C54.3815 90.4567 54.924 90.5645 55.1386 90.5398C55.3532 90.5151 55.1035 90.3753 54.5838 90.2294C53.3509 89.8832 52.8834 89.934 53.9331 90.3001ZM46.774 91.0634C46.8251 91.61 48.3812 92.1231 48.4031 91.6003C48.4092 91.4551 48.0402 91.2232 47.5832 91.085C47.1265 90.9469 46.7622 90.937 46.774 91.0634ZM63.3009 89.5903C63.2113 89.771 63.2806 89.9519 63.4545 89.9921C63.6284 90.0325 63.7816 90.1809 63.7948 90.3222C63.808 90.4632 63.5772 90.5262 63.282 90.4622C62.6379 90.3225 62.6151 90.5453 63.2222 91.0483C63.7916 91.5201 64.1804 91.0995 64.1978 89.9923C64.2066 89.4319 64.0984 89.202 63.8372 89.2266C63.6318 89.2459 63.3905 89.4096 63.3009 89.5903ZM60.829 90.1841C60.6544 90.3949 61.2845 91.8337 61.5407 91.8096C61.8045 91.7848 62.2947 91.1501 62.2682 90.8675C62.2558 90.7351 62.0823 90.7909 61.8823 90.9911C61.5748 91.2994 61.5209 91.2634 61.5316 90.7564C61.5442 90.177 61.1208 89.8321 60.829 90.1841ZM59.9913 91.824C60.0115 92.0391 60.2038 92.1985 60.4189 92.1782C60.6339 92.158 60.7933 91.9654 60.7732 91.7504C60.7531 91.5353 60.5607 91.3759 60.3457 91.3962C60.1307 91.4164 59.9712 91.6089 59.9913 91.824ZM56.4311 94.3688C55.9764 94.598 55.9871 94.6225 56.5838 94.7199C56.9365 94.7777 57.2743 94.7659 57.3341 94.6934C57.3939 94.6213 57.2766 94.5761 57.0734 94.5931C56.7689 94.6183 56.7685 94.5726 57.071 94.3343C57.5012 93.9953 57.1329 94.015 56.4311 94.3688Z" fill="white" stroke="white" stroke-width="50" mask="url(#path-3-inside-1_4_379)"/>
</svg>
