<svg width="50" height="50" viewBox="0 0 50 50" fill="none" xmlns="http://www.w3.org/2000/svg">
<path d="M24.5964 0.115119C24.3773 0.211491 1.24594 12.4051 0.432801 12.8565C0.340529 12.9123 0.202121 13.034 0.127151 13.1304C0.011811 13.2775 -0.00548994 13.3536 0.017578 13.5818C0.0348789 13.8253 0.0637138 13.876 0.271325 14.0383C0.398199 14.1398 3.5412 15.7832 7.25514 17.6954L14.014 21.1699V22.8031V24.4415L13.4835 24.1523C13.1894 23.9951 10.3001 22.4633 7.06483 20.7438L1.18251 17.6193H0.85379C0.473169 17.6193 0.259791 17.7258 0.104083 18.0048C0.00604402 18.1671 0.00027704 18.7099 0.00027704 27.2464C0.00027704 37.2031 -0.0227909 36.5285 0.352063 36.7821C0.553907 36.914 24.2677 49.7467 24.6253 49.9141C25.0117 50.0967 25.1674 50.046 26.7072 49.1837C27.4799 48.7475 32.9182 45.7194 38.7832 42.4478C44.654 39.1762 49.5386 36.4474 49.6482 36.3764C50.3287 35.9249 49.9193 34.9815 49.0773 35.0525C48.8351 35.0728 48.2526 35.3822 43.9966 37.756C41.3495 39.232 38.6275 40.7486 37.947 41.129L36.7071 41.8239L36.6898 36.3155C36.6783 31.9534 36.6956 30.7969 36.7475 30.7513C36.7878 30.7209 38.466 29.8839 40.4729 28.8898L44.1177 27.0891V29.7926V32.5012L42.6702 33.262C41.8743 33.683 41.2111 34.0279 41.1938 34.0279C41.1765 34.0279 41.1765 33.9519 41.1996 33.8606C41.2169 33.7743 41.2342 33.262 41.24 32.7345C41.2515 31.9128 41.24 31.7454 41.1592 31.6085C40.917 31.2027 40.2365 31.0962 39.8674 31.3955C39.5791 31.6338 39.5733 31.6694 39.5041 33.6526C39.4349 35.5141 39.4349 35.5344 39.556 35.7373C39.7117 36.0061 40.0981 36.1836 40.4153 36.1329C40.5364 36.1126 41.7071 35.5293 43.2526 34.7178C44.6944 33.9569 46.6667 32.9273 47.6355 32.4302C49.8616 31.2839 49.752 31.3498 49.8847 31.1063C50 30.9035 50 30.7868 50 22.1285C50 13.6884 49.9942 13.3485 49.8904 13.1811C49.7232 12.8971 49.4521 12.7601 49.1061 12.7855C48.8466 12.8058 48.2584 13.0949 43.2353 15.6868L37.6529 18.5678L36.488 17.8932C35.8478 17.528 35.0578 17.0715 34.7348 16.8889C34.4061 16.7063 34.1408 16.544 34.1408 16.5288C34.1408 16.5136 34.3311 16.4071 34.5618 16.2904C36.7359 15.1948 44.1869 11.3349 44.3311 11.2283C44.6828 10.9747 44.7232 10.5081 44.4176 10.2038C44.3311 10.1125 42.1973 8.95599 39.4291 7.49012C36.7648 6.09019 34.5099 4.89314 34.4119 4.84242C32.4453 3.7874 25.4384 0.120191 25.2885 0.0694693C25.0232 -0.031975 24.9309 -0.0269028 24.5964 0.115119ZM28.7314 3.6048C31.4995 5.07067 32.3819 5.56268 32.3357 5.60325C32.2954 5.63876 29.4003 7.23143 25.894 9.14873C22.3877 11.066 19.435 12.7094 19.3254 12.8007C19.1582 12.9427 19.1236 13.0138 19.1063 13.242C19.0659 13.7239 19.4408 14.0637 19.9829 14.0282C20.2193 14.013 20.375 13.9521 20.8191 13.7036C21.119 13.5362 22.2954 12.892 23.4258 12.2732C25.1962 11.3095 25.5076 11.1573 25.6057 11.203C25.9171 11.3501 28.2931 12.7551 28.2989 12.8007C28.3104 12.8261 27.3012 13.4094 26.0613 14.0941C24.5791 14.9158 23.7775 15.3926 23.7026 15.489C23.5469 15.6919 23.5469 16.0824 23.7026 16.3006C23.8467 16.5034 24.1293 16.6302 24.435 16.6302C24.7176 16.6302 24.0371 16.9904 32.0532 12.5674C35.6864 10.5588 38.6852 8.92048 38.7198 8.92048C38.8294 8.92048 42.0012 10.6197 41.9897 10.6704C41.9839 10.6958 41.3092 11.066 40.496 11.487C26.7533 18.5881 25.0001 19.4808 24.8963 19.42C24.8387 19.3895 22.2032 18.0048 19.0428 16.3411C15.8825 14.6774 13.247 13.2927 13.1951 13.2572C13.1144 13.2116 14.0429 12.7044 19.1063 10.0364C22.4108 8.2966 25.2251 6.80537 25.3635 6.72421C25.6749 6.54161 25.8364 6.31336 25.8364 6.06482C25.8364 5.61847 25.4961 5.31921 24.9944 5.31921C24.7291 5.31921 24.5503 5.40544 21.6726 6.92203L18.6392 8.52485L16.961 7.65243L15.2828 6.77493L20.1155 4.22361C22.7683 2.81861 24.9713 1.66722 25.0001 1.66722C25.0347 1.66722 26.7072 2.53964 28.7314 3.6048ZM35.571 7.22129C36.3669 7.63721 37.0243 7.99734 37.0243 8.01255C37.0243 8.04299 30.1616 11.8471 30.0289 11.8928C29.9886 11.9029 29.3196 11.5428 28.5353 11.0863L27.1051 10.2595L30.5826 8.35239C32.4914 7.30244 34.0716 6.44524 34.0889 6.45031C34.1062 6.45539 34.7752 6.8003 35.571 7.22129ZM15.2828 8.52485C16.1997 9.00671 16.9379 9.40741 16.9264 9.41756C16.9148 9.43277 15.5308 10.1632 13.8583 11.0457C10.9287 12.5877 10.8076 12.6587 10.6807 12.8768C10.525 13.1406 10.5423 13.4094 10.7326 13.6427C10.8018 13.7289 11.54 14.1499 12.6011 14.7028C13.57 15.21 14.3601 15.6462 14.3601 15.6665C14.3601 15.7172 10.6231 17.6599 10.5596 17.6345C10.5308 17.6295 8.71995 16.6962 6.5285 15.5651C4.1698 14.3477 2.57235 13.4956 2.61272 13.4753C2.65309 13.455 5.13289 12.1363 8.13172 10.5487C11.1306 8.96106 13.5873 7.6575 13.5988 7.6575C13.6104 7.65243 14.3658 8.04299 15.2828 8.52485ZM48.2295 17.9389C48.2007 17.9439 44.135 20.0286 39.1869 22.5597C32.1743 26.1508 30.1616 27.2058 30.0635 27.3326C29.9309 27.4949 29.9309 27.5304 29.9309 28.9304V30.3607L27.924 31.5324C26.8225 32.1816 25.8998 32.7092 25.8767 32.7092C25.8537 32.7092 25.8364 31.2991 25.8364 29.5695C25.8364 27.1196 25.8537 26.4196 25.9113 26.379C25.9459 26.3486 30.9863 23.7466 37.1108 20.5916L48.2411 14.855L48.2584 16.3868C48.2641 17.2338 48.2526 17.9287 48.2295 17.9389ZM20.2943 18.7555C22.5665 19.9475 24.5042 20.967 24.608 21.0126C24.8444 21.1192 25.1558 21.1192 25.3923 21.0126C25.4961 20.967 27.1051 20.1402 28.9678 19.1765C30.8363 18.2178 32.3992 17.4266 32.4453 17.4215C32.5606 17.4114 35.9805 19.3845 35.9343 19.4352C35.8594 19.5011 25.0636 25.0653 25.0001 25.0653C24.9598 25.0603 12.3762 18.5983 12.3012 18.5374C12.2724 18.5171 16.0094 16.5846 16.0844 16.5846C16.1248 16.5795 18.0221 17.5585 20.2943 18.7555ZM13.3508 25.8414L19.5792 29.1485L19.5907 34.5808C19.6022 37.9488 19.5849 40.0131 19.5503 40.0131C19.5042 40.0131 17.4396 38.9581 11.5054 35.8996L9.65997 34.946L9.64267 33.6475C9.63114 32.5468 9.64267 32.349 9.71187 32.3693C9.75224 32.3845 11.1709 33.1302 12.8491 34.0229C14.9252 35.1235 15.9806 35.6561 16.1305 35.6764C16.4246 35.717 16.8226 35.5395 16.9667 35.296C17.0648 35.1337 17.0705 34.946 17.0705 32.7041V30.2897L16.9379 30.1173C16.8456 29.9955 16.4765 29.7673 15.6576 29.3311C15.0233 28.9912 12.5838 27.6927 10.2367 26.445C7.88951 25.1921 5.85376 24.1371 5.72112 24.0965C5.49044 24.0255 5.44431 24.0306 5.20209 24.1168C5.03485 24.1777 4.88491 24.2842 4.80417 24.3857C4.67153 24.553 4.67153 24.5885 4.67153 25.9276C4.67153 27.0587 4.66 27.287 4.59079 27.2667C4.55042 27.2515 3.88722 26.8913 3.12021 26.4653L1.73037 25.6943V22.6865V19.6786L4.42932 21.109C5.91143 21.8952 9.92525 24.0255 13.3508 25.8414ZM48.2699 25.0146V30.3607L47.0761 30.9745L45.8766 31.5882L45.8478 28.555C45.8189 25.745 45.8132 25.5168 45.7151 25.39C45.5364 25.1516 45.2826 25.04 44.9539 25.0653C44.7001 25.0806 44.1234 25.3544 40.0231 27.3833C37.4684 28.6463 35.3346 29.7166 35.2711 29.7622C35.2135 29.8079 35.127 29.9093 35.0693 29.9955C34.9885 30.1325 34.977 30.7259 34.9482 36.4829L34.9193 42.8181L30.3923 45.344L25.8652 47.8649L25.8479 41.266C25.8421 37.6343 25.8479 34.6366 25.8594 34.6011C25.8883 34.5453 29.8329 32.2019 29.9021 32.2019C29.9194 32.2019 29.9309 34.1345 29.9309 36.4981C29.9309 40.703 29.9367 40.8044 30.0462 40.9667C30.3865 41.4537 31.165 41.4486 31.4995 40.9464C31.5976 40.7993 31.6033 40.4443 31.6149 34.4844L31.6322 28.1746L39.9309 23.9241C44.4983 21.5858 48.2411 19.6736 48.2526 19.6736C48.2641 19.6736 48.2699 22.0778 48.2699 25.0146ZM19.8964 24.198C22.0705 25.3189 23.9159 26.2776 24.0082 26.3283L24.1639 26.4247V32.1056C24.1639 35.23 24.1409 37.7763 24.1178 37.7662C24.0947 37.756 23.4488 37.4314 22.6818 37.051L21.2804 36.3561V32.4454C21.2804 29.0521 21.2689 28.5195 21.1939 28.3775C21.0901 28.1797 21.0844 28.1797 18.0855 26.5921L15.773 25.3697L15.7557 23.7313C15.7441 22.1995 15.7499 22.0981 15.8422 22.1285C15.8998 22.1488 17.7222 23.0821 19.8964 24.198ZM10.9056 28.5601L15.3981 30.9542V32.2679C15.3981 33.4294 15.3866 33.5765 15.3116 33.5511C15.2597 33.5359 13.9045 32.8207 12.2955 31.9686C10.6865 31.1114 9.25628 30.3658 9.11787 30.3151C8.82952 30.1984 8.54694 30.2238 8.2932 30.3861C7.96448 30.589 7.95871 30.6296 7.95871 32.4048C7.95871 33.2975 7.93564 34.0279 7.91258 34.0279C7.88951 34.0279 7.1571 33.6627 6.28629 33.2113C4.30821 32.1918 4.32551 32.2019 4.01986 32.2019C3.67384 32.2019 3.40856 32.3642 3.26439 32.6686C3.16635 32.8765 3.16058 32.9374 3.22402 33.1099C3.25862 33.2265 3.35089 33.3736 3.4201 33.4396C3.58734 33.6019 20.029 42.0471 20.2943 42.108C20.5769 42.1739 20.9979 42.0167 21.1651 41.7783C21.2747 41.621 21.2804 41.5297 21.2804 39.8711C21.2804 38.4357 21.292 38.1314 21.3554 38.1466C21.4015 38.1567 22.0474 38.4661 22.7972 38.8415L24.1639 39.5262V43.7006C24.1639 45.9984 24.1524 47.8751 24.1351 47.8751C24.1236 47.8751 22.0128 46.744 19.4523 45.3542C11.5515 41.0834 3.29899 36.6249 2.49738 36.1887L1.73037 35.7778V31.6288C1.73037 28.3217 1.74767 27.4848 1.80534 27.5152C1.83994 27.5406 2.62425 27.9717 3.5412 28.484C5.17326 29.3869 5.21939 29.4122 5.51928 29.4122C5.80186 29.4122 5.85376 29.3919 6.07291 29.2144L6.31512 29.0115L6.33242 27.5913C6.34396 26.8051 6.36126 26.166 6.37856 26.166C6.39586 26.166 8.4316 27.2413 10.9056 28.5601Z" fill="#F3CF28"/>
</svg>
