<svg width="30" height="30" viewBox="0 0 30 30" fill="none" xmlns="http://www.w3.org/2000/svg">
<path d="M2.792 30C2.042 30 1.389 29.7223 0.833 29.167C0.277667 28.611 0 27.958 0 27.208V2.792C0 2.042 0.277667 1.389 0.833 0.833C1.389 0.277667 2.042 0 2.792 0H27.208C27.958 0 28.611 0.277667 29.167 0.833C29.7223 1.389 30 2.042 30 2.792V27.208C30 27.958 29.7223 28.611 29.167 29.167C28.611 29.7223 27.958 30 27.208 30H2.792ZM2.792 27.208H27.208V21.792H21.5C20.75 22.8753 19.7987 23.7153 18.646 24.312C17.4933 24.9093 16.278 25.208 15 25.208C13.722 25.208 12.5067 24.9093 11.354 24.312C10.2013 23.7153 9.25 22.8753 8.5 21.792H2.792V27.208ZM15 22.417C16.1113 22.417 17.1183 22.0973 18.021 21.458C18.9237 20.8193 19.639 20 20.167 19H27.208V2.792H2.792V19H9.833C10.361 20 11.0763 20.8193 11.979 21.458C12.8817 22.0973 13.8887 22.417 15 22.417ZM15 17.708L8.542 11.25L10.5 9.25L13.625 12.375V4.792H16.375V12.375L19.5 9.25L21.458 11.25L15 17.708Z" fill="#BFDBD7"/>
</svg>
