<svg width="389" height="301" viewBox="0 0 389 301" fill="none" xmlns="http://www.w3.org/2000/svg">
<path d="M172.465 170.82H169.209C169.247 171.607 169.457 172.229 169.837 172.686C170.129 173.037 170.481 173.213 170.891 173.213C171.145 173.213 171.376 173.143 171.583 173.003C171.79 172.86 172.013 172.604 172.25 172.235L172.465 172.375C172.144 173.031 171.788 173.496 171.399 173.771C171.01 174.042 170.559 174.178 170.047 174.178C169.167 174.178 168.5 173.839 168.047 173.162C167.683 172.616 167.501 171.939 167.501 171.131C167.501 170.141 167.768 169.354 168.301 168.77C168.839 168.181 169.467 167.887 170.187 167.887C170.787 167.887 171.308 168.135 171.748 168.63C172.192 169.121 172.431 169.851 172.465 170.82ZM170.904 170.395C170.904 169.713 170.866 169.246 170.79 168.992C170.718 168.738 170.603 168.545 170.447 168.414C170.358 168.338 170.239 168.3 170.091 168.3C169.871 168.3 169.691 168.408 169.552 168.624C169.302 169 169.177 169.516 169.177 170.172V170.395H170.904ZM177.851 173.378C177.593 173.649 177.351 173.839 177.127 173.949C176.831 174.102 176.522 174.178 176.2 174.178C175.456 174.178 174.867 173.846 174.436 173.181C174.093 172.652 173.921 172.02 173.921 171.283C173.921 170.67 174.051 170.094 174.309 169.557C174.571 169.015 174.929 168.602 175.381 168.319C175.838 168.031 176.321 167.887 176.829 167.887C177.167 167.887 177.468 167.944 177.73 168.059C177.997 168.173 178.225 168.346 178.416 168.579L179.412 167.887H179.628V175.574C179.628 175.964 179.662 176.207 179.73 176.304C179.84 176.461 180.062 176.541 180.396 176.545V176.78H176.968V176.545C177.231 176.545 177.421 176.516 177.54 176.457C177.658 176.397 177.739 176.319 177.781 176.222C177.827 176.124 177.851 175.925 177.851 175.625V173.378ZM177.851 172.8V170.356C177.851 169.675 177.813 169.224 177.736 169.004C177.664 168.784 177.529 168.594 177.33 168.433C177.229 168.353 177.1 168.312 176.943 168.312C176.621 168.312 176.372 168.454 176.194 168.738C175.915 169.174 175.775 169.984 175.775 171.169C175.775 172.079 175.896 172.718 176.137 173.086C176.302 173.336 176.516 173.46 176.778 173.46C176.93 173.46 177.102 173.408 177.292 173.302C177.487 173.196 177.673 173.029 177.851 172.8ZM187.483 168.065V172.711C187.483 173.164 187.525 173.448 187.61 173.562C187.694 173.672 187.866 173.742 188.124 173.771V174H185.705V173.207C185.422 173.545 185.138 173.793 184.855 173.949C184.571 174.102 184.254 174.178 183.903 174.178C183.568 174.178 183.27 174.076 183.008 173.873C182.749 173.666 182.576 173.424 182.487 173.149C182.398 172.874 182.354 172.394 182.354 171.708V169.354C182.354 168.905 182.311 168.626 182.227 168.516C182.146 168.406 181.975 168.334 181.713 168.3V168.065H184.131V172.121C184.131 172.544 184.15 172.817 184.188 172.94C184.231 173.063 184.294 173.156 184.379 173.219C184.467 173.283 184.569 173.314 184.683 173.314C184.836 173.314 184.973 173.274 185.096 173.194C185.265 173.084 185.468 172.862 185.705 172.527V169.354C185.705 168.905 185.663 168.626 185.578 168.516C185.498 168.406 185.327 168.334 185.064 168.3V168.065H187.483ZM191.065 165.189C191.34 165.189 191.573 165.287 191.763 165.481C191.954 165.672 192.049 165.903 192.049 166.173C192.049 166.444 191.952 166.675 191.757 166.865C191.567 167.056 191.336 167.151 191.065 167.151C190.794 167.151 190.564 167.056 190.373 166.865C190.183 166.675 190.088 166.444 190.088 166.173C190.088 165.903 190.183 165.672 190.373 165.481C190.564 165.287 190.794 165.189 191.065 165.189ZM191.954 168.065V172.769C191.954 173.188 192.003 173.456 192.1 173.575C192.197 173.689 192.388 173.755 192.671 173.771V174H189.466V173.771C189.728 173.763 189.923 173.687 190.05 173.543C190.134 173.446 190.177 173.188 190.177 172.769V169.303C190.177 168.884 190.128 168.617 190.031 168.503C189.933 168.384 189.745 168.317 189.466 168.3V168.065H191.954ZM196.203 173.397V175.606C196.203 175.911 196.226 176.118 196.273 176.228C196.324 176.338 196.4 176.418 196.501 176.469C196.603 176.52 196.802 176.545 197.098 176.545V176.78H193.715V176.545C193.977 176.537 194.172 176.463 194.299 176.323C194.383 176.226 194.426 175.974 194.426 175.568V169.303C194.426 168.884 194.377 168.617 194.28 168.503C194.182 168.384 193.994 168.317 193.715 168.3V168.065H196.203V168.846C196.41 168.541 196.622 168.321 196.838 168.186C197.147 167.987 197.483 167.887 197.847 167.887C198.283 167.887 198.679 168.025 199.034 168.3C199.394 168.575 199.667 168.956 199.853 169.442C200.039 169.925 200.132 170.445 200.132 171.004C200.132 171.605 200.035 172.155 199.84 172.654C199.65 173.149 199.371 173.528 199.002 173.791C198.638 174.049 198.232 174.178 197.784 174.178C197.458 174.178 197.153 174.106 196.87 173.962C196.658 173.852 196.436 173.664 196.203 173.397ZM196.203 172.756C196.567 173.272 196.956 173.53 197.371 173.53C197.6 173.53 197.788 173.41 197.936 173.168C198.156 172.813 198.266 172.136 198.266 171.137C198.266 170.113 198.145 169.413 197.904 169.036C197.743 168.786 197.528 168.662 197.257 168.662C196.829 168.662 196.478 168.971 196.203 169.588V172.756ZM204.254 168.065V168.846C204.58 168.49 204.881 168.243 205.156 168.103C205.435 167.959 205.74 167.887 206.07 167.887C206.451 167.887 206.77 167.976 207.028 168.154C207.286 168.332 207.485 168.602 207.625 168.966C207.964 168.585 208.287 168.31 208.596 168.141C208.909 167.972 209.235 167.887 209.574 167.887C209.984 167.887 210.31 167.982 210.551 168.173C210.797 168.359 210.966 168.598 211.059 168.89C211.156 169.178 211.205 169.639 211.205 170.274V172.705C211.205 173.162 211.245 173.446 211.326 173.556C211.41 173.666 211.584 173.738 211.846 173.771V174H208.78V173.771C209.021 173.75 209.199 173.657 209.313 173.492C209.39 173.378 209.428 173.116 209.428 172.705V170.153C209.428 169.624 209.407 169.288 209.364 169.144C209.322 169 209.254 168.894 209.161 168.827C209.072 168.755 208.966 168.719 208.844 168.719C208.662 168.719 208.478 168.786 208.292 168.922C208.105 169.053 207.917 169.252 207.727 169.519V172.705C207.727 173.132 207.763 173.401 207.834 173.511C207.932 173.668 208.118 173.755 208.393 173.771V174H205.321V173.771C205.486 173.763 205.615 173.723 205.708 173.651C205.805 173.575 205.869 173.486 205.898 173.384C205.932 173.278 205.949 173.052 205.949 172.705V170.153C205.949 169.616 205.928 169.279 205.886 169.144C205.843 169.009 205.771 168.903 205.67 168.827C205.573 168.75 205.467 168.712 205.353 168.712C205.183 168.712 205.029 168.757 204.889 168.846C204.69 168.977 204.479 169.201 204.254 169.519V172.705C204.254 173.124 204.295 173.401 204.375 173.537C204.46 173.668 204.633 173.746 204.896 173.771V174H201.836V173.771C202.086 173.746 202.263 173.666 202.369 173.53C202.441 173.437 202.477 173.162 202.477 172.705V169.354C202.477 168.905 202.435 168.626 202.35 168.516C202.27 168.406 202.098 168.334 201.836 168.3V168.065H204.254ZM218.298 170.82H215.042C215.08 171.607 215.289 172.229 215.67 172.686C215.962 173.037 216.313 173.213 216.724 173.213C216.978 173.213 217.208 173.143 217.416 173.003C217.623 172.86 217.845 172.604 218.082 172.235L218.298 172.375C217.976 173.031 217.621 173.496 217.232 173.771C216.842 174.042 216.392 174.178 215.879 174.178C214.999 174.178 214.333 173.839 213.88 173.162C213.516 172.616 213.334 171.939 213.334 171.131C213.334 170.141 213.601 169.354 214.134 168.77C214.671 168.181 215.3 167.887 216.019 167.887C216.62 167.887 217.141 168.135 217.581 168.63C218.025 169.121 218.264 169.851 218.298 170.82ZM216.736 170.395C216.736 169.713 216.698 169.246 216.622 168.992C216.55 168.738 216.436 168.545 216.279 168.414C216.191 168.338 216.072 168.3 215.924 168.3C215.704 168.3 215.524 168.408 215.384 168.624C215.135 169 215.01 169.516 215.01 170.172V170.395H216.736ZM222.122 168.065V168.833C222.426 168.503 222.718 168.264 222.998 168.116C223.277 167.963 223.578 167.887 223.899 167.887C224.284 167.887 224.604 167.995 224.858 168.211C225.112 168.423 225.281 168.687 225.365 169.004C225.433 169.246 225.467 169.709 225.467 170.395V172.705C225.467 173.162 225.507 173.448 225.588 173.562C225.672 173.672 225.846 173.742 226.108 173.771V174H223.106V173.771C223.33 173.742 223.491 173.649 223.588 173.492C223.656 173.386 223.69 173.124 223.69 172.705V170.064C223.69 169.578 223.671 169.271 223.633 169.144C223.594 169.017 223.529 168.92 223.436 168.852C223.347 168.78 223.247 168.744 223.137 168.744C222.773 168.744 222.435 169.004 222.122 169.525V172.705C222.122 173.149 222.162 173.431 222.242 173.549C222.327 173.668 222.481 173.742 222.706 173.771V174H219.703V173.771C219.953 173.746 220.131 173.666 220.237 173.53C220.308 173.437 220.344 173.162 220.344 172.705V169.354C220.344 168.905 220.302 168.626 220.217 168.516C220.137 168.406 219.966 168.334 219.703 168.3V168.065H222.122ZM229.938 165.894V168.065H231.347V168.693H229.938V172.356C229.938 172.699 229.953 172.921 229.983 173.022C230.017 173.12 230.074 173.2 230.154 173.264C230.235 173.323 230.309 173.353 230.376 173.353C230.651 173.353 230.912 173.143 231.157 172.724L231.347 172.864C231.005 173.676 230.448 174.083 229.678 174.083C229.301 174.083 228.982 173.979 228.72 173.771C228.461 173.56 228.296 173.325 228.224 173.067C228.182 172.923 228.161 172.534 228.161 171.899V168.693H227.387V168.471C227.92 168.095 228.373 167.699 228.745 167.284C229.122 166.869 229.45 166.406 229.729 165.894H229.938ZM239.065 168.687V172.807C239.065 173.204 239.107 173.454 239.192 173.556C239.327 173.712 239.577 173.784 239.941 173.771V174H236.443V173.771C236.71 173.767 236.898 173.738 237.008 173.683C237.123 173.623 237.201 173.543 237.243 173.441C237.285 173.34 237.307 173.128 237.307 172.807V168.687H236.443V168.065H237.307V167.627L237.3 167.329C237.3 166.719 237.522 166.211 237.967 165.805C238.415 165.399 239.021 165.196 239.782 165.196C240.303 165.196 240.688 165.293 240.938 165.488C241.191 165.682 241.318 165.898 241.318 166.135C241.318 166.326 241.24 166.491 241.083 166.63C240.927 166.77 240.72 166.84 240.461 166.84C240.241 166.84 240.066 166.783 239.935 166.668C239.808 166.554 239.744 166.427 239.744 166.288C239.744 166.25 239.757 166.171 239.782 166.053C239.799 165.981 239.808 165.913 239.808 165.85C239.808 165.761 239.782 165.695 239.731 165.653C239.664 165.589 239.581 165.558 239.484 165.558C239.361 165.558 239.257 165.608 239.173 165.71C239.092 165.812 239.052 165.974 239.052 166.199L239.065 167.31V168.065H239.941V168.687H239.065ZM244.241 167.887C244.757 167.887 245.237 168.021 245.682 168.287C246.126 168.554 246.463 168.932 246.691 169.423C246.924 169.914 247.04 170.452 247.04 171.036C247.04 171.878 246.826 172.582 246.399 173.149C245.883 173.835 245.17 174.178 244.26 174.178C243.367 174.178 242.679 173.865 242.197 173.238C241.714 172.612 241.473 171.886 241.473 171.061C241.473 170.21 241.719 169.47 242.21 168.839C242.705 168.205 243.382 167.887 244.241 167.887ZM244.266 168.338C244.05 168.338 243.864 168.42 243.708 168.585C243.555 168.746 243.454 169.068 243.403 169.55C243.356 170.028 243.333 170.695 243.333 171.55C243.333 172.003 243.363 172.426 243.422 172.819C243.469 173.12 243.568 173.348 243.72 173.505C243.873 173.661 244.046 173.74 244.241 173.74C244.431 173.74 244.59 173.687 244.717 173.581C244.882 173.437 244.992 173.236 245.047 172.978C245.132 172.576 245.174 171.764 245.174 170.541C245.174 169.821 245.134 169.328 245.053 169.062C244.973 168.791 244.854 168.594 244.698 168.471C244.588 168.382 244.444 168.338 244.266 168.338ZM251.054 168.065V169.411C251.448 168.797 251.793 168.391 252.089 168.192C252.385 167.989 252.671 167.887 252.946 167.887C253.183 167.887 253.371 167.961 253.511 168.109C253.655 168.253 253.727 168.458 253.727 168.725C253.727 169.009 253.657 169.229 253.517 169.385C253.382 169.542 253.217 169.62 253.022 169.62C252.798 169.62 252.603 169.548 252.438 169.404C252.273 169.26 252.176 169.18 252.146 169.163C252.104 169.138 252.055 169.125 252 169.125C251.877 169.125 251.761 169.172 251.651 169.265C251.478 169.409 251.346 169.614 251.258 169.88C251.122 170.291 251.054 170.744 251.054 171.239V172.604L251.061 172.959C251.061 173.2 251.076 173.355 251.105 173.422C251.156 173.537 251.23 173.621 251.327 173.676C251.429 173.727 251.598 173.759 251.835 173.771V174H248.63V173.771C248.888 173.75 249.061 173.681 249.15 173.562C249.243 173.439 249.29 173.12 249.29 172.604V169.322C249.29 168.983 249.273 168.767 249.239 168.674C249.197 168.556 249.135 168.469 249.055 168.414C248.974 168.359 248.833 168.321 248.63 168.3V168.065H251.054ZM171.189 182.9L171.285 184.925H171.069C170.811 184.324 170.542 183.913 170.263 183.693C169.988 183.473 169.713 183.363 169.438 183.363C169.264 183.363 169.116 183.423 168.993 183.541C168.87 183.655 168.809 183.789 168.809 183.941C168.809 184.055 168.851 184.165 168.936 184.271C169.071 184.444 169.45 184.743 170.072 185.166C170.694 185.585 171.103 185.943 171.297 186.239C171.496 186.531 171.596 186.859 171.596 187.223C171.596 187.553 171.513 187.876 171.348 188.194C171.183 188.511 170.95 188.755 170.65 188.924C170.349 189.093 170.017 189.178 169.653 189.178C169.37 189.178 168.991 189.089 168.517 188.911C168.39 188.865 168.303 188.841 168.257 188.841C168.117 188.841 168.001 188.947 167.908 189.159H167.698L167.597 187.026H167.812C168.003 187.584 168.263 188.003 168.593 188.283C168.928 188.562 169.243 188.702 169.539 188.702C169.742 188.702 169.907 188.64 170.034 188.518C170.165 188.391 170.231 188.238 170.231 188.061C170.231 187.857 170.167 187.682 170.041 187.534C169.914 187.386 169.63 187.161 169.19 186.861C168.542 186.412 168.124 186.069 167.933 185.833C167.654 185.486 167.514 185.103 167.514 184.684C167.514 184.227 167.671 183.814 167.984 183.446C168.301 183.073 168.758 182.887 169.355 182.887C169.677 182.887 169.988 182.965 170.288 183.122C170.402 183.186 170.495 183.217 170.567 183.217C170.644 183.217 170.705 183.202 170.751 183.173C170.798 183.139 170.872 183.048 170.974 182.9H171.189ZM178.181 185.82H174.924C174.963 186.607 175.172 187.229 175.553 187.686C175.845 188.037 176.196 188.213 176.607 188.213C176.86 188.213 177.091 188.143 177.298 188.003C177.506 187.86 177.728 187.604 177.965 187.235L178.181 187.375C177.859 188.031 177.504 188.496 177.114 188.771C176.725 189.042 176.274 189.178 175.762 189.178C174.882 189.178 174.216 188.839 173.763 188.162C173.399 187.616 173.217 186.939 173.217 186.131C173.217 185.141 173.483 184.354 174.017 183.77C174.554 183.181 175.183 182.887 175.902 182.887C176.503 182.887 177.023 183.135 177.463 183.63C177.908 184.121 178.147 184.851 178.181 185.82ZM176.619 185.395C176.619 184.713 176.581 184.246 176.505 183.992C176.433 183.738 176.319 183.545 176.162 183.414C176.073 183.338 175.955 183.3 175.807 183.3C175.587 183.3 175.407 183.408 175.267 183.624C175.018 184 174.893 184.516 174.893 185.172V185.395H176.619ZM182.043 183.065V183.846C182.369 183.49 182.669 183.243 182.944 183.103C183.223 182.959 183.528 182.887 183.858 182.887C184.239 182.887 184.558 182.976 184.817 183.154C185.075 183.332 185.274 183.602 185.413 183.966C185.752 183.585 186.076 183.31 186.384 183.141C186.698 182.972 187.023 182.887 187.362 182.887C187.772 182.887 188.098 182.982 188.34 183.173C188.585 183.359 188.754 183.598 188.847 183.89C188.945 184.178 188.993 184.639 188.993 185.274V187.705C188.993 188.162 189.034 188.446 189.114 188.556C189.199 188.666 189.372 188.738 189.634 188.771V189H186.569V188.771C186.81 188.75 186.988 188.657 187.102 188.492C187.178 188.378 187.216 188.116 187.216 187.705V185.153C187.216 184.624 187.195 184.288 187.153 184.144C187.11 184 187.043 183.894 186.949 183.827C186.861 183.755 186.755 183.719 186.632 183.719C186.45 183.719 186.266 183.786 186.08 183.922C185.894 184.053 185.705 184.252 185.515 184.519V187.705C185.515 188.132 185.551 188.401 185.623 188.511C185.72 188.668 185.906 188.755 186.181 188.771V189H183.109V188.771C183.274 188.763 183.403 188.723 183.496 188.651C183.594 188.575 183.657 188.486 183.687 188.384C183.721 188.278 183.738 188.052 183.738 187.705V185.153C183.738 184.616 183.716 184.279 183.674 184.144C183.632 184.009 183.56 183.903 183.458 183.827C183.361 183.75 183.255 183.712 183.141 183.712C182.972 183.712 182.817 183.757 182.677 183.846C182.479 183.977 182.267 184.201 182.043 184.519V187.705C182.043 188.124 182.083 188.401 182.163 188.537C182.248 188.668 182.421 188.746 182.684 188.771V189H179.624V188.771C179.874 188.746 180.052 188.666 180.157 188.53C180.229 188.437 180.265 188.162 180.265 187.705V184.354C180.265 183.905 180.223 183.626 180.138 183.516C180.058 183.406 179.887 183.334 179.624 183.3V183.065H182.043ZM192.487 180.189C192.762 180.189 192.995 180.287 193.185 180.481C193.376 180.672 193.471 180.903 193.471 181.173C193.471 181.444 193.374 181.675 193.179 181.865C192.989 182.056 192.758 182.151 192.487 182.151C192.216 182.151 191.986 182.056 191.795 181.865C191.605 181.675 191.51 181.444 191.51 181.173C191.51 180.903 191.605 180.672 191.795 180.481C191.986 180.287 192.216 180.189 192.487 180.189ZM193.376 183.065V187.769C193.376 188.188 193.424 188.456 193.522 188.575C193.619 188.689 193.81 188.755 194.093 188.771V189H190.888V188.771C191.15 188.763 191.345 188.687 191.471 188.543C191.556 188.446 191.598 188.188 191.598 187.769V184.303C191.598 183.884 191.55 183.617 191.452 183.503C191.355 183.384 191.167 183.317 190.888 183.3V183.065H193.376ZM200.17 187.47L200.367 187.623C200.088 188.147 199.739 188.539 199.32 188.797C198.905 189.051 198.463 189.178 197.993 189.178C197.202 189.178 196.569 188.879 196.095 188.283C195.621 187.686 195.384 186.969 195.384 186.131C195.384 185.323 195.6 184.612 196.032 183.998C196.552 183.257 197.269 182.887 198.183 182.887C198.797 182.887 199.284 183.042 199.643 183.351C200.007 183.66 200.189 184.004 200.189 184.385C200.189 184.626 200.115 184.819 199.967 184.963C199.823 185.107 199.633 185.179 199.396 185.179C199.146 185.179 198.939 185.096 198.774 184.931C198.613 184.766 198.514 184.472 198.475 184.049C198.45 183.782 198.389 183.596 198.291 183.49C198.194 183.384 198.08 183.332 197.949 183.332C197.746 183.332 197.572 183.439 197.428 183.655C197.208 183.981 197.098 184.48 197.098 185.153C197.098 185.712 197.187 186.247 197.365 186.759C197.542 187.267 197.786 187.646 198.095 187.896C198.327 188.077 198.602 188.168 198.92 188.168C199.127 188.168 199.324 188.12 199.51 188.022C199.696 187.925 199.916 187.741 200.17 187.47ZM204.553 182.887C205.069 182.887 205.549 183.021 205.994 183.287C206.438 183.554 206.774 183.932 207.003 184.423C207.236 184.914 207.352 185.452 207.352 186.036C207.352 186.878 207.138 187.582 206.711 188.149C206.195 188.835 205.482 189.178 204.572 189.178C203.679 189.178 202.991 188.865 202.509 188.238C202.026 187.612 201.785 186.886 201.785 186.061C201.785 185.21 202.031 184.47 202.521 183.839C203.017 183.205 203.694 182.887 204.553 182.887ZM204.578 183.338C204.362 183.338 204.176 183.42 204.02 183.585C203.867 183.746 203.766 184.068 203.715 184.55C203.668 185.028 203.645 185.695 203.645 186.55C203.645 187.003 203.675 187.426 203.734 187.819C203.78 188.12 203.88 188.348 204.032 188.505C204.185 188.661 204.358 188.74 204.553 188.74C204.743 188.74 204.902 188.687 205.029 188.581C205.194 188.437 205.304 188.236 205.359 187.978C205.444 187.576 205.486 186.764 205.486 185.541C205.486 184.821 205.446 184.328 205.365 184.062C205.285 183.791 205.166 183.594 205.01 183.471C204.9 183.382 204.756 183.338 204.578 183.338ZM211.328 183.065V183.833C211.633 183.503 211.925 183.264 212.204 183.116C212.483 182.963 212.784 182.887 213.106 182.887C213.491 182.887 213.81 182.995 214.064 183.211C214.318 183.423 214.487 183.687 214.572 184.004C214.64 184.246 214.673 184.709 214.673 185.395V187.705C214.673 188.162 214.714 188.448 214.794 188.562C214.879 188.672 215.052 188.742 215.315 188.771V189H212.312V188.771C212.536 188.742 212.697 188.649 212.795 188.492C212.862 188.386 212.896 188.124 212.896 187.705V185.064C212.896 184.578 212.877 184.271 212.839 184.144C212.801 184.017 212.735 183.92 212.642 183.852C212.553 183.78 212.454 183.744 212.344 183.744C211.98 183.744 211.641 184.004 211.328 184.525V187.705C211.328 188.149 211.368 188.431 211.449 188.549C211.533 188.668 211.688 188.742 211.912 188.771V189H208.91V188.771C209.159 188.746 209.337 188.666 209.443 188.53C209.515 188.437 209.551 188.162 209.551 187.705V184.354C209.551 183.905 209.509 183.626 209.424 183.516C209.344 183.406 209.172 183.334 208.91 183.3V183.065H211.328ZM222.56 180.393V187.223C222.56 187.684 222.572 187.957 222.598 188.042C222.632 188.181 222.695 188.285 222.788 188.353C222.886 188.42 223.053 188.463 223.29 188.479V188.689L220.782 189.178V188.238C220.482 188.602 220.213 188.85 219.976 188.981C219.744 189.112 219.479 189.178 219.183 189.178C218.425 189.178 217.827 188.839 217.386 188.162C217.031 187.612 216.853 186.937 216.853 186.137C216.853 185.498 216.963 184.927 217.183 184.423C217.403 183.916 217.704 183.533 218.085 183.274C218.47 183.016 218.882 182.887 219.322 182.887C219.606 182.887 219.858 182.942 220.078 183.052C220.298 183.162 220.533 183.355 220.782 183.63V181.84C220.782 181.387 220.763 181.114 220.725 181.021C220.675 180.898 220.598 180.807 220.497 180.748C220.395 180.689 220.205 180.659 219.925 180.659V180.393H222.56ZM220.782 184.417C220.469 183.816 220.086 183.516 219.633 183.516C219.477 183.516 219.348 183.558 219.246 183.643C219.09 183.774 218.961 184.004 218.859 184.334C218.762 184.665 218.713 185.17 218.713 185.852C218.713 186.601 218.768 187.155 218.878 187.515C218.988 187.874 219.138 188.135 219.329 188.295C219.426 188.376 219.559 188.416 219.729 188.416C220.101 188.416 220.452 188.124 220.782 187.54V184.417ZM227.951 188.124C227.228 188.763 226.578 189.083 226.003 189.083C225.664 189.083 225.383 188.972 225.158 188.752C224.934 188.528 224.822 188.249 224.822 187.915C224.822 187.462 225.017 187.056 225.406 186.696C225.795 186.332 226.644 185.849 227.951 185.249V184.652C227.951 184.203 227.926 183.922 227.875 183.808C227.829 183.689 227.738 183.588 227.602 183.503C227.467 183.414 227.315 183.37 227.145 183.37C226.87 183.37 226.644 183.431 226.466 183.554C226.356 183.63 226.301 183.719 226.301 183.82C226.301 183.909 226.36 184.019 226.479 184.15C226.64 184.332 226.72 184.508 226.72 184.677C226.72 184.885 226.642 185.062 226.485 185.21C226.333 185.354 226.132 185.426 225.882 185.426C225.616 185.426 225.391 185.346 225.209 185.185C225.032 185.024 224.943 184.836 224.943 184.62C224.943 184.315 225.063 184.026 225.304 183.75C225.546 183.471 225.882 183.257 226.314 183.109C226.745 182.961 227.194 182.887 227.659 182.887C228.222 182.887 228.667 183.008 228.992 183.249C229.323 183.486 229.536 183.744 229.634 184.023C229.693 184.201 229.722 184.61 229.722 185.249V187.553C229.722 187.824 229.733 187.995 229.754 188.067C229.775 188.135 229.807 188.185 229.849 188.219C229.892 188.253 229.94 188.27 229.995 188.27C230.105 188.27 230.218 188.192 230.332 188.035L230.522 188.188C230.311 188.501 230.091 188.729 229.862 188.873C229.638 189.013 229.382 189.083 229.094 189.083C228.756 189.083 228.491 189.004 228.301 188.848C228.11 188.687 227.994 188.446 227.951 188.124ZM227.951 187.661V185.674C227.439 185.974 227.059 186.296 226.809 186.639C226.644 186.867 226.561 187.098 226.561 187.331C226.561 187.525 226.631 187.697 226.771 187.845C226.877 187.959 227.025 188.016 227.215 188.016C227.427 188.016 227.672 187.898 227.951 187.661ZM236.669 187.47L236.866 187.623C236.587 188.147 236.238 188.539 235.819 188.797C235.404 189.051 234.962 189.178 234.492 189.178C233.701 189.178 233.068 188.879 232.594 188.283C232.12 187.686 231.883 186.969 231.883 186.131C231.883 185.323 232.099 184.612 232.531 183.998C233.051 183.257 233.768 182.887 234.683 182.887C235.296 182.887 235.783 183.042 236.142 183.351C236.506 183.66 236.688 184.004 236.688 184.385C236.688 184.626 236.614 184.819 236.466 184.963C236.322 185.107 236.132 185.179 235.895 185.179C235.645 185.179 235.438 185.096 235.273 184.931C235.112 184.766 235.013 184.472 234.975 184.049C234.949 183.782 234.888 183.596 234.79 183.49C234.693 183.384 234.579 183.332 234.448 183.332C234.245 183.332 234.071 183.439 233.927 183.655C233.707 183.981 233.597 184.48 233.597 185.153C233.597 185.712 233.686 186.247 233.864 186.759C234.041 187.267 234.285 187.646 234.594 187.896C234.826 188.077 235.101 188.168 235.419 188.168C235.626 188.168 235.823 188.12 236.009 188.022C236.195 187.925 236.415 187.741 236.669 187.47ZM240.607 180.894V183.065H242.017V183.693H240.607V187.356C240.607 187.699 240.622 187.921 240.652 188.022C240.686 188.12 240.743 188.2 240.823 188.264C240.904 188.323 240.978 188.353 241.045 188.353C241.32 188.353 241.581 188.143 241.826 187.724L242.017 187.864C241.674 188.676 241.117 189.083 240.347 189.083C239.971 189.083 239.651 188.979 239.389 188.771C239.131 188.56 238.965 188.325 238.894 188.067C238.851 187.923 238.83 187.534 238.83 186.899V183.693H238.056V183.471C238.589 183.095 239.042 182.699 239.414 182.284C239.791 181.869 240.119 181.406 240.398 180.894H240.607ZM246.031 182.887C246.547 182.887 247.027 183.021 247.472 183.287C247.916 183.554 248.253 183.932 248.481 184.423C248.714 184.914 248.83 185.452 248.83 186.036C248.83 186.878 248.616 187.582 248.189 188.149C247.673 188.835 246.96 189.178 246.05 189.178C245.157 189.178 244.469 188.865 243.987 188.238C243.504 187.612 243.263 186.886 243.263 186.061C243.263 185.21 243.509 184.47 244 183.839C244.495 183.205 245.172 182.887 246.031 182.887ZM246.056 183.338C245.84 183.338 245.654 183.42 245.498 183.585C245.345 183.746 245.244 184.068 245.193 184.55C245.146 185.028 245.123 185.695 245.123 186.55C245.123 187.003 245.153 187.426 245.212 187.819C245.259 188.12 245.358 188.348 245.51 188.505C245.663 188.661 245.836 188.74 246.031 188.74C246.221 188.74 246.38 188.687 246.507 188.581C246.672 188.437 246.782 188.236 246.837 187.978C246.922 187.576 246.964 186.764 246.964 185.541C246.964 184.821 246.924 184.328 246.843 184.062C246.763 183.791 246.644 183.594 246.488 183.471C246.378 183.382 246.234 183.338 246.056 183.338ZM252.844 183.065V184.411C253.238 183.797 253.583 183.391 253.879 183.192C254.175 182.989 254.461 182.887 254.736 182.887C254.973 182.887 255.161 182.961 255.301 183.109C255.445 183.253 255.517 183.458 255.517 183.725C255.517 184.009 255.447 184.229 255.307 184.385C255.172 184.542 255.007 184.62 254.812 184.62C254.588 184.62 254.393 184.548 254.228 184.404C254.063 184.26 253.966 184.18 253.936 184.163C253.894 184.138 253.845 184.125 253.79 184.125C253.668 184.125 253.551 184.172 253.441 184.265C253.268 184.409 253.136 184.614 253.048 184.88C252.912 185.291 252.844 185.744 252.844 186.239V187.604L252.851 187.959C252.851 188.2 252.866 188.355 252.895 188.422C252.946 188.537 253.02 188.621 253.117 188.676C253.219 188.727 253.388 188.759 253.625 188.771V189H250.42V188.771C250.678 188.75 250.851 188.681 250.94 188.562C251.033 188.439 251.08 188.12 251.08 187.604V184.322C251.08 183.983 251.063 183.767 251.029 183.674C250.987 183.556 250.925 183.469 250.845 183.414C250.765 183.359 250.623 183.321 250.42 183.3V183.065H252.844ZM260.559 182.9L260.655 184.925H260.439C260.181 184.324 259.912 183.913 259.633 183.693C259.358 183.473 259.082 183.363 258.807 183.363C258.634 183.363 258.486 183.423 258.363 183.541C258.24 183.655 258.179 183.789 258.179 183.941C258.179 184.055 258.221 184.165 258.306 184.271C258.441 184.444 258.82 184.743 259.442 185.166C260.064 185.585 260.473 185.943 260.667 186.239C260.866 186.531 260.966 186.859 260.966 187.223C260.966 187.553 260.883 187.876 260.718 188.194C260.553 188.511 260.32 188.755 260.02 188.924C259.719 189.093 259.387 189.178 259.023 189.178C258.74 189.178 258.361 189.089 257.887 188.911C257.76 188.865 257.673 188.841 257.627 188.841C257.487 188.841 257.371 188.947 257.278 189.159H257.068L256.967 187.026H257.182C257.373 187.584 257.633 188.003 257.963 188.283C258.297 188.562 258.613 188.702 258.909 188.702C259.112 188.702 259.277 188.64 259.404 188.518C259.535 188.391 259.601 188.238 259.601 188.061C259.601 187.857 259.537 187.682 259.41 187.534C259.283 187.386 259 187.161 258.56 186.861C257.912 186.412 257.493 186.069 257.303 185.833C257.024 185.486 256.884 185.103 256.884 184.684C256.884 184.227 257.041 183.814 257.354 183.446C257.671 183.073 258.128 182.887 258.725 182.887C259.047 182.887 259.358 182.965 259.658 183.122C259.772 183.186 259.865 183.217 259.937 183.217C260.013 183.217 260.075 183.202 260.121 183.173C260.168 183.139 260.242 183.048 260.344 182.9H260.559Z" fill="#BFDBD7"/>
<path d="M193.156 96.0938V121.969H194.422C198.453 121.969 201.375 120.703 203.188 118.172C205 115.641 206.156 111.906 206.656 106.969H208.438V140.25H206.656C206.281 136.625 205.484 133.656 204.266 131.344C203.078 129.031 201.688 127.484 200.094 126.703C198.5 125.891 196.188 125.484 193.156 125.484V143.391C193.156 146.891 193.297 149.031 193.578 149.812C193.891 150.594 194.453 151.234 195.266 151.734C196.078 152.234 197.391 152.484 199.203 152.484H203C208.938 152.484 213.688 151.109 217.25 148.359C220.844 145.609 223.422 141.422 224.984 135.797H226.719L223.859 156H168.922V154.266H171.031C172.875 154.266 174.359 153.938 175.484 153.281C176.297 152.844 176.922 152.094 177.359 151.031C177.703 150.281 177.875 148.312 177.875 145.125V103.312C177.875 100.438 177.797 98.6719 177.641 98.0156C177.328 96.9219 176.75 96.0781 175.906 95.4844C174.719 94.6094 173.094 94.1719 171.031 94.1719H168.922V92.4375H222.125V111.234H220.344C219.438 106.641 218.156 103.344 216.5 101.344C214.875 99.3438 212.562 97.875 209.562 96.9375C207.812 96.375 204.531 96.0938 199.719 96.0938H193.156ZM276.125 90.9844L276.641 112.172H274.719C273.812 106.859 271.578 102.594 268.016 99.375C264.484 96.125 260.656 94.5 256.531 94.5C253.344 94.5 250.812 95.3594 248.938 97.0781C247.094 98.7656 246.172 100.719 246.172 102.938C246.172 104.344 246.5 105.594 247.156 106.688C248.062 108.156 249.516 109.609 251.516 111.047C252.984 112.078 256.375 113.906 261.688 116.531C269.125 120.188 274.141 123.641 276.734 126.891C279.297 130.141 280.578 133.859 280.578 138.047C280.578 143.359 278.5 147.938 274.344 151.781C270.219 155.594 264.969 157.5 258.594 157.5C256.594 157.5 254.703 157.297 252.922 156.891C251.141 156.484 248.906 155.719 246.219 154.594C244.719 153.969 243.484 153.656 242.516 153.656C241.703 153.656 240.844 153.969 239.938 154.594C239.031 155.219 238.297 156.172 237.734 157.453H236V133.453H237.734C239.109 140.203 241.75 145.359 245.656 148.922C249.594 152.453 253.828 154.219 258.359 154.219C261.859 154.219 264.641 153.266 266.703 151.359C268.797 149.453 269.844 147.234 269.844 144.703C269.844 143.203 269.438 141.75 268.625 140.344C267.844 138.938 266.641 137.609 265.016 136.359C263.391 135.078 260.516 133.422 256.391 131.391C250.609 128.547 246.453 126.125 243.922 124.125C241.391 122.125 239.438 119.891 238.062 117.422C236.719 114.953 236.047 112.234 236.047 109.266C236.047 104.203 237.906 99.8906 241.625 96.3281C245.344 92.7656 250.031 90.9844 255.688 90.9844C257.75 90.9844 259.75 91.2344 261.688 91.7344C263.156 92.1094 264.938 92.8125 267.031 93.8438C269.156 94.8438 270.641 95.3438 271.484 95.3438C272.297 95.3438 272.938 95.0938 273.406 94.5938C273.875 94.0938 274.312 92.8906 274.719 90.9844H276.125Z" fill="#BFDBD7"/>
<path fill-rule="evenodd" clip-rule="evenodd" d="M78.8242 77.3119C72.5457 78.5097 65.0304 81.0017 59.3526 83.7673L54.475 86.1435L55.1199 92.1539C55.7127 97.6882 57.1326 108.227 58.3232 115.937L58.8129 119.102H59.639C60.0936 119.102 62.8554 115.486 65.7774 111.068C71.8587 101.871 78.625 93.1998 86.9664 83.9134C90.1577 80.3609 92.7683 77.1833 92.7683 76.8532V76.2533L88.0118 76.3604C85.3962 76.4189 81.2616 76.8474 78.8242 77.3119ZM94.0611 84.2874C85.1108 93.1024 73.6582 107.61 66.2511 119.516L60.5843 128.626L62.7072 140.175C67.4607 166.035 74.249 189.521 80.4695 201.633L84.0964 208.693L91.1861 208.677L98.2758 208.659L105.285 207.245L112.295 205.831L121.647 201.262L130.998 196.694L137.744 190.277L144.49 183.861L148.099 178.505C152.804 171.522 155.221 165.92 157.225 157.348L158.859 150.366V142.194V134.021L156.854 126.318L154.849 118.615L151.766 112.661L148.684 106.707L143.817 100.857L138.949 95.0082L132.639 90.3942C123.204 83.4966 108.668 77.2271 102.112 77.2271C101.626 77.2271 98.0035 80.4047 94.0611 84.2874ZM44.1449 94.5125C37.1072 101.043 32.6952 107.019 28.6727 115.469L25.7848 121.536L24.0944 129.781L22.4031 138.026L23.02 146.471L23.6358 154.917L26.1332 162.572L28.6296 170.227L32.3547 176.331L36.0808 182.436L37.1373 182.099L38.1937 181.762L38.4731 177.943C38.8296 173.057 41.0616 163.98 44.8598 151.967L47.8629 142.47L52.291 134.101L56.719 125.731V122.743C56.719 121.099 55.7527 112.815 54.5711 104.334L52.4232 88.913H51.3016C50.6848 88.913 47.4644 91.4323 44.1449 94.5125ZM66.6927 99.0914L67.8993 100.505L67.2785 102.41L66.6566 104.314L65.0514 104.913L63.4462 105.512L61.5847 104.937L59.7231 104.363V101.588V98.8139L60.9749 98.3221C61.6638 98.0524 62.9596 97.7962 63.8568 97.7544L65.486 97.6774L66.6927 99.0914ZM46.2047 109.363V110.798L44.4523 111.126L42.6999 111.454V109.363V107.273L44.4523 107.601L46.2047 107.929V109.363ZM52.6735 122.246L54.2026 124.904L52.0466 126.999L49.8917 129.095L47.3122 128.466L44.7327 127.837L44.0988 125.377L43.4639 122.918L45.2794 120.967L47.0959 119.016L49.1196 119.302L51.1444 119.588L52.6735 122.246ZM54.7403 140.769C48.666 153.742 44.7046 168.091 43.1515 182.751L42.4425 189.431L45.3255 191.811C54.5871 199.457 67.684 205.946 76.4961 207.258C81.598 208.017 81.5299 208.658 77.2861 199.724C71.0566 186.613 64.2193 162.472 60.6624 141.027L59.4488 133.709H58.7468C58.3613 133.709 56.5578 136.887 54.7403 140.769ZM58.7218 141.986V143.447H57.2197H55.7177V141.986V140.526H57.2197H58.7218V141.986ZM36.5144 158.379L36.8389 160.002H35.3218C34.4877 160.002 33.5273 159.564 33.1869 159.028L32.568 158.055L33.2199 157.029L33.8708 156.004L35.0314 156.38C35.6693 156.586 36.3362 157.486 36.5144 158.379ZM72.6358 197.371L73.7773 198.709L73.1815 200.217C72.8541 201.047 71.8878 201.987 71.0346 202.305L69.4835 202.884L68.1076 201.774C66.4133 200.407 66.3502 198.743 67.9344 197.202C69.5185 195.662 71.2299 195.723 72.6358 197.371Z" fill="#BFDBD7"/>
</svg>
