<svg width="10" height="20" viewBox="0 0 10 20" fill="none" xmlns="http://www.w3.org/2000/svg">
<path d="M5 20C3.61667 20 2.4375 19.5125 1.4625 18.5375C0.4875 17.5625 0 16.3833 0 15C0 14.15 0.191666 13.35 0.575 12.6C0.958333 11.85 1.525 11.2917 2.275 10.925V2.725C2.275 1.975 2.54167 1.33333 3.075 0.8C3.60833 0.266667 4.25 0 5 0C5.75 0 6.39167 0.266667 6.925 0.8C7.45833 1.33333 7.725 1.975 7.725 2.725V10.925C8.475 11.2917 9.04167 11.85 9.425 12.6C9.80833 13.35 10 14.15 10 15C10 16.3833 9.5125 17.5625 8.5375 18.5375C7.5625 19.5125 6.38333 20 5 20ZM3.775 9.125H6.225V7.8H5V6.825H6.225V4.65H5V3.675H6.225V2.725C6.225 2.375 6.10833 2.08333 5.875 1.85C5.64167 1.61667 5.35 1.5 5 1.5C4.65 1.5 4.35833 1.61667 4.125 1.85C3.89167 2.08333 3.775 2.375 3.775 2.725V9.125Z" fill="#CC0000"/>
</svg>
