<svg width="20" height="40" viewBox="0 0 20 40" fill="none" xmlns="http://www.w3.org/2000/svg">
<path d="M10 40C7.23333 40 4.875 39.025 2.925 37.075C0.974999 35.125 0 32.7667 0 30C0 28.3 0.383333 26.7 1.15 25.2C1.91667 23.7 3.05 22.5833 4.55 21.85V5.45C4.55 3.95 5.08333 2.66667 6.15 1.6C7.21667 0.533333 8.5 0 10 0C11.5 0 12.7833 0.533333 13.85 1.6C14.9167 2.66667 15.45 3.95 15.45 5.45V21.85C16.95 22.5833 18.0833 23.7 18.85 25.2C19.6167 26.7 20 28.3 20 30C20 32.7667 19.025 35.125 17.075 37.075C15.125 39.025 12.7667 40 10 40ZM7.55 18.25H12.45V15.6H10V13.65H12.45V9.3H10V7.35H12.45V5.45C12.45 4.75 12.2167 4.16667 11.75 3.7C11.2833 3.23333 10.7 3 10 3C9.3 3 8.71667 3.23333 8.25 3.7C7.78333 4.16667 7.55 4.75 7.55 5.45V18.25Z" fill="#00FF19"/>
</svg>
