<svg width="512" height="332" viewBox="0 0 512 332" fill="none" xmlns="http://www.w3.org/2000/svg">
<path fill-rule="evenodd" clip-rule="evenodd" d="M283.5 1.207C279.108 2.742 274.492 6.467 272.013 10.479L269.837 14H207.284H144.732L140.616 15.23L136.5 16.46L132.5 20.509L128.5 24.559L107 61.951C95.175 82.517 85.168 100.192 84.761 101.229L84.022 103.113L86.261 105.327C87.493 106.544 93.068 110.118 98.65 113.27L108.8 119H110.778H112.755L114.083 117.4C114.814 116.519 124.466 100.432 135.533 81.65L155.654 47.5L184.077 47.184C199.71 47.01 225.55 47.172 241.5 47.545L270.5 48.222L272.804 51.879L275.109 55.536L278.727 58.018L282.345 60.5L300.173 60.813L318 61.126V74.408V87.69L319.829 89.345L321.657 91H346.638H371.618L373.291 89.75L374.964 88.5L375.232 75L375.5 61.5L442.406 61.243L509.312 60.986L510.656 59.87L512 58.755V30.578V2.4L510.8 1.2L509.6 0L398.05 0.0790024L286.5 0.157997L283.5 1.207ZM475 30.5V52H380.485H285.971L282.235 48.579L278.5 45.159L278.21 32.329L277.921 19.5L279.71 16L281.5 12.5L285 10.752L288.5 9.003L381.75 9.002L475 9V30.5ZM503 30.5V52H493.5H484V30.5V9H493.5H503V30.5ZM269 31.107V39.214L267.68 38.707C266.954 38.429 240.633 38.052 209.189 37.869L152.018 37.537L150.166 39.519C149.147 40.608 139.612 56.35 128.978 74.5C118.343 92.65 109.483 107.702 109.29 107.948C108.82 108.546 98.173 102.835 96.836 101.267L95.784 100.035L115.533 65.767C126.396 46.92 136.185 30.213 137.288 28.64L139.293 25.78L142.396 24.429L145.5 23.078L207.25 23.039L269 23V31.107ZM366 71.5V82H347H328V71.5V61H347H366V71.5ZM84.941 182.11L83.811 184.221L84.51 192.11L85.208 200H43.804H2.4L1.2 201.2L0 202.4V266V329.6L1.2 330.8L2.4 332H201H399.6L400.8 330.8L402 329.6V266V202.4L400.8 201.2L399.6 200H316.781H233.962L234.428 197.75C234.685 196.512 235.173 192.938 235.512 189.806L236.13 184.111L235.03 182.056L233.93 180H231H228.07L227.035 181.934L226 183.869V189.274V194.68L224.006 202.59L222.012 210.5L217.838 219L213.665 227.5L204.582 236.528L195.5 245.556L188.842 248.795L182.184 252.035L174.432 254.017L166.68 256L160.09 255.983L153.5 255.965L146.629 254.51L139.758 253.054L132.606 249.52L125.453 245.986L119.477 241.146L113.5 236.306L109 230.144C103.241 222.257 99.518 215.126 97.015 207.185L95.025 200.871L93.916 191.685L92.806 182.5L91.781 181.25L90.755 180H88.413H86.07L84.941 182.11ZM89.044 212.75C91.056 219.043 97.24 230.158 102.254 236.493L107.008 242.5L113.254 247.811L119.5 253.122L128.5 257.584L137.5 262.046L145 263.621L152.5 265.195L163.5 264.698L174.5 264.2L181.69 261.72C185.644 260.355 191.885 257.559 195.558 255.505L202.236 251.77L209.639 244.738L217.042 237.706L221.577 230.885L226.111 224.063L229.179 216.532L232.247 209H312.623H393V266V323H201H9V266V209H48.422H87.845L89.044 212.75Z" fill="#BFDBD7"/>
</svg>
